<svg width="460" height="450" viewBox="0 0 460 450" fill="none" xmlns="http://www.w3.org/2000/svg">
<path d="M219.393 402.556C302.326 402.556 369.558 335.325 369.558 252.391C369.558 169.457 302.326 102.226 219.393 102.226V167.162C264.222 167.162 300.563 203.503 300.563 248.333C300.563 293.162 264.222 329.503 219.393 329.503V402.556Z" fill="#3F3F44"/>
<g filter="url(#filter0_d_106_2638)">
<path fill-rule="evenodd" clip-rule="evenodd" d="M386.241 298.553L444.639 244.049H415.346C412.074 135.213 323.727 48 215.22 48V114.74C286.874 114.74 345.341 172.082 348.56 244.049H317.416L377.188 298.037C377.188 298.037 379.501 300.361 382.07 300.361C384.156 300.361 386.241 298.553 386.241 298.553Z" fill="#C71A07"/>
</g>
<path d="M386.241 298.553L444.639 244.049H415.346C412.074 135.213 323.727 48 215.22 48C105.33 48 16.1177 137.45 15.0104 248.22H81.7555C82.853 174.311 142.187 114.74 215.22 114.74C286.874 114.74 345.341 172.082 348.56 244.049H317.416L377.188 298.037C377.188 298.037 379.501 300.361 382.07 300.361C384.156 300.361 386.241 298.553 386.241 298.553Z" fill="url(#paint0_linear_106_2638)"/>
<circle cx="218.761" cy="249.263" r="71.4266" stroke="#6E808B" stroke-width="2"/>
<circle cx="218.76" cy="249.263" r="65.8549" stroke="#CBCBCB" stroke-dasharray="5 5"/>
<g filter="url(#filter1_i_106_2638)">
<rect x="171" y="201" width="96" height="96" rx="48" fill="white"/>
<path opacity="0.2" d="M228 252H198V259.5C198 259.898 198.158 260.279 198.439 260.561C198.721 260.842 199.102 261 199.5 261H203.25C203.25 259.807 203.724 258.662 204.568 257.818C205.412 256.974 206.557 256.5 207.75 256.5C208.943 256.5 210.088 256.974 210.932 257.818C211.776 258.662 212.25 259.807 212.25 261H225.75C225.749 260.21 225.957 259.433 226.352 258.748C226.747 258.064 227.315 257.495 228 257.1V252Z" fill="#8583FF"/>
<path opacity="0.2" d="M234.75 261C234.751 260.21 234.543 259.433 234.148 258.749C233.753 258.064 233.185 257.496 232.501 257.101C231.817 256.705 231.041 256.497 230.251 256.497C229.461 256.497 228.684 256.705 228 257.1V247.5H240V259.5C240 259.898 239.842 260.279 239.561 260.561C239.279 260.842 238.898 261 238.5 261H234.75Z" fill="#8583FF"/>
<path d="M228 240H235.988C236.286 239.998 236.579 240.087 236.826 240.254C237.074 240.421 237.265 240.66 237.375 240.938L240 247.5" stroke="#3F3F44" stroke-width="2" stroke-linecap="round" stroke-linejoin="round"/>
<path d="M198 252H228" stroke="#3F3F44" stroke-width="2" stroke-linecap="round" stroke-linejoin="round"/>
<path d="M230.25 265.5C232.735 265.5 234.75 263.485 234.75 261C234.75 258.515 232.735 256.5 230.25 256.5C227.765 256.5 225.75 258.515 225.75 261C225.75 263.485 227.765 265.5 230.25 265.5Z" stroke="#3F3F44" stroke-width="2" stroke-miterlimit="10"/>
<path d="M207.75 265.5C210.235 265.5 212.25 263.485 212.25 261C212.25 258.515 210.235 256.5 207.75 256.5C205.265 256.5 203.25 258.515 203.25 261C203.25 263.485 205.265 265.5 207.75 265.5Z" stroke="#3F3F44" stroke-width="2" stroke-miterlimit="10"/>
<path d="M225.75 261H212.25" stroke="#3F3F44" stroke-width="2" stroke-linecap="round" stroke-linejoin="round"/>
<path d="M203.25 261H199.5C199.102 261 198.721 260.842 198.439 260.561C198.158 260.279 198 259.898 198 259.5V238.5C198 238.102 198.158 237.721 198.439 237.439C198.721 237.158 199.102 237 199.5 237H228V257.1" stroke="#3F3F44" stroke-width="2" stroke-linecap="round" stroke-linejoin="round"/>
<path d="M228 247.5H240V259.5C240 259.898 239.842 260.279 239.561 260.561C239.279 260.842 238.898 261 238.5 261H234.75" stroke="#3F3F44" stroke-width="2" stroke-linecap="round" stroke-linejoin="round"/>
<rect x="171.5" y="201.5" width="95" height="95" rx="47.5" stroke="#F2F2F2"/>
</g>
<defs>
<filter id="filter0_d_106_2638" x="136.919" y="35.9536" width="319.766" height="342.708" filterUnits="userSpaceOnUse" color-interpolation-filters="sRGB">
<feFlood flood-opacity="0" result="BackgroundImageFix"/>
<feColorMatrix in="SourceAlpha" type="matrix" values="0 0 0 0 0 0 0 0 0 0 0 0 0 0 0 0 0 0 127 0" result="hardAlpha"/>
<feOffset dx="-33.1275" dy="33.1275"/>
<feGaussianBlur stdDeviation="22.5869"/>
<feComposite in2="hardAlpha" operator="out"/>
<feColorMatrix type="matrix" values="0 0 0 0 0 0 0 0 0 0 0 0 0 0 0 0 0 0 0.25 0"/>
<feBlend mode="normal" in2="BackgroundImageFix" result="effect1_dropShadow_106_2638"/>
<feBlend mode="normal" in="SourceGraphic" in2="effect1_dropShadow_106_2638" result="shape"/>
</filter>
<filter id="filter1_i_106_2638" x="171" y="201" width="96" height="96" filterUnits="userSpaceOnUse" color-interpolation-filters="sRGB">
<feFlood flood-opacity="0" result="BackgroundImageFix"/>
<feBlend mode="normal" in="SourceGraphic" in2="BackgroundImageFix" result="shape"/>
<feColorMatrix in="SourceAlpha" type="matrix" values="0 0 0 0 0 0 0 0 0 0 0 0 0 0 0 0 0 0 127 0" result="hardAlpha"/>
<feOffset/>
<feGaussianBlur stdDeviation="30"/>
<feComposite in2="hardAlpha" operator="arithmetic" k2="-1" k3="1"/>
<feColorMatrix type="matrix" values="0 0 0 0 0 0 0 0 0 0 0 0 0 0 0 0 0 0 0.05 0"/>
<feBlend mode="normal" in2="shape" result="effect1_innerShadow_106_2638"/>
</filter>
<linearGradient id="paint0_linear_106_2638" x1="163.451" y1="94.8517" x2="406.094" y2="284.167" gradientUnits="userSpaceOnUse">
<stop stop-color="#8583FF"/>
<stop offset="1" stop-color="#644DF5"/>
</linearGradient>
</defs>
</svg>
