<svg width="200" height="60" viewBox="0 0 200 60" fill="none" xmlns="http://www.w3.org/2000/svg">
<path fill-rule="evenodd" clip-rule="evenodd" d="M72.8474 15.5709C67.9787 15.5709 64.0319 19.5177 64.0319 24.3864C64.0319 24.6957 64.0478 25.0007 64.0787 25.3009C64.1645 26.1359 63.5573 26.8824 62.7223 26.9683C61.8874 27.0542 61.1409 26.4469 61.055 25.6119C61.0135 25.2086 60.9923 24.7997 60.9923 24.3864C60.9923 17.839 66.3 12.5312 72.8474 12.5312C79.3948 12.5312 84.7025 17.839 84.7025 24.3864C84.7025 30.9338 79.3948 36.2415 72.8474 36.2415C70.5996 36.2415 68.4936 35.6144 66.7 34.5249C65.9827 34.0891 65.7544 33.1543 66.1902 32.4369C66.626 31.7195 67.5608 31.4913 68.2782 31.927C69.6095 32.7358 71.1717 33.2019 72.8474 33.2019C77.7161 33.2019 81.6629 29.255 81.6629 24.3864C81.6629 19.5177 77.7161 15.5709 72.8474 15.5709ZM88.1377 17.1256C88.977 17.1256 89.6575 17.806 89.6575 18.6454V19.7851C91.0935 18.3451 93.1413 17.1256 95.88 17.1256C98.7258 17.1256 100.932 18.0624 102.422 19.6296C103.892 21.176 104.533 23.1978 104.533 25.145V41.449C104.533 42.2884 103.853 42.9689 103.013 42.9689C102.174 42.9689 101.494 42.2884 101.494 41.449V25.145C101.494 23.8431 101.066 22.6151 100.219 21.724C99.3916 20.8536 98.0312 20.1652 95.88 20.1652C93.9422 20.1652 92.5175 21.0986 91.4655 22.3001C90.4946 23.4091 89.9117 24.6768 89.6575 25.3923V41.449C89.6575 42.2884 88.977 42.9689 88.1377 42.9689C87.2983 42.9689 86.6178 42.2884 86.6178 41.449V18.6454C86.6178 17.806 87.2983 17.1256 88.1377 17.1256ZM105.604 17.3643C106.398 17.0918 107.263 17.5145 107.535 18.3084L113.666 36.1722L120.186 18.2814C120.473 17.4928 121.346 17.0864 122.134 17.3738C122.923 17.6612 123.329 18.5335 123.042 19.3221L115.051 41.2492C114.831 41.8542 114.253 42.2546 113.609 42.2485C112.965 42.2425 112.395 41.8313 112.186 41.2222L104.66 19.2951C104.388 18.5012 104.81 17.6367 105.604 17.3643ZM141.471 17.6752C142.167 17.2067 143.112 17.3914 143.58 18.0878L149.968 27.5814L156.356 18.0878C156.824 17.3914 157.769 17.2067 158.465 17.6752C159.162 18.1438 159.346 19.0882 158.878 19.7846L151.8 30.3039L158.878 40.8233C159.346 41.5197 159.162 42.4641 158.465 42.9327C157.769 43.4012 156.824 43.2165 156.356 42.5201L149.968 33.0265L143.58 42.5201C143.112 43.2165 142.167 43.4012 141.471 42.9327C140.775 42.4641 140.59 41.5197 141.058 40.8233L148.136 30.3039L141.058 19.7846C140.59 19.0882 140.775 18.1438 141.471 17.6752ZM40.8633 26.548C40.8633 21.5129 44.945 17.4312 49.98 17.4312C55.015 17.4312 59.0967 21.5129 59.0967 26.548V26.8678C59.0967 27.7072 58.4163 28.3876 57.5769 28.3876C56.7375 28.3876 56.0571 27.7072 56.0571 26.8678V26.548C56.0571 23.1917 53.3363 20.4709 49.98 20.4709C46.6237 20.4709 43.9029 23.1917 43.9029 26.548V33.8475C43.9029 37.2038 46.6237 39.9246 49.98 39.9246C53.3363 39.9246 56.0571 37.2038 56.0571 33.8475V33.6332C56.0571 32.7938 56.7375 32.1133 57.5769 32.1133C58.4163 32.1133 59.0967 32.7938 59.0967 33.6332V33.8475C59.0967 38.8825 55.015 42.9642 49.98 42.9642C44.945 42.9642 40.8633 38.8825 40.8633 33.8475V26.548ZM123.178 26.548C123.178 21.5129 127.26 17.4312 132.295 17.4312C137.33 17.4312 141.412 21.5129 141.412 26.548V26.8678C141.412 27.7072 140.731 28.3876 139.892 28.3876C139.804 28.3876 139.718 28.3801 139.634 28.3658C139.55 28.3801 139.464 28.3876 139.376 28.3876H126.218V33.8475C126.218 37.2038 128.939 39.9246 132.295 39.9246C135.651 39.9246 138.372 37.2038 138.372 33.8475V33.6332C138.372 32.7938 139.053 32.1133 139.892 32.1133C140.731 32.1133 141.412 32.7938 141.412 33.6332V33.8475C141.412 38.8825 137.33 42.9642 132.295 42.9642C127.26 42.9642 123.178 38.8825 123.178 33.8475V26.548ZM126.336 25.348H138.254C137.697 22.5664 135.24 20.4709 132.295 20.4709C129.349 20.4709 126.893 22.5664 126.336 25.348ZM72.8473 26.7983C67.9787 26.7983 64.0318 30.7451 64.0318 35.6138C64.0318 40.4825 67.9787 44.4293 72.8473 44.4293C77.716 44.4293 81.6628 40.4825 81.6628 35.6138C81.6628 35.3045 81.6469 34.9994 81.6161 34.6993C81.5302 33.8643 82.1374 33.1178 82.9724 33.0319C83.8074 32.946 84.5539 33.5533 84.6397 34.3882C84.6812 34.7916 84.7024 35.2005 84.7024 35.6138C84.7024 42.1612 79.3947 47.4689 72.8473 47.4689C66.2999 47.4689 60.9922 42.1612 60.9922 35.6138C60.9922 29.0664 66.2999 23.7587 72.8473 23.7587C75.0951 23.7587 77.2011 24.3857 78.9947 25.4753C79.7121 25.9111 79.9403 26.8459 79.5045 27.5633C79.0688 28.2806 78.1339 28.5089 77.4166 28.0731C76.0852 27.2644 74.523 26.7983 72.8473 26.7983Z" fill="white" fill-opacity="0.4"/>
</svg>
