<svg width="200" height="60" viewBox="0 0 200 60" fill="none" xmlns="http://www.w3.org/2000/svg">
<path fill-rule="evenodd" clip-rule="evenodd" d="M20 38.0096H37.8348C38.348 38.0096 39.0321 37.6661 39.2462 36.5885C39.3505 36.0633 39.6581 33.2022 39.9972 29.8708L39.2462 28.8373L40.16 28.26C40.439 25.4814 40.7207 22.5884 40.9142 20.5694C40.9142 20.3971 40.8372 20.0526 40.5293 20.0526H21.9246L21.4262 24.7033H35.5253L35.265 26.7703L21.1769 27.0287L20 38.0096ZM24.8757 33.8756H34.3705L34.7771 30.6459H25.2606L24.8757 33.8756Z" fill="white" fill-opacity="0.4"/>
<path d="M44.2502 19.7943L61.7001 20.0526C62.085 20.0526 62.8292 20.2335 62.7265 20.9569C62.6239 21.6804 62.3416 26.512 62.2133 28.8373C61.9567 30.2584 60.417 30.6459 59.3905 30.6459L56.8244 30.7751L62.2133 37.2344C62.2989 37.4067 62.3673 37.7512 61.9567 37.7512C61.5461 37.7512 57.081 37.8373 54.8998 37.8804C52.077 32.8421 51.3071 30.6459 47.7145 31.1627L46.9447 38.0096H42.069L43.3839 27.0287L57.3376 26.7703L57.4659 24.7033H43.6623L44.2502 19.7943Z" fill="white" fill-opacity="0.4"/>
<path d="M62.7265 37.8804L64.6512 20.0526L81.8444 20.311L81.5878 24.445H69.9118L69.7835 27.4163H75.1724L75.0441 30.6459L69.1419 30.7751L68.8853 33.8756H80.1764L79.9198 37.8804H62.7265Z" fill="white" fill-opacity="0.4"/>
<path d="M83.2558 37.8804L85.1804 20.0526H89.9278L98.2678 30.6459L99.5509 20.0526H104.17L102.63 37.8804H96.2149L89.158 27.933L87.7466 37.8804H83.2558Z" fill="white" fill-opacity="0.4"/>
<path fill-rule="evenodd" clip-rule="evenodd" d="M104.427 37.8804L106.351 20.0526L123.031 20.311L122.518 19.5359H129.19L132.783 24.8325L150.104 11.5263H161.909C147.538 20.6124 117.18 40.2316 110.714 46.0191L119.054 37.7512L104.427 37.8804ZM122.005 33.8756H110.457L110.714 30.7751H116.616L116.872 27.2871H111.355L111.484 24.445L123.288 24.5742L123.416 20.9569L129.19 28.1914L121.748 35.2966L122.005 33.8756Z" fill="white" fill-opacity="0.4"/>
<path d="M131.628 31.9378L136.375 28.8373L143.304 38.2679H136.632L131.628 31.9378Z" fill="white" fill-opacity="0.4"/>
<path d="M132.269 34.2632L100.192 57L111.099 46.4067L130.858 32.5837L132.269 34.2632Z" fill="white" fill-opacity="0.4"/>
<path d="M122.133 18.89L119.567 15.6603H129.575L134.322 22.7656L132.911 23.9282L129.447 18.7608L122.133 18.89Z" fill="white" fill-opacity="0.4"/>
<path d="M151.516 10.7512L161.652 3H180L138.557 30L137.273 28.3206L164.86 10.7512H151.516Z" fill="white" fill-opacity="0.4"/>
<path d="M137.787 39.1722L141.379 43.823L151.259 43.6938L141.123 29.7416L139.07 31.0335L145.1 39.1722H137.787Z" fill="white" fill-opacity="0.4"/>
</svg>
