<svg width="200" height="60" viewBox="0 0 200 60" fill="none" xmlns="http://www.w3.org/2000/svg">
<path d="M66.5529 18.494L64.8312 20.368C64.6802 20.5324 64.4215 20.5324 64.2579 20.3804C63.0953 19.3003 60.7278 17.9835 58.5805 19.6618C57.783 20.2849 56.8603 22.6569 60.7728 23.5743C63.055 24.1702 67.3156 25.5643 67.6194 29.1057C67.9422 32.8695 65.0159 34.6887 62.3578 34.8733C60.0362 35.0345 57.3758 34.5793 55.6433 32.7417C55.507 32.5972 55.5187 32.3713 55.6603 32.232L57.1692 30.7482C57.3162 30.6036 57.5518 30.6018 57.7178 30.7241C58.4532 31.266 59.9764 32.0064 61.7504 32.0064C63.4031 32.0064 64.5505 30.8933 64.5505 29.8815C64.5505 28.3637 63.3687 27.388 60.4348 26.8122C57.8367 26.3023 55.0383 24.7548 54.7349 21.5506C54.5999 19.5719 56.017 16.2896 60.1318 16.0536C62.9876 15.8898 64.4 16.4605 66.4929 17.9285C66.6799 18.0597 66.7074 18.3258 66.5529 18.494Z" fill="white" fill-opacity="0.4"/>
<path d="M71.902 25.4556C72.2882 18.4563 79.3354 18.3035 81.9169 20.7409C82.0897 20.904 82.3702 20.9079 82.5324 20.7343C83.0972 20.1296 83.9299 19.3308 84.3617 18.9219C84.5166 18.7751 84.5221 18.528 84.3665 18.3821C79.1122 13.4547 68.6277 16.8465 68.6277 25.4556C68.6277 34.9182 80.2267 37.2171 84.4407 32.3999C84.5622 32.261 84.5551 32.0538 84.4323 31.916L82.8142 30.1001C82.6819 29.9516 82.4547 29.9329 82.2927 30.0483C76.5716 34.1239 71.6641 29.7652 71.902 25.4556Z" fill="white" fill-opacity="0.4"/>
<path d="M136.271 25.4556C136.657 18.4563 143.704 18.3035 146.286 20.7409C146.458 20.904 146.739 20.9079 146.901 20.7343C147.466 20.1296 148.299 19.3308 148.73 18.9219C148.885 18.7751 148.891 18.528 148.735 18.3821C143.481 13.4547 132.996 16.8465 132.996 25.4556C132.996 34.9182 144.595 37.2171 148.809 32.3999C148.931 32.261 148.924 32.0538 148.801 31.916L147.183 30.1001C147.051 29.9516 146.823 29.9329 146.661 30.0483C140.94 34.1239 136.033 29.7652 136.271 25.4556Z" fill="white" fill-opacity="0.4"/>
<path d="M85.8776 34.396V16.6613H88.8332V23.9639H96.3095V16.6613H99.3233V34.396H96.3095V27.1514H88.8332V34.396H85.8776Z" fill="white" fill-opacity="0.4"/>
<path d="M150.208 34.396V16.6613H153.163V23.9639H160.639V16.6613H163.653V34.396H160.639V27.1514H153.163V34.396H150.208Z" fill="white" fill-opacity="0.4"/>
<path d="M101.247 16.6511V34.4263H104.352V21.8517L110.173 30.7781L116.228 21.8517V34.4263H119.353V16.6511H115.878L110.173 25.1506L104.662 16.6511H101.247Z" fill="white" fill-opacity="0.4"/>
<path d="M121.154 16.47V34.4792H132.997V31.423H124.156V26.948H131.632L130.541 23.7828H124.156V19.6352H132.997V16.47H121.154Z" fill="white" fill-opacity="0.4"/>
<path d="M165.577 16.47V34.4792H177.419V31.423H168.578V26.948H176.055L174.963 23.7828H168.578V19.6352H177.419V16.47H165.577Z" fill="white" fill-opacity="0.4"/>
<path d="M179.165 34.5542V16.545H182.385V31.2798H189.261V34.5542H179.165Z" fill="white" fill-opacity="0.4"/>
<path d="M72.2221 38.0336V43.893H71.0511V38.0336H72.2221ZM73.6789 38.0336V39.0115H69.6224V38.0336H73.6789Z" fill="white" fill-opacity="0.4"/>
<path d="M79.8067 38.0336H81.686C82.0777 38.0336 82.4117 38.1007 82.6881 38.2349C82.9644 38.369 83.1764 38.5675 83.3239 38.8304C83.4715 39.0934 83.5452 39.418 83.5452 39.8043C83.5452 40.1209 83.5023 40.3919 83.4165 40.6172C83.3306 40.8399 83.2085 41.0264 83.0503 41.1766C82.892 41.3242 82.7028 41.4422 82.4828 41.5308L82.1247 41.744H80.5995L80.5954 40.7661H81.6538C81.8148 40.7661 81.9476 40.7313 82.0522 40.6615C82.1595 40.5891 82.2387 40.4885 82.2897 40.3597C82.3433 40.2282 82.3701 40.0753 82.3701 39.9009C82.3701 39.7158 82.346 39.5575 82.2977 39.426C82.2521 39.2919 82.1783 39.19 82.0764 39.1202C81.9771 39.0478 81.847 39.0115 81.686 39.0115H80.9858V43.893H79.8067V38.0336ZM82.4667 43.893L81.3922 41.2813L82.6277 41.2772L83.7263 43.8367V43.893H82.4667Z" fill="white" fill-opacity="0.4"/>
<path d="M91.9266 39.08L90.667 43.893H89.4235L91.2545 38.0336H92.0312L91.9266 39.08ZM92.9206 43.893L91.6529 39.08L91.5362 38.0336H92.325L94.1721 43.893H92.9206ZM92.9649 41.7078V42.6857H90.3209V41.7078H92.9649Z" fill="white" fill-opacity="0.4"/>
<path d="M104.268 38.0336V43.893H103.129L101.29 40.2269V43.893H100.171V38.0336H101.294L103.149 41.74V38.0336H104.268Z" fill="white" fill-opacity="0.4"/>
<path d="M113.136 42.3517C113.136 42.2471 113.127 42.1518 113.108 42.066C113.089 41.9801 113.049 41.901 112.987 41.8286C112.928 41.7561 112.841 41.6837 112.726 41.6112C112.613 41.5388 112.465 41.4637 112.283 41.3859C112.066 41.2947 111.855 41.1981 111.651 41.0961C111.447 40.9915 111.263 40.8708 111.1 40.7339C110.936 40.5971 110.806 40.4361 110.709 40.251C110.616 40.0632 110.569 39.8432 110.569 39.591C110.569 39.3442 110.613 39.1202 110.701 38.919C110.793 38.7178 110.921 38.5461 111.088 38.4039C111.254 38.259 111.449 38.1477 111.671 38.0699C111.897 37.9921 112.147 37.9531 112.424 37.9531C112.799 37.9531 113.124 38.031 113.398 38.1866C113.674 38.3422 113.887 38.5555 114.038 38.8264C114.19 39.0974 114.267 39.4086 114.267 39.7601H113.092C113.092 39.5937 113.068 39.4475 113.019 39.3214C112.974 39.1926 112.9 39.092 112.798 39.0196C112.696 38.9472 112.565 38.9109 112.404 38.9109C112.253 38.9109 112.129 38.9418 112.029 39.0035C111.933 39.0625 111.86 39.1443 111.812 39.249C111.767 39.3509 111.744 39.4663 111.744 39.5951C111.744 39.6917 111.767 39.7788 111.812 39.8566C111.86 39.9318 111.926 40.0002 112.009 40.0619C112.092 40.1209 112.19 40.1786 112.303 40.2349C112.418 40.2913 112.545 40.3463 112.681 40.3999C112.947 40.5046 113.182 40.6199 113.386 40.746C113.59 40.8694 113.76 41.0089 113.897 41.1645C114.034 41.3175 114.137 41.4905 114.207 41.6837C114.276 41.8768 114.311 42.0968 114.311 42.3437C114.311 42.5878 114.268 42.8105 114.182 43.0117C114.099 43.2102 113.977 43.3819 113.816 43.5268C113.655 43.669 113.461 43.779 113.233 43.8568C113.007 43.9346 112.755 43.9735 112.476 43.9735C112.205 43.9735 111.949 43.936 111.707 43.8608C111.466 43.783 111.253 43.6663 111.068 43.5107C110.885 43.3524 110.742 43.1526 110.637 42.9111C110.532 42.667 110.48 42.3785 110.48 42.0459H111.659C111.659 42.2229 111.677 42.3745 111.712 42.5006C111.746 42.624 111.8 42.7233 111.872 42.7984C111.945 42.8709 112.033 42.9258 112.138 42.9634C112.245 42.9983 112.367 43.0157 112.504 43.0157C112.66 43.0157 112.783 42.9862 112.875 42.9272C112.968 42.8682 113.036 42.789 113.076 42.6898C113.116 42.5905 113.136 42.4778 113.136 42.3517Z" fill="white" fill-opacity="0.4"/>
<path d="M122.544 41.8286H121.344V40.8507H122.544C122.71 40.8507 122.845 40.8131 122.95 40.738C123.057 40.6628 123.135 40.5596 123.184 40.4281C123.232 40.294 123.256 40.1437 123.256 39.9774C123.256 39.8084 123.23 39.6514 123.179 39.5065C123.131 39.359 123.055 39.2396 122.95 39.1484C122.848 39.0572 122.713 39.0115 122.544 39.0115H121.723V43.893H120.548V38.0336H122.544C122.938 38.0336 123.277 38.1168 123.562 38.2831C123.846 38.4495 124.064 38.6789 124.214 38.9713C124.367 39.261 124.443 39.5937 124.443 39.9693C124.443 40.3476 124.367 40.6763 124.214 40.9553C124.064 41.2316 123.846 41.4463 123.562 41.5992C123.277 41.7521 122.938 41.8286 122.544 41.8286Z" fill="white" fill-opacity="0.4"/>
<path d="M134.788 40.5086V41.4865C134.788 41.8997 134.737 42.2618 134.635 42.5731C134.536 42.8816 134.394 43.1405 134.209 43.3497C134.026 43.5563 133.805 43.7119 133.545 43.8166C133.287 43.9212 133.002 43.9735 132.688 43.9735C132.374 43.9735 132.087 43.9212 131.826 43.8166C131.569 43.7119 131.346 43.5563 131.158 43.3497C130.973 43.1405 130.83 42.8816 130.728 42.5731C130.626 42.2618 130.575 41.8997 130.575 41.4865V40.5086C130.575 40.0847 130.625 39.7145 130.724 39.3979C130.823 39.0786 130.967 38.813 131.154 38.6011C131.342 38.3864 131.565 38.2255 131.822 38.1181C132.08 38.0081 132.366 37.9531 132.68 37.9531C132.993 37.9531 133.279 38.0081 133.537 38.1181C133.794 38.2255 134.017 38.3864 134.205 38.6011C134.393 38.813 134.536 39.0786 134.635 39.3979C134.737 39.7145 134.788 40.0847 134.788 40.5086ZM133.617 41.4865V40.5005C133.617 40.2215 133.597 39.9841 133.557 39.7882C133.517 39.5897 133.456 39.4274 133.376 39.3013C133.295 39.1752 133.197 39.0826 133.082 39.0236C132.967 38.9646 132.833 38.9351 132.68 38.9351C132.527 38.9351 132.391 38.9646 132.273 39.0236C132.158 39.0826 132.06 39.1752 131.979 39.3013C131.902 39.4274 131.843 39.5897 131.802 39.7882C131.765 39.9841 131.746 40.2215 131.746 40.5005V41.4865C131.746 41.7548 131.766 41.9842 131.806 42.1746C131.847 42.3651 131.907 42.5207 131.987 42.6415C132.068 42.7622 132.166 42.8521 132.281 42.9111C132.399 42.9674 132.535 42.9956 132.688 42.9956C132.838 42.9956 132.971 42.9674 133.086 42.9111C133.204 42.8521 133.302 42.7622 133.38 42.6415C133.458 42.5207 133.517 42.3651 133.557 42.1746C133.597 41.9842 133.617 41.7548 133.617 41.4865Z" fill="white" fill-opacity="0.4"/>
<path d="M141.089 38.0336H142.968C143.36 38.0336 143.694 38.1007 143.97 38.2349C144.247 38.369 144.459 38.5675 144.606 38.8304C144.754 39.0934 144.828 39.418 144.828 39.8043C144.828 40.1209 144.785 40.3919 144.699 40.6172C144.613 40.8399 144.491 41.0264 144.333 41.1766C144.174 41.3242 143.985 41.4422 143.765 41.5308L143.407 41.744H141.882L141.878 40.7661H142.936C143.097 40.7661 143.23 40.7313 143.335 40.6615C143.442 40.5891 143.521 40.4885 143.572 40.3597C143.626 40.2282 143.653 40.0753 143.653 39.9009C143.653 39.7158 143.628 39.5575 143.58 39.426C143.535 39.2919 143.461 39.19 143.359 39.1202C143.26 39.0478 143.129 39.0115 142.968 39.0115H142.268V43.893H141.089V38.0336ZM143.749 43.893L142.675 41.2813L143.91 41.2772L145.009 43.8367V43.893H143.749Z" fill="white" fill-opacity="0.4"/>
<path d="M153.213 38.0336V43.893H152.042V38.0336H153.213ZM154.67 38.0336V39.0115H150.613V38.0336H154.67Z" fill="white" fill-opacity="0.4"/>
<path d="M164.154 42.9191V43.893H161.606V42.9191H164.154ZM161.973 38.0336V43.893H160.794V38.0336H161.973ZM163.812 40.408V41.3537H161.606V40.408H163.812ZM164.146 38.0336V39.0115H161.606V38.0336H164.146Z" fill="white" fill-opacity="0.4"/>
<path d="M172.761 42.3517C172.761 42.2471 172.751 42.1518 172.732 42.066C172.714 41.9801 172.673 41.901 172.612 41.8286C172.553 41.7561 172.465 41.6837 172.35 41.6112C172.237 41.5388 172.09 41.4637 171.907 41.3859C171.69 41.2947 171.479 41.1981 171.276 41.0961C171.072 40.9915 170.888 40.8708 170.724 40.7339C170.561 40.5971 170.43 40.4361 170.334 40.251C170.24 40.0632 170.193 39.8432 170.193 39.591C170.193 39.3442 170.237 39.1202 170.326 38.919C170.417 38.7178 170.546 38.5461 170.712 38.4039C170.879 38.259 171.073 38.1477 171.296 38.0699C171.521 37.9921 171.772 37.9531 172.048 37.9531C172.424 37.9531 172.748 38.031 173.022 38.1866C173.298 38.3422 173.512 38.5555 173.662 38.8264C173.815 39.0974 173.891 39.4086 173.891 39.7601H172.716C172.716 39.5937 172.692 39.4475 172.644 39.3214C172.598 39.1926 172.524 39.092 172.422 39.0196C172.321 38.9472 172.189 38.9109 172.028 38.9109C171.878 38.9109 171.753 38.9418 171.654 39.0035C171.557 39.0625 171.485 39.1443 171.437 39.249C171.391 39.3509 171.368 39.4663 171.368 39.5951C171.368 39.6917 171.391 39.7788 171.437 39.8566C171.485 39.9318 171.551 40.0002 171.634 40.0619C171.717 40.1209 171.815 40.1786 171.928 40.2349C172.043 40.2913 172.169 40.3463 172.306 40.3999C172.571 40.5046 172.806 40.6199 173.01 40.746C173.214 40.8694 173.384 41.0089 173.521 41.1645C173.658 41.3175 173.761 41.4905 173.831 41.6837C173.901 41.8768 173.936 42.0968 173.936 42.3437C173.936 42.5878 173.893 42.8105 173.807 43.0117C173.724 43.2102 173.602 43.3819 173.441 43.5268C173.28 43.669 173.085 43.779 172.857 43.8568C172.632 43.9346 172.38 43.9735 172.101 43.9735C171.83 43.9735 171.573 43.936 171.332 43.8608C171.09 43.783 170.877 43.6663 170.692 43.5107C170.51 43.3524 170.366 43.1526 170.261 42.9111C170.157 42.667 170.104 42.3785 170.104 42.0459H171.284C171.284 42.2229 171.301 42.3745 171.336 42.5006C171.371 42.624 171.424 42.7233 171.497 42.7984C171.569 42.8709 171.658 42.9258 171.763 42.9634C171.87 42.9983 171.992 43.0157 172.129 43.0157C172.284 43.0157 172.408 42.9862 172.499 42.9272C172.593 42.8682 172.66 42.789 172.7 42.6898C172.74 42.5905 172.761 42.4778 172.761 42.3517Z" fill="white" fill-opacity="0.4"/>
<path fill-rule="evenodd" clip-rule="evenodd" d="M45.7863 8.0416C46.2875 8.21152 47.1018 8.64651 47.1018 9.32495V31.7819C47.1018 36.5862 41.4036 49.6171 29.8484 53.2086C29.5579 53.2989 29.2477 53.3653 28.9203 53.3676C28.5928 53.3653 28.2821 53.2989 27.9917 53.2086C16.4365 49.6171 10.7383 36.5862 10.7383 31.7819V9.32495C10.7383 8.64651 11.5526 8.21152 12.0537 8.0416C14.3195 7.27343 21.5509 6.68697 28.9203 6.63232C36.2896 6.68697 43.5206 7.27343 45.7863 8.0416ZM36.034 19.5176C38.5863 19.5176 40.6554 17.4485 40.6554 14.8962C40.6554 12.3439 38.5863 10.2748 36.034 10.2748C33.4817 10.2748 31.4127 12.3439 31.4127 14.8962C31.4127 17.4485 33.4817 19.5176 36.034 19.5176ZM22.0656 44.0474C24.618 44.0474 26.687 41.9784 26.687 39.426C26.687 36.8737 24.618 34.8047 22.0656 34.8047C19.5133 34.8047 17.4443 36.8737 17.4443 39.426C17.4443 41.9784 19.5133 44.0474 22.0656 44.0474ZM30.7893 24.2425C18.674 19.8355 22.0659 11.4688 25.7525 9.39171C22.2111 9.39171 16.7058 14.2933 17.0085 20.6101C17.2485 25.6115 20.8578 30.1463 27.0513 31.6532C33.2448 33.1601 36.3471 39.9009 30.3564 47.7625C33.856 46.8036 40.1671 42.5113 40.1671 34.4988C40.1671 26.7821 33.8739 25.3645 30.7893 24.2425Z" fill="white" fill-opacity="0.4"/>
</svg>
