<svg width="200" height="60" viewBox="0 0 200 60" fill="none" xmlns="http://www.w3.org/2000/svg">
<path d="M65.5834 35.4666C66.032 33.7283 66.272 31.8947 66.272 29.9999C66.272 18.8842 58.0119 9.87305 47.8226 9.87305C38.1156 9.87305 30.1594 18.0513 29.428 28.4364C38.337 32.0342 54.2282 34.3966 65.5834 35.4666Z" fill="white" fill-opacity="0.4"/>
<path d="M58.819 46.1626C48.0496 45.7286 39.5937 44.1562 33.0582 42.071C36.4239 46.9625 41.7845 50.1268 47.8226 50.1268C51.9431 50.1268 55.7482 48.6532 58.819 46.1626Z" fill="white" fill-opacity="0.4"/>
<path d="M27.0652 27.366C27.4955 24.7434 28.3916 22.2969 29.6566 20.1322C28.473 19.3732 27.1813 18.793 25.813 18.4254C20.8035 21.9071 22.2515 24.8925 27.0652 27.366Z" fill="white" fill-opacity="0.4"/>
<path d="M17.7907 18.7674C15.2014 20.1481 13.3346 23.1655 13.9582 29.0501C15.1383 32.0467 19.5745 36.8633 29.0606 40.6434C29.9159 42.3346 30.9877 43.8773 32.2351 45.2268C29.6504 47.8751 26.1715 49.4968 22.3444 49.4968C14.3651 49.4968 7.89502 42.4389 7.89502 33.7327C7.89502 26.7624 12.0422 20.8486 17.7907 18.7674Z" fill="white" fill-opacity="0.4"/>
<path d="M65.1981 38.617L62.9256 43.0435L55.2324 41.0625L56.4439 38.206L65.1981 38.617Z" fill="white" fill-opacity="0.4"/>
<path d="M52.0282 37.8626L50.7901 40.9105L43.4849 39.0306L44.3344 36.7765L52.0282 37.8626Z" fill="white" fill-opacity="0.4"/>
<path d="M40.6734 36.0262L39.9412 38.4564L32.9049 36.4544L33.7938 34.6202L40.6734 36.0262Z" fill="white" fill-opacity="0.4"/>
<path d="M30.3366 33.9415L29.4497 35.8237L24.347 33.3857L25.2752 32.3477L30.3366 33.9415Z" fill="white" fill-opacity="0.4"/>
<path d="M22.4438 30.4754L21.3918 32.1384L18.8896 29.8075L19.9453 29.086L22.4438 30.4754Z" fill="white" fill-opacity="0.4"/>
<path d="M18.675 26.8616L17.3265 27.472L16.8888 25.4942L18.0502 25.3736L18.675 26.8616Z" fill="white" fill-opacity="0.4"/>
<path d="M18.6759 23.279L17.6985 22.4444L18.4934 20.8857L19.2468 21.3654L18.6759 23.279Z" fill="white" fill-opacity="0.4"/>
<path d="M20.8252 19.9225L20.1958 19.4723L21.0767 18.4621L21.3845 18.8338L20.8252 19.9225Z" fill="white" fill-opacity="0.4"/>
<path d="M85.0036 22.062H84.3319C84.2619 21.6982 84.1308 21.3466 83.9384 21.0073C83.746 20.6644 83.4976 20.3566 83.1932 20.0837C82.8924 19.8074 82.5426 19.5887 82.1438 19.4278C81.745 19.2669 81.3042 19.1864 80.8214 19.1864C80.1148 19.1864 79.4641 19.3753 78.8694 19.7532C78.2782 20.1275 77.8042 20.6784 77.4474 21.4061C77.0941 22.1337 76.9174 23.024 76.9174 24.077C76.9174 25.1369 77.0941 26.0307 77.4474 26.7584C77.8042 27.486 78.2782 28.037 78.8694 28.4113C79.4641 28.7821 80.1148 28.9675 80.8214 28.9675C81.3042 28.9675 81.745 28.8888 82.1438 28.7314C82.5426 28.5704 82.8924 28.3536 83.1932 28.0807C83.4976 27.8043 83.746 27.4947 83.9384 27.1519C84.1308 26.8091 84.2619 26.4558 84.3319 26.0919H85.0036C84.9266 26.5257 84.7779 26.9508 84.5575 27.3671C84.3406 27.7833 84.0538 28.1612 83.697 28.5005C83.3437 28.8363 82.9256 29.1039 82.4429 29.3033C81.9636 29.4992 81.4231 29.5972 80.8214 29.5972C79.9259 29.5972 79.137 29.3698 78.4549 28.915C77.7727 28.4568 77.2375 27.8131 76.8492 26.984C76.4644 26.1549 76.272 25.1859 76.272 24.077C76.272 22.968 76.4644 21.999 76.8492 21.1699C77.2375 20.3409 77.7727 19.6989 78.4549 19.2442C79.137 18.7859 79.9259 18.5568 80.8214 18.5568C81.4231 18.5568 81.9636 18.6565 82.4429 18.8559C82.9256 19.0518 83.3437 19.3176 83.697 19.6535C84.0538 19.9858 84.3406 20.3601 84.5575 20.7764C84.7779 21.1927 84.9266 21.6212 85.0036 22.062Z" fill="white" fill-opacity="0.4"/>
<path d="M97.9199 24.077C97.9199 25.1859 97.7275 26.1549 97.3427 26.984C96.9579 27.8096 96.4227 28.4515 95.737 28.9098C95.0549 29.368 94.2678 29.5972 93.3757 29.5972C92.4802 29.5972 91.6896 29.368 91.0039 28.9098C90.3218 28.448 89.7883 27.8043 89.4035 26.9787C89.0187 26.1497 88.8263 25.1824 88.8263 24.077C88.8263 22.968 89.0187 22.0008 89.4035 21.1752C89.7918 20.3496 90.327 19.7077 91.0092 19.2494C91.6913 18.7876 92.4802 18.5568 93.3757 18.5568C94.2678 18.5568 95.0549 18.7859 95.737 19.2442C96.4227 19.7024 96.9579 20.3461 97.3427 21.1752C97.7275 22.0008 97.9199 22.968 97.9199 24.077ZM97.2797 24.077C97.2797 23.08 97.1118 22.2159 96.776 21.4848C96.4437 20.7536 95.9837 20.1887 95.396 19.7899C94.8082 19.3876 94.1348 19.1864 93.3757 19.1864C92.6166 19.1864 91.9432 19.3858 91.3555 19.7846C90.7678 20.1799 90.306 20.7449 89.9702 21.4795C89.6378 22.2107 89.4717 23.0765 89.4717 24.077C89.4717 25.067 89.6361 25.9293 89.9649 26.6639C90.2973 27.395 90.7573 27.9618 91.345 28.364C91.9327 28.7663 92.6096 28.9675 93.3757 28.9675C94.1348 28.9675 94.8082 28.7681 95.396 28.3693C95.9837 27.967 96.4437 27.4003 96.776 26.6692C97.1118 25.938 97.2797 25.074 97.2797 24.077Z" fill="white" fill-opacity="0.4"/>
<path d="M108.123 21.3903C108.067 20.7222 107.795 20.1817 107.305 19.7689C106.819 19.3561 106.189 19.1497 105.416 19.1497C104.895 19.1497 104.431 19.2459 104.025 19.4383C103.619 19.6307 103.301 19.8931 103.07 20.2254C102.839 20.5577 102.724 20.9391 102.724 21.3693C102.724 21.6457 102.776 21.8958 102.881 22.1197C102.99 22.3401 103.142 22.5377 103.338 22.7127C103.534 22.8841 103.766 23.0345 104.036 23.1639C104.305 23.2934 104.602 23.4071 104.928 23.505L106.103 23.8513C106.505 23.9738 106.876 24.1154 107.216 24.2764C107.558 24.4373 107.856 24.6297 108.108 24.8536C108.363 25.074 108.561 25.3328 108.701 25.6302C108.844 25.9275 108.916 26.2704 108.916 26.6587C108.916 27.2254 108.769 27.7326 108.475 28.1804C108.185 28.6282 107.77 28.9815 107.231 29.2404C106.696 29.4957 106.065 29.6234 105.337 29.6234C104.644 29.6234 104.041 29.5062 103.527 29.2718C103.016 29.0375 102.612 28.7121 102.315 28.2958C102.017 27.876 101.849 27.3933 101.811 26.8476H102.482C102.517 27.2918 102.659 27.6766 102.908 28.002C103.159 28.3238 103.493 28.5722 103.91 28.7471C104.326 28.922 104.802 29.0095 105.337 29.0095C105.914 29.0095 106.423 28.9115 106.864 28.7156C107.305 28.5162 107.649 28.2399 107.898 27.8865C108.146 27.5332 108.27 27.1222 108.27 26.6534C108.27 26.2756 108.181 25.952 108.003 25.6827C107.824 25.4133 107.56 25.1807 107.21 24.9848C106.864 24.7889 106.434 24.6139 105.919 24.46L104.665 24.0822C103.826 23.8268 103.184 23.4788 102.74 23.038C102.299 22.5972 102.078 22.048 102.078 21.3903C102.078 20.8376 102.225 20.3479 102.519 19.9211C102.813 19.4908 103.212 19.1532 103.716 18.9083C104.223 18.6635 104.795 18.541 105.431 18.541C106.072 18.541 106.637 18.6652 107.126 18.9136C107.616 19.1585 108.004 19.496 108.291 19.9263C108.578 20.3531 108.737 20.8411 108.769 21.3903H108.123Z" fill="white" fill-opacity="0.4"/>
<path d="M112.641 19.3124V18.7037H120.171V19.3124H116.734V29.4503H116.078V19.3124H112.641Z" fill="white" fill-opacity="0.4"/>
<path d="M122.739 29.4503H122.046L125.924 18.7037H126.679L130.557 29.4503H129.864L126.328 19.5485H126.275L122.739 29.4503ZM123.72 25.4045H128.883V26.0132H123.72V25.4045Z" fill="white" fill-opacity="0.4"/>
<path d="M148.96 24.077C148.96 25.1859 148.767 26.1549 148.382 26.984C147.998 27.8096 147.462 28.4515 146.777 28.9098C146.095 29.368 145.307 29.5972 144.415 29.5972C143.52 29.5972 142.729 29.368 142.044 28.9098C141.361 28.448 140.828 27.8043 140.443 26.9787C140.058 26.1497 139.866 25.1824 139.866 24.077C139.866 22.968 140.058 22.0008 140.443 21.1752C140.831 20.3496 141.367 19.7077 142.049 19.2494C142.731 18.7876 143.52 18.5568 144.415 18.5568C145.307 18.5568 146.095 18.7859 146.777 19.2442C147.462 19.7024 147.998 20.3461 148.382 21.1752C148.767 22.0008 148.96 22.968 148.96 24.077ZM148.319 24.077C148.319 23.08 148.151 22.2159 147.816 21.4848C147.483 20.7536 147.023 20.1887 146.436 19.7899C145.848 19.3876 145.174 19.1864 144.415 19.1864C143.656 19.1864 142.983 19.3858 142.395 19.7846C141.807 20.1799 141.346 20.7449 141.01 21.4795C140.677 22.2107 140.511 23.0765 140.511 24.077C140.511 25.067 140.676 25.9293 141.005 26.6639C141.337 27.395 141.797 27.9618 142.385 28.364C142.972 28.7663 143.649 28.9675 144.415 28.9675C145.174 28.9675 145.848 28.7681 146.436 28.3693C147.023 27.967 147.483 27.4003 147.816 26.6692C148.151 25.938 148.319 25.074 148.319 24.077Z" fill="white" fill-opacity="0.4"/>
<path d="M153.37 29.4503V18.7037H159.352V19.3124H154.026V23.7674H159.032V24.3761H154.026V28.8416H159.478V29.4503H153.37Z" fill="white" fill-opacity="0.4"/>
<path d="M169.711 21.3903C169.656 20.7222 169.383 20.1817 168.893 19.7689C168.407 19.3561 167.777 19.1497 167.004 19.1497C166.483 19.1497 166.019 19.2459 165.613 19.4383C165.208 19.6307 164.889 19.8931 164.658 20.2254C164.427 20.5577 164.312 20.9391 164.312 21.3693C164.312 21.6457 164.364 21.8958 164.469 22.1197C164.578 22.3401 164.73 22.5377 164.926 22.7127C165.122 22.8841 165.354 23.0345 165.624 23.1639C165.893 23.2934 166.191 23.4071 166.516 23.505L167.691 23.8513C168.094 23.9738 168.464 24.1154 168.804 24.2764C169.147 24.4373 169.444 24.6297 169.696 24.8536C169.951 25.074 170.149 25.3328 170.289 25.6302C170.432 25.9275 170.504 26.2704 170.504 26.6587C170.504 27.2254 170.357 27.7326 170.063 28.1804C169.773 28.6282 169.358 28.9815 168.819 29.2404C168.284 29.4957 167.653 29.6234 166.925 29.6234C166.233 29.6234 165.629 29.5062 165.115 29.2718C164.604 29.0375 164.2 28.7121 163.903 28.2958C163.605 27.876 163.437 27.3933 163.399 26.8476H164.071C164.106 27.2918 164.247 27.6766 164.496 28.002C164.747 28.3238 165.082 28.5722 165.498 28.7471C165.914 28.922 166.39 29.0095 166.925 29.0095C167.502 29.0095 168.011 28.9115 168.452 28.7156C168.893 28.5162 169.237 28.2399 169.486 27.8865C169.734 27.5332 169.858 27.1222 169.858 26.6534C169.858 26.2756 169.769 25.952 169.591 25.6827C169.412 25.4133 169.148 25.1807 168.798 24.9848C168.452 24.7889 168.022 24.6139 167.508 24.46L166.253 24.0822C165.414 23.8268 164.772 23.4788 164.328 23.038C163.887 22.5972 163.667 22.048 163.667 21.3903C163.667 20.8376 163.813 20.3479 164.107 19.9211C164.401 19.4908 164.8 19.1532 165.304 18.9083C165.811 18.6635 166.383 18.541 167.02 18.541C167.66 18.541 168.225 18.6652 168.714 18.9136C169.204 19.1585 169.593 19.496 169.879 19.9263C170.166 20.3531 170.325 20.8411 170.357 21.3903H169.711Z" fill="white" fill-opacity="0.4"/>
<path d="M174.229 19.3124V18.7037H181.759V19.3124H178.322V29.4503H177.666V19.3124H174.229Z" fill="white" fill-opacity="0.4"/>
<path d="M185.997 29.4503V18.7037H191.979V19.3124H186.653V23.7674H191.659V24.3761H186.653V28.8416H192.105V29.4503H185.997Z" fill="white" fill-opacity="0.4"/>
<path d="M77.0978 41.3448H76.272L79.7406 34.8395H80.5537L81.8624 41.3448H81.0365L80.0074 35.8687H79.9566L77.0978 41.3448ZM77.822 38.8037H81.1509L81.0365 39.5025H77.7077L77.822 38.8037Z" fill="white" fill-opacity="0.4"/>
<path d="M86.418 37.5585L85.7065 37.7491C85.681 37.6347 85.6366 37.5246 85.5731 37.4187C85.5116 37.3107 85.4163 37.2229 85.2872 37.1551C85.1601 37.0852 84.9865 37.0503 84.7662 37.0503C84.4677 37.0503 84.2083 37.1191 83.988 37.2568C83.7678 37.3923 83.6418 37.5649 83.61 37.7745C83.5783 37.9587 83.6206 38.1059 83.7371 38.216C83.8536 38.3261 84.0484 38.4161 84.3216 38.486L85.0204 38.6639C85.4396 38.7719 85.7382 38.9339 85.9161 39.1499C86.0961 39.3638 86.1575 39.6422 86.1003 39.9853C86.0537 40.2648 85.932 40.5147 85.735 40.7349C85.5381 40.9551 85.2861 41.1288 84.9791 41.2558C84.672 41.3829 84.33 41.4464 83.9531 41.4464C83.4512 41.4464 83.0552 41.3384 82.7651 41.1224C82.475 40.9043 82.3204 40.5888 82.3014 40.1758L83.051 39.998C83.0701 40.2584 83.1632 40.4554 83.3305 40.5888C83.4999 40.7201 83.7371 40.7857 84.042 40.7857C84.3914 40.7857 84.6826 40.7116 84.9155 40.5634C85.1485 40.413 85.2808 40.233 85.3126 40.0234C85.3443 39.8519 85.3105 39.7089 85.2109 39.5946C85.1135 39.4802 84.9441 39.3945 84.7027 39.3373L83.9277 39.1467C83.4957 39.0387 83.1929 38.8735 83.0192 38.6512C82.8477 38.4288 82.7905 38.1493 82.8477 37.8126C82.8943 37.5373 83.0129 37.2938 83.2035 37.082C83.3962 36.8703 83.6376 36.7041 83.9277 36.5834C84.2199 36.4627 84.5376 36.4023 84.8806 36.4023C85.3634 36.4023 85.7245 36.5082 85.9637 36.7199C86.203 36.9296 86.3544 37.2091 86.418 37.5585Z" fill="white" fill-opacity="0.4"/>
<path d="M90.644 37.5585L89.9325 37.7491C89.9071 37.6347 89.8626 37.5246 89.7991 37.4187C89.7377 37.3107 89.6424 37.2229 89.5132 37.1551C89.3861 37.0852 89.2125 37.0503 88.9923 37.0503C88.6937 37.0503 88.4343 37.1191 88.214 37.2568C87.9938 37.3923 87.8678 37.5649 87.8361 37.7745C87.8043 37.9587 87.8466 38.1059 87.9631 38.216C88.0796 38.3261 88.2744 38.4161 88.5476 38.486L89.2464 38.6639C89.6657 38.7719 89.9642 38.9339 90.1421 39.1499C90.3221 39.3638 90.3835 39.6422 90.3263 39.9853C90.2798 40.2648 90.158 40.5147 89.9611 40.7349C89.7641 40.9551 89.5121 41.1288 89.2051 41.2558C88.898 41.3829 88.556 41.4464 88.1791 41.4464C87.6772 41.4464 87.2813 41.3384 86.9911 41.1224C86.701 40.9043 86.5464 40.5888 86.5274 40.1758L87.277 39.998C87.2961 40.2584 87.3892 40.4554 87.5565 40.5888C87.7259 40.7201 87.9631 40.7857 88.268 40.7857C88.6174 40.7857 88.9086 40.7116 89.1416 40.5634C89.3745 40.413 89.5068 40.233 89.5386 40.0234C89.5704 39.8519 89.5365 39.7089 89.437 39.5946C89.3395 39.4802 89.1701 39.3945 88.9287 39.3373L88.1537 39.1467C87.7217 39.0387 87.4189 38.8735 87.2453 38.6512C87.0737 38.4288 87.0166 38.1493 87.0737 37.8126C87.1203 37.5373 87.2389 37.2938 87.4295 37.082C87.6222 36.8703 87.8636 36.7041 88.1537 36.5834C88.4459 36.4627 88.7636 36.4023 89.1066 36.4023C89.5894 36.4023 89.9505 36.5082 90.1898 36.7199C90.429 36.9296 90.5805 37.2091 90.644 37.5585Z" fill="white" fill-opacity="0.4"/>
<path d="M92.8117 41.4464C92.3437 41.4464 91.9573 41.3426 91.6523 41.1351C91.3474 40.9255 91.1346 40.6332 91.0139 40.2584C90.8932 39.8815 90.8741 39.4432 90.9567 38.9434C91.0393 38.4437 91.2034 38.0032 91.449 37.622C91.6947 37.2388 92.0007 36.9402 92.367 36.7263C92.7334 36.5103 93.1357 36.4023 93.574 36.4023C93.8281 36.4023 94.0727 36.4447 94.3078 36.5294C94.5428 36.6141 94.7461 36.7517 94.9176 36.9423C95.0892 37.1308 95.2088 37.3806 95.2766 37.6919C95.3443 38.0032 95.3401 38.3865 95.2639 38.8418L95.213 39.1594H91.4522L91.5539 38.5114H94.5524C94.6011 38.2361 94.5884 37.9905 94.5142 37.7745C94.4422 37.5585 94.3162 37.388 94.1363 37.2631C93.9584 37.1382 93.7329 37.0757 93.4597 37.0757C93.178 37.0757 92.9155 37.1519 92.6719 37.3044C92.4284 37.4548 92.2251 37.6453 92.0621 37.8762C91.899 38.1049 91.7974 38.3378 91.7571 38.575L91.6682 39.134C91.6047 39.5385 91.6142 39.8603 91.6968 40.0996C91.7815 40.3389 91.9287 40.5115 92.1383 40.6174C92.3479 40.7211 92.6105 40.773 92.9261 40.773C93.1272 40.773 93.3125 40.7455 93.4819 40.6904C93.6513 40.6332 93.8027 40.5485 93.9361 40.4363C94.0695 40.322 94.1818 40.1801 94.2728 40.0107L94.9589 40.214C94.8425 40.4596 94.6784 40.6756 94.4666 40.862C94.257 41.0462 94.0113 41.1902 93.7297 41.2939C93.4502 41.3956 93.1442 41.4464 92.8117 41.4464Z" fill="white" fill-opacity="0.4"/>
<path d="M99.6463 37.5585L98.9348 37.7491C98.9094 37.6347 98.8649 37.5246 98.8014 37.4187C98.74 37.3107 98.6447 37.2229 98.5155 37.1551C98.3885 37.0852 98.2148 37.0503 97.9946 37.0503C97.696 37.0503 97.4366 37.1191 97.2164 37.2568C96.9962 37.3923 96.8702 37.5649 96.8384 37.7745C96.8066 37.9587 96.849 38.1059 96.9655 38.216C97.0819 38.3261 97.2767 38.4161 97.5499 38.486L98.2487 38.6639C98.668 38.7719 98.9666 38.9339 99.1444 39.1499C99.3244 39.3638 99.3859 39.6422 99.3287 39.9853C99.2821 40.2648 99.1603 40.5147 98.9634 40.7349C98.7665 40.9551 98.5145 41.1288 98.2074 41.2558C97.9004 41.3829 97.5584 41.4464 97.1814 41.4464C96.6796 41.4464 96.2836 41.3384 95.9935 41.1224C95.7034 40.9043 95.5488 40.5888 95.5297 40.1758L96.2794 39.998C96.2984 40.2584 96.3916 40.4554 96.5589 40.5888C96.7283 40.7201 96.9655 40.7857 97.2704 40.7857C97.6198 40.7857 97.911 40.7116 98.1439 40.5634C98.3768 40.413 98.5092 40.233 98.5409 40.0234C98.5727 39.8519 98.5388 39.7089 98.4393 39.5946C98.3419 39.4802 98.1725 39.3945 97.9311 39.3373L97.156 39.1467C96.724 39.0387 96.4212 38.8735 96.2476 38.6512C96.0761 38.4288 96.0189 38.1493 96.0761 37.8126C96.1227 37.5373 96.2412 37.2938 96.4318 37.082C96.6245 36.8703 96.8659 36.7041 97.156 36.5834C97.4483 36.4627 97.7659 36.4023 98.1089 36.4023C98.5918 36.4023 98.9528 36.5082 99.1921 36.7199C99.4314 36.9296 99.5828 37.2091 99.6463 37.5585Z" fill="white" fill-opacity="0.4"/>
<path d="M103.872 37.5585L103.161 37.7491C103.135 37.6347 103.091 37.5246 103.027 37.4187C102.966 37.3107 102.871 37.2229 102.742 37.1551C102.614 37.0852 102.441 37.0503 102.221 37.0503C101.922 37.0503 101.663 37.1191 101.442 37.2568C101.222 37.3923 101.096 37.5649 101.064 37.7745C101.033 37.9587 101.075 38.1059 101.191 38.216C101.308 38.3261 101.503 38.4161 101.776 38.486L102.475 38.6639C102.894 38.7719 103.193 38.9339 103.37 39.1499C103.55 39.3638 103.612 39.6422 103.555 39.9853C103.508 40.2648 103.386 40.5147 103.189 40.7349C102.992 40.9551 102.74 41.1288 102.433 41.2558C102.126 41.3829 101.784 41.4464 101.407 41.4464C100.906 41.4464 100.51 41.3384 100.219 41.1224C99.9294 40.9043 99.7748 40.5888 99.7557 40.1758L100.505 39.998C100.524 40.2584 100.618 40.4554 100.785 40.5888C100.954 40.7201 101.191 40.7857 101.496 40.7857C101.846 40.7857 102.137 40.7116 102.37 40.5634C102.603 40.413 102.735 40.233 102.767 40.0234C102.799 39.8519 102.765 39.7089 102.665 39.5946C102.568 39.4802 102.398 39.3945 102.157 39.3373L101.382 39.1467C100.95 39.0387 100.647 38.8735 100.474 38.6512C100.302 38.4288 100.245 38.1493 100.302 37.8126C100.349 37.5373 100.467 37.2938 100.658 37.082C100.851 36.8703 101.092 36.7041 101.382 36.5834C101.674 36.4627 101.992 36.4023 102.335 36.4023C102.818 36.4023 103.179 36.5082 103.418 36.7199C103.657 36.9296 103.809 37.2091 103.872 37.5585Z" fill="white" fill-opacity="0.4"/>
<path d="M106.021 41.4464C105.572 41.4464 105.196 41.3395 104.893 41.1256C104.591 40.9117 104.377 40.6121 104.252 40.2267C104.129 39.8413 104.109 39.3923 104.191 38.8799C104.272 38.3801 104.432 37.945 104.671 37.5744C104.912 37.2017 105.212 36.9137 105.57 36.7104C105.93 36.505 106.326 36.4023 106.758 36.4023C107.207 36.4023 107.582 36.5103 107.882 36.7263C108.185 36.9402 108.399 37.2409 108.524 37.6284C108.649 38.0138 108.67 38.4648 108.588 38.9815C108.507 39.477 108.345 39.9101 108.102 40.2807C107.86 40.6491 107.56 40.9361 107.203 41.1415C106.847 41.3448 106.453 41.4464 106.021 41.4464ZM106.034 40.773C106.377 40.773 106.674 40.6851 106.926 40.5094C107.18 40.3336 107.386 40.1017 107.542 39.8137C107.701 39.5257 107.808 39.2145 107.863 38.8799C107.914 38.5622 107.912 38.2668 107.857 37.9937C107.802 37.7184 107.684 37.4971 107.504 37.3298C107.324 37.1604 107.071 37.0757 106.745 37.0757C106.402 37.0757 106.103 37.1646 105.846 37.3425C105.592 37.5204 105.387 37.7544 105.23 38.0445C105.073 38.3346 104.969 38.6469 104.916 38.9815C104.865 39.2992 104.866 39.5946 104.919 39.8677C104.974 40.1388 105.091 40.358 105.271 40.5252C105.453 40.6904 105.708 40.773 106.034 40.773Z" fill="white" fill-opacity="0.4"/>
<path d="M108.897 41.3448L109.71 36.4658H110.434L110.307 37.2028H110.358C110.485 36.9614 110.679 36.7655 110.939 36.6151C111.2 36.4648 111.476 36.3896 111.768 36.3896C111.826 36.3896 111.894 36.3907 111.975 36.3928C112.055 36.3928 112.118 36.396 112.162 36.4023L112.035 37.1646C112.01 37.1583 111.953 37.1488 111.864 37.136C111.775 37.1212 111.68 37.1138 111.578 37.1138C111.341 37.1138 111.122 37.1636 110.92 37.2631C110.719 37.3605 110.551 37.496 110.415 37.6697C110.28 37.8412 110.193 38.0371 110.155 38.2573L109.647 41.3448H108.897Z" fill="white" fill-opacity="0.4"/>
<path d="M111.795 41.3448L112.608 36.4658H113.358L112.545 41.3448H111.795ZM113.212 35.64C113.066 35.64 112.94 35.5902 112.834 35.4907C112.73 35.3912 112.678 35.2715 112.678 35.1318C112.678 34.992 112.73 34.8724 112.834 34.7728C112.94 34.6733 113.066 34.6235 113.212 34.6235C113.358 34.6235 113.483 34.6733 113.587 34.7728C113.693 34.8724 113.746 34.992 113.746 35.1318C113.746 35.2715 113.693 35.3912 113.587 35.4907C113.483 35.5902 113.358 35.64 113.212 35.64Z" fill="white" fill-opacity="0.4"/>
<path d="M114.894 41.4591C114.585 41.4591 114.314 41.4009 114.081 41.2844C113.848 41.1658 113.675 40.9954 113.563 40.773C113.451 40.5486 113.42 40.2775 113.471 39.9598C113.519 39.6803 113.614 39.4538 113.753 39.2801C113.893 39.1044 114.063 38.9667 114.262 38.8672C114.463 38.7655 114.679 38.6904 114.91 38.6417C115.143 38.5908 115.374 38.5517 115.605 38.5241C115.906 38.486 116.151 38.4564 116.339 38.4352C116.527 38.414 116.669 38.3791 116.765 38.3304C116.86 38.2817 116.918 38.198 116.939 38.0794V38.054C116.99 37.7427 116.949 37.5003 116.815 37.3266C116.682 37.1509 116.444 37.063 116.101 37.063C115.745 37.063 115.447 37.1414 115.208 37.2981C114.969 37.4548 114.792 37.622 114.678 37.7999L114.017 37.5458C114.191 37.2493 114.398 37.0185 114.64 36.8534C114.881 36.6861 115.134 36.5696 115.399 36.5039C115.663 36.4362 115.919 36.4023 116.164 36.4023C116.321 36.4023 116.498 36.4214 116.695 36.4595C116.892 36.4955 117.076 36.5707 117.247 36.685C117.421 36.7994 117.551 36.9719 117.638 37.2028C117.727 37.4336 117.74 37.7427 117.676 38.1303L117.143 41.3448H116.393L116.507 40.6841H116.469C116.401 40.7899 116.298 40.9032 116.158 41.0239C116.02 41.1446 115.846 41.2473 115.634 41.3321C115.424 41.4168 115.177 41.4591 114.894 41.4591ZM115.11 40.7857C115.406 40.7857 115.666 40.7275 115.888 40.611C116.112 40.4945 116.292 40.3442 116.428 40.16C116.566 39.9757 116.651 39.782 116.685 39.5787L116.8 38.8926C116.761 38.9307 116.686 38.9656 116.574 38.9974C116.462 39.0271 116.335 39.0535 116.193 39.0768C116.053 39.098 115.917 39.1171 115.783 39.134C115.652 39.1488 115.546 39.1615 115.465 39.1721C115.266 39.1975 115.077 39.2388 114.897 39.296C114.719 39.351 114.569 39.4347 114.446 39.5469C114.325 39.657 114.25 39.8074 114.22 39.998C114.176 40.2584 114.238 40.4554 114.408 40.5888C114.577 40.7201 114.811 40.7857 115.11 40.7857Z" fill="white" fill-opacity="0.4"/>
<path d="M120.501 41.3448H119.675L123.143 34.8395H123.956L125.265 41.3448H124.439L123.41 35.8687H123.359L120.501 41.3448ZM121.225 38.8037H124.554L124.439 39.5025H121.11L121.225 38.8037Z" fill="white" fill-opacity="0.4"/>
<path d="M127.565 41.4464C127.157 41.4464 126.814 41.3437 126.536 41.1383C126.259 40.9308 126.063 40.6385 125.949 40.2616C125.836 39.8826 125.823 39.4347 125.907 38.918C125.994 38.4055 126.156 37.9608 126.393 37.5839C126.633 37.207 126.926 36.9158 127.273 36.7104C127.62 36.505 128 36.4023 128.41 36.4023C128.728 36.4023 128.97 36.4552 129.138 36.5611C129.307 36.6649 129.43 36.7835 129.506 36.9169C129.582 37.0482 129.641 37.1562 129.681 37.2409H129.744L130.145 34.8395H130.894L129.814 41.3448H129.09L129.217 40.5951H129.128C129.058 40.6841 128.961 40.7963 128.836 40.9318C128.711 41.0652 128.546 41.1849 128.34 41.2908C128.137 41.3945 127.879 41.4464 127.565 41.4464ZM127.75 40.773C128.05 40.773 128.319 40.6947 128.556 40.538C128.796 40.3791 128.995 40.16 129.154 39.8804C129.312 39.5988 129.423 39.2738 129.484 38.9053C129.545 38.5411 129.543 38.2224 129.478 37.9492C129.412 37.6739 129.286 37.46 129.1 37.3076C128.913 37.153 128.667 37.0757 128.36 37.0757C128.044 37.0757 127.77 37.1572 127.537 37.3203C127.304 37.4812 127.114 37.7004 126.968 37.9778C126.822 38.2531 126.721 38.5623 126.663 38.9053C126.606 39.2526 126.605 39.5681 126.66 39.8519C126.715 40.1335 126.832 40.358 127.01 40.5252C127.19 40.6904 127.436 40.773 127.75 40.773Z" fill="white" fill-opacity="0.4"/>
<path d="M134.243 39.35L134.726 36.4658H135.475L134.662 41.3448H133.912L134.052 40.5189H134.001C133.849 40.7667 133.636 40.9774 133.363 41.151C133.09 41.3225 132.769 41.4083 132.401 41.4083C132.096 41.4083 131.835 41.3416 131.619 41.2082C131.405 41.0726 131.253 40.8694 131.162 40.5983C131.073 40.3251 131.062 39.981 131.13 39.566L131.651 36.4658H132.401L131.892 39.5152C131.835 39.8709 131.889 40.1547 132.054 40.3664C132.219 40.5782 132.458 40.6841 132.769 40.6841C132.955 40.6841 133.152 40.6364 133.36 40.5411C133.569 40.4458 133.756 40.2997 133.919 40.1028C134.084 39.9059 134.192 39.6549 134.243 39.35Z" fill="white" fill-opacity="0.4"/>
<path d="M137.011 41.4591C136.702 41.4591 136.431 41.4009 136.198 41.2844C135.965 41.1658 135.792 40.9954 135.68 40.773C135.568 40.5486 135.537 40.2775 135.588 39.9598C135.637 39.6803 135.731 39.4538 135.871 39.2801C136.01 39.1044 136.18 38.9667 136.379 38.8672C136.58 38.7655 136.796 38.6904 137.027 38.6417C137.26 38.5908 137.492 38.5517 137.722 38.5241C138.023 38.486 138.268 38.4564 138.456 38.4352C138.645 38.414 138.786 38.3791 138.882 38.3304C138.977 38.2817 139.035 38.198 139.056 38.0794V38.054C139.107 37.7427 139.066 37.5003 138.933 37.3266C138.799 37.1509 138.561 37.063 138.218 37.063C137.862 37.063 137.565 37.1414 137.325 37.2981C137.086 37.4548 136.909 37.622 136.795 37.7999L136.134 37.5458C136.308 37.2493 136.515 37.0185 136.757 36.8534C136.998 36.6861 137.251 36.5696 137.516 36.5039C137.781 36.4362 138.036 36.4023 138.281 36.4023C138.438 36.4023 138.615 36.4214 138.812 36.4595C139.009 36.4955 139.193 36.5707 139.365 36.685C139.538 36.7994 139.668 36.9719 139.755 37.2028C139.844 37.4336 139.857 37.7427 139.793 38.1303L139.26 41.3448H138.51L138.624 40.6841H138.586C138.519 40.7899 138.415 40.9032 138.275 41.0239C138.137 41.1446 137.963 41.2473 137.751 41.3321C137.541 41.4168 137.295 41.4591 137.011 41.4591ZM137.227 40.7857C137.523 40.7857 137.783 40.7275 138.005 40.611C138.23 40.4945 138.41 40.3442 138.545 40.16C138.683 39.9757 138.768 39.782 138.802 39.5787L138.917 38.8926C138.879 38.9307 138.803 38.9656 138.691 38.9974C138.579 39.0271 138.452 39.0535 138.31 39.0768C138.17 39.098 138.034 39.1171 137.9 39.134C137.769 39.1488 137.663 39.1615 137.583 39.1721C137.384 39.1975 137.194 39.2388 137.014 39.296C136.836 39.351 136.686 39.4347 136.563 39.5469C136.442 39.657 136.367 39.8074 136.337 39.998C136.293 40.2584 136.355 40.4554 136.525 40.5888C136.694 40.7201 136.928 40.7857 137.227 40.7857Z" fill="white" fill-opacity="0.4"/>
<path d="M141.413 38.4098L140.93 41.3448H140.181L140.994 36.4658H141.718L141.591 37.2282H141.655C141.807 36.9804 142.014 36.7814 142.274 36.631C142.534 36.4785 142.849 36.4023 143.217 36.4023C143.543 36.4023 143.819 36.4701 144.043 36.6056C144.27 36.739 144.43 36.9423 144.523 37.2155C144.618 37.4865 144.632 37.8296 144.564 38.2446L144.043 41.3448H143.294L143.802 38.2954C143.865 37.9143 143.816 37.6157 143.653 37.3997C143.492 37.1837 143.236 37.0757 142.887 37.0757C142.646 37.0757 142.422 37.1276 142.217 37.2313C142.014 37.3351 141.841 37.4865 141.699 37.6856C141.559 37.8846 141.464 38.126 141.413 38.4098Z" fill="white" fill-opacity="0.4"/>
<path d="M146.999 41.4464C146.531 41.4464 146.144 41.3426 145.839 41.1351C145.534 40.9255 145.322 40.6332 145.201 40.2584C145.08 39.8815 145.061 39.4432 145.144 38.9434C145.226 38.4437 145.39 38.0032 145.636 37.622C145.882 37.2388 146.188 36.9402 146.554 36.7263C146.92 36.5103 147.323 36.4023 147.761 36.4023C148.015 36.4023 148.26 36.4447 148.495 36.5294C148.73 36.6141 148.933 36.7517 149.105 36.9423C149.276 37.1308 149.396 37.3806 149.464 37.6919C149.531 38.0032 149.527 38.3865 149.451 38.8418L149.4 39.1594H145.639L145.741 38.5114H148.739C148.788 38.2361 148.775 37.9905 148.701 37.7745C148.629 37.5585 148.503 37.388 148.323 37.2631C148.145 37.1382 147.92 37.0757 147.647 37.0757C147.365 37.0757 147.102 37.1519 146.859 37.3044C146.615 37.4548 146.412 37.6453 146.249 37.8762C146.086 38.1049 145.984 38.3378 145.944 38.575L145.855 39.134C145.792 39.5385 145.801 39.8603 145.884 40.0996C145.968 40.3389 146.116 40.5115 146.325 40.6174C146.535 40.7211 146.798 40.773 147.113 40.773C147.314 40.773 147.499 40.7455 147.669 40.6904C147.838 40.6332 147.99 40.5485 148.123 40.4363C148.257 40.322 148.369 40.1801 148.46 40.0107L149.146 40.214C149.029 40.4596 148.865 40.6756 148.654 40.862C148.444 41.0462 148.198 41.1902 147.917 41.2939C147.637 41.3956 147.331 41.4464 146.999 41.4464Z" fill="white" fill-opacity="0.4"/>
<path d="M149.742 41.3448L150.555 36.4658H151.305L150.492 41.3448H149.742ZM151.159 35.64C151.013 35.64 150.887 35.5902 150.781 35.4907C150.677 35.3912 150.625 35.2715 150.625 35.1318C150.625 34.992 150.677 34.8724 150.781 34.7728C150.887 34.6733 151.013 34.6235 151.159 34.6235C151.305 34.6235 151.43 34.6733 151.534 34.7728C151.639 34.8724 151.692 34.992 151.692 35.1318C151.692 35.2715 151.639 35.3912 151.534 35.4907C151.43 35.5902 151.305 35.64 151.159 35.64Z" fill="white" fill-opacity="0.4"/>
<path d="M151.418 41.3448L152.231 36.4658H152.955L152.828 37.2028H152.879C153.006 36.9614 153.199 36.7655 153.46 36.6151C153.72 36.4648 153.997 36.3896 154.289 36.3896C154.346 36.3896 154.415 36.3907 154.495 36.3928C154.576 36.3928 154.638 36.396 154.683 36.4023L154.556 37.1646C154.53 37.1583 154.473 37.1488 154.384 37.136C154.295 37.1212 154.2 37.1138 154.098 37.1138C153.861 37.1138 153.642 37.1636 153.441 37.2631C153.24 37.3605 153.071 37.496 152.936 37.6697C152.8 37.8412 152.713 38.0371 152.675 38.2573L152.167 41.3448H151.418Z" fill="white" fill-opacity="0.4"/>
<path d="M155.739 41.4591C155.43 41.4591 155.159 41.4009 154.926 41.2844C154.693 41.1658 154.52 40.9954 154.408 40.773C154.296 40.5486 154.265 40.2775 154.316 39.9598C154.364 39.6803 154.459 39.4538 154.598 39.2801C154.738 39.1044 154.908 38.9667 155.107 38.8672C155.308 38.7655 155.524 38.6904 155.755 38.6417C155.988 38.5908 156.219 38.5517 156.45 38.5241C156.751 38.486 156.996 38.4564 157.184 38.4352C157.373 38.414 157.514 38.3791 157.61 38.3304C157.705 38.2817 157.763 38.198 157.784 38.0794V38.054C157.835 37.7427 157.794 37.5003 157.661 37.3266C157.527 37.1509 157.289 37.063 156.946 37.063C156.59 37.063 156.293 37.1414 156.053 37.2981C155.814 37.4548 155.637 37.622 155.523 37.7999L154.862 37.5458C155.036 37.2493 155.243 37.0185 155.485 36.8534C155.726 36.6861 155.979 36.5696 156.244 36.5039C156.509 36.4362 156.764 36.4023 157.009 36.4023C157.166 36.4023 157.343 36.4214 157.54 36.4595C157.737 36.4955 157.921 36.5707 158.093 36.685C158.266 36.7994 158.396 36.9719 158.483 37.2028C158.572 37.4336 158.585 37.7427 158.521 38.1303L157.988 41.3448H157.238L157.352 40.6841H157.314C157.247 40.7899 157.143 40.9032 157.003 41.0239C156.865 41.1446 156.691 41.2473 156.479 41.3321C156.269 41.4168 156.023 41.4591 155.739 41.4591ZM155.955 40.7857C156.251 40.7857 156.511 40.7275 156.733 40.611C156.957 40.4945 157.137 40.3442 157.273 40.16C157.411 39.9757 157.496 39.782 157.53 39.5787L157.645 38.8926C157.607 38.9307 157.531 38.9656 157.419 38.9974C157.307 39.0271 157.18 39.0535 157.038 39.0768C156.898 39.098 156.762 39.1171 156.628 39.134C156.497 39.1488 156.391 39.1615 156.311 39.1721C156.111 39.1975 155.922 39.2388 155.742 39.296C155.564 39.351 155.414 39.4347 155.291 39.5469C155.17 39.657 155.095 39.8074 155.065 39.998C155.021 40.2584 155.083 40.4554 155.253 40.5888C155.422 40.7201 155.656 40.7857 155.955 40.7857Z" fill="white" fill-opacity="0.4"/>
</svg>
