<svg width="200" height="60" viewBox="0 0 200 60" fill="none" xmlns="http://www.w3.org/2000/svg">
<path d="M9.63232 29.9999C9.63232 35.4607 12.6037 39.8875 18.2904 39.8875C23.2392 39.8875 25.8045 37.0662 26.6379 33.1499L21.4706 31.1671C21.1051 32.0644 20.5591 34.7274 18.2904 34.8162C16.3235 34.8932 15.4215 32.6819 15.4215 29.9999C15.4215 26.5654 16.7633 25.1439 18.4185 25.1439C19.9057 25.1439 20.7967 26.2514 21.1849 27.8605L26.4645 26.2295C25.4563 22.6391 22.8384 20.1122 18.2904 20.1122C13.5087 20.1122 9.63232 23.0068 9.63232 29.9999Z" fill="white" fill-opacity="0.4"/>
<path fill-rule="evenodd" clip-rule="evenodd" d="M46.4132 29.9999C46.4132 35.4607 41.9863 39.8875 36.5256 39.8875C31.0648 39.8875 26.6379 35.4607 26.6379 29.9999C26.6379 24.5391 31.0648 20.1123 36.5256 20.1123C41.9863 20.1123 46.4132 24.5391 46.4132 29.9999ZM27.7951 29.9997C27.7951 25.1781 31.7039 21.2693 36.5255 21.2693C41.3472 21.2693 45.2559 25.1781 45.2559 29.9997C45.2559 31.4145 44.9194 32.7507 44.322 33.9326C44.2043 34.1655 44.0765 34.3924 43.9391 34.6127C43.2419 35.7308 42.2989 36.6796 41.1857 37.3837C40.7704 37.6463 40.3314 37.8749 39.8727 38.0655C38.8419 38.4937 37.7113 38.7301 36.5255 38.7301C35.372 38.7301 34.2708 38.5064 33.2628 38.1C32.7735 37.9027 32.3061 37.6624 31.8654 37.3837C30.7522 36.6796 29.8091 35.7308 29.112 34.6127C28.9746 34.3924 28.8468 34.1655 28.729 33.9326C28.1317 32.7507 27.7951 31.4145 27.7951 29.9997Z" fill="white" fill-opacity="0.4"/>
<path d="M36.3366 34.6127L32.7313 22.8953L28.729 33.9326C28.8468 34.1655 28.9746 34.3924 29.112 34.6127H31.8654V37.3837C32.3061 37.6624 32.7735 37.9027 33.2628 38.1V34.6127H36.3366Z" fill="white" fill-opacity="0.4"/>
<path d="M40.2193 22.8953L36.3366 34.6127H39.8727V38.0655C40.3314 37.8749 40.7704 37.6463 41.1857 37.3837V34.6127H43.9391C44.0765 34.3924 44.2043 34.1655 44.322 33.9326L40.2193 22.8953Z" fill="white" fill-opacity="0.4"/>
<path d="M46.4132 20.1123H63.6028V25.5235H58.0474V39.8875H52.1296V25.5235H46.4132V20.1123Z" fill="white" fill-opacity="0.4"/>
<path fill-rule="evenodd" clip-rule="evenodd" d="M63.6028 20.1123V39.8875H69.2754V31.9987C69.9333 31.9987 70.4398 32.1749 71.1097 33.6278L74.1167 39.8875H85.335L86.3471 36.6801H91.2701L92.4366 39.8875H98.4575L92.1388 20.1123H85.8804L80.0518 38.2913L77.9293 33.6278C77.5307 32.7529 76.562 31.3575 75.3967 31.0511C76.8252 30.6009 79.0754 29.7078 79.0754 25.2767V24.8698C79.0754 23.0763 78.1864 20.1123 74.2456 20.1123L63.6028 20.1123ZM69.2754 27.6578V24.4475H71.6104C72.7131 24.4475 73.286 25.2312 73.286 26.0752C73.286 26.9677 72.8134 27.6578 71.6104 27.6578H69.2754ZM90.3124 31.9987H87.3347L88.8851 25.8923L90.3124 31.9987Z" fill="white" fill-opacity="0.4"/>
<path d="M98.4575 29.9999C98.4575 35.4607 101.429 39.8875 107.116 39.8875C112.064 39.8875 114.63 37.0662 115.463 33.1499L110.296 31.1671C109.93 32.0644 109.384 34.7274 107.116 34.8162C105.149 34.8932 104.247 32.6819 104.247 29.9999C104.247 26.5654 105.588 25.1439 107.244 25.1439C108.731 25.1439 109.622 26.2514 110.01 27.8605L115.29 26.2295C114.281 22.6391 111.663 20.1122 107.116 20.1122C102.334 20.1122 98.4575 23.0068 98.4575 29.9999Z" fill="white" fill-opacity="0.4"/>
<path fill-rule="evenodd" clip-rule="evenodd" d="M115.999 38.2913L115.463 39.8875H121.282L122.294 36.6801H127.217L128.384 39.8875H134.404L128.086 20.1123H121.827L115.999 38.2913ZM123.282 31.9987H126.259L124.832 25.8923L123.282 31.9987Z" fill="white" fill-opacity="0.4"/>
<path fill-rule="evenodd" clip-rule="evenodd" d="M134.94 38.2913L134.404 39.8875H140.223L141.235 36.6801H146.158L147.325 39.8875H153.346L147.027 20.1123H140.769L134.94 38.2913ZM142.223 31.9987H145.201L143.773 25.8923L142.223 31.9987Z" fill="white" fill-opacity="0.4"/>
<path fill-rule="evenodd" clip-rule="evenodd" d="M153.346 39.8875V20.1123H163.989C166.689 20.1123 168.818 22.5071 168.818 24.798V25.1145C168.818 29.7264 166.568 30.6009 165.14 31.0511C166.305 31.3575 167.274 32.7529 167.672 33.6278L169.795 38.2913L170.598 39.8875H163.86L160.853 33.6278C160.183 32.1749 159.676 31.9987 159.018 31.9987V39.8875H153.346ZM159.018 24.4475V27.6578H161.353C162.556 27.6578 163.029 26.9677 163.029 26.0752C163.029 25.2312 162.456 24.4475 161.353 24.4475H159.018Z" fill="white" fill-opacity="0.4"/>
<path d="M180.294 36.6351L176.689 24.9207L172.688 35.9551C172.806 36.1879 172.934 36.4148 173.071 36.6351H175.824V39.4053C176.264 39.6839 176.732 39.9242 177.221 40.1215V36.6351H180.294Z" fill="white" fill-opacity="0.4"/>
<path d="M184.175 24.9207L180.294 36.6351H183.829V40.0869C184.287 39.8964 184.726 39.6679 185.141 39.4053V36.6351H187.894C188.032 36.4148 188.159 36.1879 188.277 35.9551L184.175 24.9207Z" fill="white" fill-opacity="0.4"/>
<path fill-rule="evenodd" clip-rule="evenodd" d="M179.161 22.2261L181.313 18.1889L186.074 18.0913L182.285 22.3023C181.7 22.1947 181.098 22.1385 180.483 22.1385C180.034 22.1385 179.593 22.1683 179.161 22.2261ZM179.161 22.2261C174.326 22.8722 170.598 27.0124 170.598 32.0235C170.598 37.4828 175.023 41.9084 180.483 41.9084C185.942 41.9084 190.368 37.4828 190.368 32.0235C190.368 27.1796 186.884 23.1494 182.285 22.3023L182.132 22.4718H179.03L179.161 22.2261ZM180.483 23.2952C175.662 23.2952 171.755 27.2029 171.755 32.0233C171.755 33.4377 172.091 34.7735 172.688 35.9551C172.806 36.1879 172.934 36.4148 173.071 36.6351C173.768 37.7528 174.711 38.7014 175.824 39.4053C176.264 39.6839 176.732 39.9242 177.221 40.1215C178.229 40.5277 179.329 40.7514 180.483 40.7514C181.668 40.7514 182.798 40.515 183.829 40.0869C184.287 39.8964 184.726 39.6679 185.141 39.4053C186.254 38.7014 187.197 37.7528 187.894 36.6351C188.032 36.4148 188.159 36.1879 188.277 35.9551C188.874 34.7735 189.211 33.4377 189.211 32.0233C189.211 27.2029 185.303 23.2952 180.483 23.2952Z" fill="white" fill-opacity="0.4"/>
<path d="M179.03 22.4718H182.132L182.285 22.3023C181.7 22.1947 181.098 22.1385 180.483 22.1385C180.034 22.1385 179.593 22.1683 179.161 22.2261L179.03 22.4718Z" fill="white" fill-opacity="0.4"/>
</svg>
