<svg width="200" height="60" viewBox="0 0 200 60" fill="none" xmlns="http://www.w3.org/2000/svg">
<path fill-rule="evenodd" clip-rule="evenodd" d="M41.6696 23.4223V42.3128C41.6766 42.627 41.924 43.2554 42.8576 43.2554H47.8847V34.1268H53.7036C57.0555 34.1268 62.3592 31.7507 62.3592 25.8531C62.3592 21.2708 58.5575 17.1551 53.7036 17.1551H48.2303L41.6696 23.4223ZM47.8847 28.7958V22.7623H53.3534C54.9623 22.7623 56.0654 24.1605 56.0654 25.8531C56.0654 27.5457 54.9989 28.7958 53.3534 28.7958H47.8847Z" fill="white" fill-opacity="0.4"/>
<path d="M68.2714 43.0894V23.2187L73.9394 17.7385L83.0224 30.6227L91.6639 17.7385H96.8488C97.1337 17.7339 97.7036 17.8914 97.7036 18.558V36.6141L91.0878 43.0894V30.6227L83.0224 41.9142L74.5537 30.6227V43.0894H68.2714Z" fill="white" fill-opacity="0.4"/>
<path d="M81.1357 10.3575H103.093C103.816 10.3575 104.668 10.9412 104.668 12.155V29.5858L111.013 23.2411V5.45425C111.013 4.53997 110.476 3.71729 109.209 3.71729H87.6538L81.1357 10.3575Z" fill="white" fill-opacity="0.4"/>
<path d="M54.2074 49.6422H36.1809C35.4577 49.6422 34.6055 49.0585 34.6055 47.8448V30.4139L28.2607 36.7586V54.5455C28.2607 55.4598 28.7975 56.2825 30.0652 56.2825H47.6893L54.2074 49.6422Z" fill="white" fill-opacity="0.4"/>
<path d="M120.465 28.4265V35.8553H122.427V26.8516L120.465 28.4265Z" fill="white" fill-opacity="0.4"/>
<path d="M140.662 35.8553H142.623V29.5466C142.623 29.5466 141.316 29.553 140.662 29.5466V35.8553Z" fill="white" fill-opacity="0.4"/>
<path d="M142.623 26.6805L140.662 28.2553V28.5386H142.623V26.6805Z" fill="white" fill-opacity="0.4"/>
<path d="M155.504 35.8553H157.465V29.5466C157.465 29.5466 156.158 29.553 155.504 29.5466V35.8553Z" fill="white" fill-opacity="0.4"/>
<path d="M157.465 26.6805H155.504V28.5386H157.465V26.6805Z" fill="white" fill-opacity="0.4"/>
<path d="M143.887 34.918C144.231 35.2672 145.219 35.9656 146.418 35.9656C147.917 35.9656 149.142 35.2564 149.142 34.0475C149.142 32.742 148.368 32.2746 147.385 32.0167C146.7 31.837 145.965 31.8925 145.835 31.2386C145.777 30.9525 146.116 30.294 146.7 30.294C147.111 30.294 147.284 30.6314 147.625 31.0787L148.953 30.1545C148.691 29.7179 147.837 28.8679 146.513 28.9605C144.858 29.0763 144.024 30.1875 144.024 31.3798C144.024 32.5721 145.445 33.1174 145.835 33.2319C146.779 33.5097 147.576 33.8899 147.069 34.4937C146.783 34.8341 145.627 34.702 144.869 33.8686L143.887 34.918Z" fill="white" fill-opacity="0.4"/>
<path d="M150.576 27.4602V29.2223H149.579V30.9297H150.576V34.5767C150.653 35.0397 151.12 35.9656 152.365 35.9656C153.923 35.9656 154.155 34.5494 154.155 34.126H152.611V30.9297H154.155V29.2223H152.611V27.4602H150.576Z" fill="white" fill-opacity="0.4"/>
<path d="M131.103 32.6532C131.103 34.7433 129.409 36.4376 127.319 36.4376C125.229 36.4376 123.535 34.7433 123.535 32.6532C123.535 30.5631 125.229 28.8687 127.319 28.8687C129.409 28.8687 131.103 30.5631 131.103 32.6532ZM125.9 32.6532C125.9 33.4367 126.535 34.0718 127.319 34.0718C128.102 34.0718 128.738 33.4367 128.738 32.6532C128.738 31.8697 128.102 31.2345 127.319 31.2345C126.535 31.2345 125.9 31.8697 125.9 32.6532Z" fill="white" fill-opacity="0.4"/>
<path d="M162.129 36.1634C160.039 36.1634 158.345 34.4691 158.345 32.379C158.345 30.2889 160.039 28.5945 162.129 28.5945C163.462 28.5945 164.634 29.2834 165.308 30.3244L163.405 31.7578C163.175 31.2856 162.69 30.9603 162.129 30.9603C161.346 30.9603 160.71 31.5955 160.71 32.379C160.71 33.1625 161.346 33.7976 162.129 33.7976C162.49 33.7976 162.819 33.6632 163.069 33.4417L164.926 34.9289C164.233 35.6875 163.237 36.1634 162.129 36.1634Z" fill="white" fill-opacity="0.4"/>
<path fill-rule="evenodd" clip-rule="evenodd" d="M171.74 35.8064V31.0038C171.74 30.2529 171.083 29.0797 169.033 29.0797C167.829 29.0797 166.968 29.4551 166.374 29.8775L167.141 31.0038C167.709 30.6284 169.071 30.1027 169.972 31.0038V32.0363C169.685 31.8251 169.112 31.6139 168.157 31.6139C167.117 31.6139 165.92 32.5994 165.92 33.7414C165.92 34.8833 166.609 35.8064 168.157 35.8064C169.109 35.8064 169.685 35.4152 169.972 35.118V35.8064H171.74ZM167.516 33.8665C167.516 32.8489 168.928 32.7655 169.972 33.0844L169.592 34.2105C169.035 34.5132 167.516 34.8842 167.516 33.8665Z" fill="white" fill-opacity="0.4"/>
<path fill-rule="evenodd" clip-rule="evenodd" d="M138.912 29.1202V35.3502C138.912 36.938 137.316 37.9599 135.441 37.9599C134.104 37.9599 132.918 37.5071 132.25 36.8388C132.578 36.4723 132.706 36.2527 133.155 35.8039C133.575 36.0981 134.177 36.4393 135.229 36.4393C136.487 36.4393 137.094 35.4158 137.094 34.6345C136.633 34.9434 135.773 35.4158 134.888 35.4158C133.781 35.4158 132.066 34.8646 132.066 32.3714C132.066 31.3194 132.616 29.1202 135.079 29.1202C135.725 29.1202 136.823 29.2857 137.094 29.9175V29.1202H138.912ZM137.094 32.2785C137.094 31.2808 136.176 30.8868 135.586 30.8868C134.888 30.8868 133.953 31.4377 133.953 32.3365C133.953 33.4092 134.804 33.8633 135.509 33.8633C136.079 33.8633 137.094 33.4865 137.094 32.2785Z" fill="white" fill-opacity="0.4"/>
</svg>
