<svg width="200" height="60" viewBox="0 0 200 60" fill="none" xmlns="http://www.w3.org/2000/svg">
<path fill-rule="evenodd" clip-rule="evenodd" d="M81.0438 18.7066H78.4042V13.9782H93.4845C96.4149 14.0471 102.276 15.562 102.276 21.0708C102.276 27.1527 98.9703 28.4847 98.6031 28.4847C98.2358 28.4847 103.767 29.4014 103.767 36.3253C103.767 41.8644 99.3113 44.5288 97.0833 45.1686C96.4206 45.34 94.8347 45.6828 93.7927 45.6828H78.4042V41.5105H81.0438V18.7066ZM87.3487 26.7964V18.9471H91.8732C93.2329 19.0042 95.9521 19.8657 95.9521 22.8546C95.9521 25.8435 93.2329 26.7279 91.8732 26.7964H87.3487ZM87.3487 40.7812V31.6294H93.1072C94.5125 31.6294 97.3232 32.3424 97.3232 36.0168C97.3232 39.6913 94.9924 40.7812 93.1072 40.7812H87.3487Z" fill="white" fill-opacity="0.4"/>
<path d="M54.4939 36.4388V44.3973C55.6667 45.3048 59.4365 47.0026 65.133 46.5335C72.2537 45.9471 75.7722 40.9207 75.7722 37.1509C75.7722 33.3811 74.3899 31.4125 73.7617 30.7423C71.2727 28.0874 68.5978 27.207 65.133 26.4698C61.7321 25.7462 60.9025 23.8729 60.9025 22.6163C60.9025 21.3597 60.9863 18.9303 64.8398 18.7208C67.9227 18.5533 68.9726 19.2933 69.1123 19.6842V23.2446L74.4737 22.8676V15.4956C73.0217 14.5881 68.587 13.1509 65.133 13.4432C60.2804 13.8537 57.1746 15.3699 55.541 18.2601C53.9075 21.1503 54.0331 25.8835 55.541 27.7683C57.049 29.6532 58.374 30.7423 63.4575 32.5015C66.7496 33.6408 69.1123 34.3445 69.1123 36.6902C69.1123 39.0358 67.4786 40.6275 65.5937 40.9626C63.7088 41.2977 60.3579 40.5437 59.939 40.2086V35.9829L54.4939 36.4388Z" fill="white" fill-opacity="0.4"/>
<path d="M47.9881 25.2469C43.3544 28.7935 38.384 33.4791 33.8795 37.8541C32.0779 39.6039 30.6021 40.0469 29.6126 40.0469C26.4941 40.0468 24.867 38.3144 23.0239 35.2974L28.8071 29.8797C28.8859 30.7832 29.0648 32.3213 30.3011 32.5107C30.9983 32.6175 31.4502 32.0683 31.8162 31.7494C32.0994 31.5026 36.0985 27.4216 38.1481 25.4018C40.0363 23.5408 41.963 23.242 43.03 23.242C44.0055 23.242 46.061 23.5534 47.9881 25.2469Z" fill="white" fill-opacity="0.4"/>
<path d="M12.4595 34.2895C17.0932 30.743 22.0636 26.0574 26.5681 21.6824C28.3697 19.9325 29.8455 19.4896 30.835 19.4896C33.9535 19.4896 35.5806 21.2221 37.4237 24.239L31.6405 29.6567C31.5617 28.7532 31.3828 27.2152 30.1465 27.0257C29.4493 26.9189 28.9974 27.4682 28.6314 27.7871C28.3482 28.0338 24.3491 32.1148 22.2996 34.1347C20.4113 35.9956 18.4846 36.2945 17.4176 36.2945C16.4421 36.2945 14.3866 35.9831 12.4595 34.2895Z" fill="white" fill-opacity="0.4"/>
<path d="M46.1147 31.3947C46.1724 30.837 46.2019 30.2713 46.2019 29.699L43.8866 31.1642C43.1545 38.2419 37.1707 43.7619 29.899 43.7619C25.4297 43.7619 21.4478 41.6783 18.8701 38.425L16.5308 39.2325C20.193 44.0054 24.7166 46.0019 29.899 46.0019C38.3305 46.0019 45.2658 39.6022 46.1147 31.3947Z" fill="white" fill-opacity="0.4"/>
<path d="M15.9497 27.9022C16.8313 20.9844 22.7414 15.6361 29.899 15.6361C34.3401 15.6361 38.2999 17.6935 40.8789 20.9114L43.2018 20.0192C39.4372 15.6361 35.0486 13.3961 29.899 13.3961C22.1184 13.1117 13.5452 18.9642 13.735 29.8782L15.9497 27.9022Z" fill="white" fill-opacity="0.4"/>
<path d="M134.153 25.9579C134.249 26.1461 134.297 26.3364 134.297 26.5289C134.297 26.752 134.227 26.9598 134.087 27.1523C133.947 27.3448 133.742 27.5001 133.47 27.6182C133.199 27.7364 132.862 27.7954 132.46 27.7954C132.167 27.7954 131.869 27.7517 131.567 27.6642C131.27 27.5767 131.018 27.4279 130.812 27.2179C130.607 27.0036 130.491 26.7126 130.465 26.3451H129.684C129.684 26.7126 129.789 27.0604 129.999 27.3886C130.213 27.7123 130.526 27.9748 130.937 28.1761C131.353 28.3729 131.86 28.4714 132.46 28.4714C132.858 28.4714 133.217 28.4232 133.536 28.327C133.86 28.2307 134.135 28.0951 134.363 27.9201C134.595 27.7451 134.772 27.5373 134.894 27.2967C135.017 27.0517 135.078 26.7826 135.078 26.4895C135.078 26.1132 134.991 25.7939 134.816 25.5314C134.641 25.2645 134.369 25.0414 134.002 24.862C133.639 24.6782 133.171 24.5229 132.597 24.3961C132.199 24.3042 131.876 24.2101 131.626 24.1139C131.377 24.0176 131.184 23.9148 131.049 23.8054C130.917 23.6961 130.826 23.5779 130.773 23.4511C130.725 23.3198 130.701 23.1754 130.701 23.0179C130.701 22.8167 130.758 22.622 130.871 22.4339C130.99 22.2457 131.176 22.0904 131.429 21.9679C131.683 21.8454 132.013 21.7842 132.42 21.7842C132.814 21.7842 133.146 21.8542 133.418 21.9942C133.693 22.1342 133.901 22.3136 134.041 22.5323C134.186 22.7511 134.258 22.9829 134.258 23.2279H135.039C135.039 22.8254 134.934 22.4645 134.724 22.1451C134.518 21.8257 134.218 21.5742 133.825 21.3904C133.435 21.2023 132.967 21.1082 132.42 21.1082C132.035 21.1082 131.687 21.1586 131.377 21.2592C131.071 21.3598 130.808 21.4998 130.589 21.6792C130.375 21.8542 130.209 22.0598 130.091 22.2961C129.977 22.5279 129.92 22.7751 129.92 23.0376C129.92 23.3307 129.975 23.5845 130.084 23.7989C130.193 24.0132 130.353 24.197 130.563 24.3501C130.773 24.5032 131.031 24.6345 131.337 24.7439C131.648 24.8532 132 24.9517 132.394 25.0392C132.923 25.1486 133.324 25.282 133.595 25.4395C133.871 25.597 134.057 25.7698 134.153 25.9579Z" fill="white" fill-opacity="0.4"/>
<path d="M158.696 27.6117C158.408 27.7342 158.097 27.7954 157.764 27.7954C157.358 27.7954 157.01 27.7189 156.721 27.5657C156.437 27.4082 156.205 27.1961 156.025 26.9292C155.85 26.6623 155.721 26.3582 155.638 26.017C155.559 25.6714 155.52 25.3082 155.52 24.9276V24.652C155.52 24.2757 155.562 23.917 155.645 23.5757C155.728 23.2301 155.857 22.9239 156.032 22.657C156.211 22.3857 156.443 22.1736 156.728 22.0204C157.012 21.8629 157.355 21.7842 157.758 21.7842C158.117 21.7842 158.443 21.8586 158.736 22.0073C159.029 22.1561 159.265 22.3682 159.444 22.6439C159.624 22.9195 159.724 23.2476 159.746 23.6282H160.494C160.473 23.112 160.339 22.6657 160.094 22.2895C159.853 21.9132 159.53 21.6223 159.123 21.4167C158.72 21.2111 158.265 21.1082 157.758 21.1082C157.263 21.1082 156.828 21.1979 156.452 21.3773C156.076 21.5567 155.761 21.8082 155.507 22.132C155.253 22.4514 155.061 22.8276 154.929 23.2607C154.803 23.6895 154.739 24.1532 154.739 24.652V24.9276C154.739 25.4264 154.803 25.8923 154.929 26.3254C155.061 26.7542 155.253 27.1304 155.507 27.4542C155.761 27.7736 156.076 28.0229 156.452 28.2023C156.833 28.3817 157.27 28.4714 157.764 28.4714C158.25 28.4714 158.694 28.3729 159.097 28.1761C159.503 27.9748 159.832 27.6992 160.081 27.3492C160.335 26.9948 160.473 26.5923 160.494 26.1417H159.746C159.72 26.5004 159.611 26.8045 159.418 27.0539C159.23 27.2989 158.989 27.4848 158.696 27.6117Z" fill="white" fill-opacity="0.4"/>
<path d="M164.066 18.2601V22.4292C164.16 22.2765 164.265 22.1337 164.382 22.0007C164.631 21.7207 164.922 21.502 165.254 21.3445C165.591 21.187 165.963 21.1082 166.37 21.1082C166.724 21.1082 167.042 21.1564 167.322 21.2526C167.602 21.3489 167.84 21.502 168.037 21.712C168.234 21.922 168.382 22.1911 168.483 22.5192C168.588 22.8473 168.641 23.2476 168.641 23.7201V28.3401H167.853V23.7136C167.853 23.2236 167.785 22.8407 167.65 22.5651C167.514 22.2851 167.321 22.0861 167.072 21.9679C166.823 21.8498 166.527 21.7907 166.186 21.7907C165.81 21.7907 165.48 21.8739 165.195 22.0401C164.915 22.202 164.679 22.4142 164.486 22.6767C164.306 22.9238 164.166 23.1889 164.066 23.4721V28.3401H163.286V18.2601H164.066Z" fill="white" fill-opacity="0.4"/>
<path d="M184.723 25.9579C184.819 26.1461 184.867 26.3364 184.867 26.5289C184.867 26.752 184.797 26.9598 184.657 27.1523C184.517 27.3448 184.312 27.5001 184.04 27.6182C183.769 27.7364 183.432 27.7954 183.03 27.7954C182.737 27.7954 182.439 27.7517 182.137 27.6642C181.84 27.5767 181.588 27.4279 181.383 27.2179C181.177 27.0036 181.061 26.7126 181.035 26.3451H180.254C180.254 26.7126 180.359 27.0604 180.569 27.3886C180.783 27.7123 181.096 27.9748 181.507 28.1761C181.923 28.3729 182.43 28.4714 183.03 28.4714C183.428 28.4714 183.787 28.4232 184.106 28.327C184.43 28.2307 184.705 28.0951 184.933 27.9201C185.165 27.7451 185.342 27.5373 185.464 27.2967C185.587 27.0517 185.648 26.7826 185.648 26.4895C185.648 26.1132 185.561 25.7939 185.386 25.5314C185.211 25.2645 184.939 25.0414 184.572 24.862C184.209 24.6782 183.741 24.5229 183.168 24.3961C182.769 24.3042 182.446 24.2101 182.196 24.1139C181.947 24.0176 181.754 23.9148 181.619 23.8054C181.488 23.6961 181.396 23.5779 181.343 23.4511C181.295 23.3198 181.271 23.1754 181.271 23.0179C181.271 22.8167 181.328 22.622 181.442 22.4339C181.56 22.2457 181.746 22.0904 181.999 21.9679C182.253 21.8454 182.583 21.7842 182.99 21.7842C183.384 21.7842 183.717 21.8542 183.988 21.9942C184.264 22.1342 184.471 22.3136 184.611 22.5323C184.756 22.7511 184.828 22.9829 184.828 23.2279H185.609C185.609 22.8254 185.504 22.4645 185.294 22.1451C185.088 21.8257 184.788 21.5742 184.395 21.3904C184.005 21.2023 183.537 21.1082 182.99 21.1082C182.605 21.1082 182.258 21.1586 181.947 21.2592C181.641 21.3598 181.378 21.4998 181.159 21.6792C180.945 21.8542 180.779 22.0598 180.661 22.2961C180.547 22.5279 180.49 22.7751 180.49 23.0376C180.49 23.3307 180.545 23.5845 180.654 23.7989C180.764 24.0132 180.923 24.197 181.133 24.3501C181.343 24.5032 181.601 24.6345 181.908 24.7439C182.218 24.8532 182.57 24.9517 182.964 25.0392C183.493 25.1486 183.894 25.282 184.165 25.4395C184.441 25.597 184.627 25.7698 184.723 25.9579Z" fill="white" fill-opacity="0.4"/>
<path d="M134.697 39.8033V34.6795H135.485V41.7801H134.73L134.712 40.8784C134.676 40.9311 134.639 40.9823 134.599 41.032C134.376 41.312 134.087 41.5286 133.733 41.6817C133.378 41.8348 132.952 41.9114 132.453 41.9114C132.107 41.9114 131.79 41.8633 131.502 41.767C131.217 41.6664 130.972 41.5089 130.767 41.2945C130.561 41.0801 130.401 40.8023 130.287 40.4611C130.178 40.1198 130.123 39.7064 130.123 39.2207V34.6795H130.904V39.2339C130.904 39.6145 130.946 39.9317 131.029 40.1854C131.117 40.4392 131.235 40.6426 131.383 40.7957C131.536 40.9489 131.712 41.0583 131.908 41.1239C132.105 41.1895 132.317 41.2223 132.545 41.2223C133.122 41.2223 133.577 41.1108 133.91 40.8876C134.247 40.6645 134.485 40.3714 134.625 40.0082C134.652 39.9408 134.676 39.8725 134.697 39.8033Z" fill="white" fill-opacity="0.4"/>
<path d="M147.945 36.9121V41.7801H147.164V34.6795H147.912L147.938 35.8804C148.033 35.7235 148.141 35.577 148.26 35.4407C148.509 35.1607 148.8 34.942 149.133 34.7845C149.469 34.627 149.841 34.5482 150.248 34.5482C150.603 34.5482 150.92 34.5964 151.2 34.6926C151.48 34.7889 151.718 34.942 151.915 35.152C152.112 35.362 152.261 35.6311 152.361 35.9592C152.466 36.2873 152.519 36.6876 152.519 37.1601V41.7801H151.731V37.1536C151.731 36.6636 151.664 36.2807 151.528 36.0051C151.392 35.7251 151.2 35.5261 150.95 35.4079C150.701 35.2898 150.406 35.2307 150.064 35.2307C149.688 35.2307 149.358 35.3139 149.074 35.4801C148.794 35.642 148.557 35.8542 148.365 36.1167C148.185 36.3638 148.045 36.6289 147.945 36.9121Z" fill="white" fill-opacity="0.4"/>
<path d="M164.801 41.7801V34.6795H164.021V41.7801H164.801Z" fill="white" fill-opacity="0.4"/>
<path d="M164.021 32.2514C163.929 32.352 163.883 32.4767 163.883 32.6254C163.883 32.7698 163.929 32.8945 164.021 32.9995C164.117 33.1001 164.248 33.1504 164.414 33.1504C164.581 33.1504 164.712 33.1001 164.808 32.9995C164.909 32.8945 164.959 32.7698 164.959 32.6254C164.959 32.4767 164.909 32.352 164.808 32.2514C164.712 32.1464 164.581 32.0939 164.414 32.0939C164.248 32.0939 164.117 32.1464 164.021 32.2514Z" fill="white" fill-opacity="0.4"/>
<path d="M168.938 36.8742V41.7801H168.157V34.6795H168.918L168.937 35.7907C168.987 35.6913 169.042 35.5965 169.102 35.5064C169.303 35.2045 169.555 34.9704 169.857 34.8042C170.163 34.6336 170.522 34.5482 170.933 34.5482C171.034 34.5482 171.132 34.557 171.228 34.5745C171.329 34.5876 171.403 34.6051 171.451 34.627L171.432 35.3489C171.344 35.3357 171.259 35.3248 171.176 35.3161C171.093 35.3073 171.003 35.3029 170.907 35.3029C170.565 35.3029 170.266 35.3664 170.008 35.4932C169.754 35.6157 169.54 35.7886 169.365 36.0117C169.19 36.2304 169.056 36.4886 168.964 36.7861C168.955 36.8152 168.946 36.8446 168.938 36.8742Z" fill="white" fill-opacity="0.4"/>
<path d="M186.615 39.3979C186.711 39.5861 186.759 39.7764 186.759 39.9689C186.759 40.192 186.689 40.3998 186.549 40.5923C186.409 40.7848 186.204 40.9401 185.932 41.0582C185.661 41.1764 185.324 41.2354 184.922 41.2354C184.629 41.2354 184.331 41.1917 184.029 41.1042C183.732 41.0167 183.48 40.8679 183.275 40.6579C183.069 40.4436 182.953 40.1526 182.927 39.7851H182.146C182.146 40.1526 182.251 40.5004 182.461 40.8286C182.675 41.1523 182.988 41.4148 183.399 41.6161C183.815 41.8129 184.322 41.9114 184.922 41.9114C185.32 41.9114 185.679 41.8633 185.998 41.767C186.322 41.6707 186.597 41.5351 186.825 41.3601C187.057 41.1851 187.234 40.9773 187.357 40.7367C187.479 40.4917 187.54 40.2226 187.54 39.9295C187.54 39.5532 187.453 39.2339 187.278 38.9714C187.103 38.7045 186.832 38.4814 186.464 38.302C186.101 38.1182 185.633 37.9629 185.06 37.8361C184.662 37.7442 184.338 37.6501 184.088 37.5539C183.839 37.4576 183.647 37.3548 183.511 37.2454C183.38 37.1361 183.288 37.0179 183.235 36.8911C183.187 36.7598 183.163 36.6154 183.163 36.4579C183.163 36.2567 183.22 36.062 183.334 35.8739C183.452 35.6857 183.638 35.5304 183.892 35.4079C184.145 35.2854 184.476 35.2242 184.882 35.2242C185.276 35.2242 185.609 35.2942 185.88 35.4342C186.156 35.5742 186.363 35.7536 186.503 35.9723C186.648 36.1911 186.72 36.4229 186.72 36.6679H187.501C187.501 36.2654 187.396 35.9045 187.186 35.5851C186.98 35.2657 186.681 35.0142 186.287 34.8304C185.897 34.6423 185.429 34.5482 184.882 34.5482C184.497 34.5482 184.15 34.5986 183.839 34.6992C183.533 34.7998 183.27 34.9398 183.052 35.1192C182.837 35.2942 182.671 35.4998 182.553 35.7361C182.439 35.9679 182.382 36.2151 182.382 36.4776C182.382 36.7707 182.437 37.0245 182.546 37.2389C182.656 37.4532 182.815 37.637 183.025 37.7901C183.235 37.9432 183.493 38.0745 183.8 38.1839C184.11 38.2932 184.462 38.3917 184.856 38.4792C185.386 38.5886 185.786 38.722 186.057 38.8795C186.333 39.037 186.519 39.2098 186.615 39.3979Z" fill="white" fill-opacity="0.4"/>
<path fill-rule="evenodd" clip-rule="evenodd" d="M112.853 28.3401H114.658C115.275 28.3401 115.835 28.2395 116.338 28.0382C116.841 27.8326 117.276 27.5395 117.644 27.1589C118.011 26.7782 118.294 26.3211 118.49 25.7873C118.692 25.2536 118.792 24.6586 118.792 24.0023V23.1295C118.792 22.4732 118.692 21.8782 118.49 21.3445C118.294 20.8107 118.011 20.3536 117.644 19.9729C117.281 19.5879 116.85 19.2948 116.351 19.0936C115.857 18.8879 115.312 18.7851 114.717 18.7851H112.853H112.453H112.046V28.3401H112.492H112.853ZM114.658 27.6511H112.853V19.4807H114.717C115.211 19.4807 115.658 19.5661 116.056 19.7367C116.458 19.9073 116.804 20.1523 117.093 20.4717C117.381 20.7867 117.602 21.1673 117.755 21.6136C117.913 22.0598 117.992 22.5586 117.992 23.1098V24.0023C117.992 24.7242 117.856 25.3586 117.585 25.9054C117.314 26.4523 116.929 26.8811 116.43 27.1917C115.935 27.4979 115.345 27.6511 114.658 27.6511Z" fill="white" fill-opacity="0.4"/>
<path fill-rule="evenodd" clip-rule="evenodd" d="M123.342 28.2154C123.732 28.3861 124.158 28.4714 124.622 28.4714C125.046 28.4714 125.418 28.4145 125.738 28.3007C126.057 28.187 126.33 28.0339 126.558 27.8414C126.79 27.6489 126.982 27.4389 127.135 27.2114L126.643 26.8307C126.385 27.1676 126.094 27.4148 125.77 27.5723C125.447 27.7254 125.075 27.802 124.655 27.802C124.296 27.802 123.968 27.7298 123.67 27.5854C123.373 27.4411 123.115 27.2398 122.896 26.9817C122.682 26.7236 122.515 26.4261 122.397 26.0892C122.283 25.7479 122.227 25.3804 122.227 24.9867V24.8423H127.286V24.3632C127.286 23.8864 127.225 23.4511 127.103 23.0573C126.98 22.6592 126.798 22.3157 126.558 22.027C126.322 21.7339 126.028 21.5086 125.678 21.3511C125.328 21.1892 124.928 21.1082 124.478 21.1082C124.075 21.1082 123.69 21.1936 123.323 21.3642C122.959 21.5304 122.636 21.7711 122.351 22.0861C122.067 22.4011 121.844 22.7795 121.682 23.2214C121.52 23.6632 121.439 24.1576 121.439 24.7045V24.9867C121.439 25.4942 121.516 25.9623 121.669 26.3911C121.826 26.8154 122.047 27.1829 122.332 27.4936C122.62 27.8042 122.957 28.0448 123.342 28.2154ZM126.505 24.1729H122.255C122.281 23.9434 122.324 23.7268 122.384 23.5232C122.493 23.1645 122.647 22.8561 122.843 22.5979C123.045 22.3354 123.283 22.1342 123.559 21.9942C123.839 21.8542 124.145 21.7842 124.478 21.7842C124.924 21.7842 125.296 21.8936 125.593 22.1123C125.891 22.3311 126.114 22.6154 126.263 22.9654C126.416 23.3111 126.497 23.6829 126.505 24.0811V24.1729Z" fill="white" fill-opacity="0.4"/>
<path fill-rule="evenodd" clip-rule="evenodd" d="M138.84 31.0701V27.447C138.911 27.5416 138.988 27.6315 139.07 27.7167C139.311 27.9573 139.597 28.1432 139.93 28.2745C140.262 28.4057 140.641 28.4714 141.065 28.4714C141.494 28.4714 141.877 28.3839 142.214 28.2089C142.55 28.0339 142.833 27.7867 143.06 27.4673C143.292 27.1436 143.469 26.7607 143.592 26.3189C143.714 25.877 143.775 25.3914 143.775 24.862V24.7242C143.775 24.1729 143.714 23.6764 143.592 23.2345C143.474 22.7882 143.296 22.4076 143.06 22.0926C142.828 21.7732 142.542 21.5304 142.2 21.3642C141.864 21.1936 141.479 21.1082 141.045 21.1082C140.63 21.1082 140.26 21.1761 139.936 21.3117C139.613 21.4473 139.333 21.642 139.096 21.8957C138.999 22.0022 138.909 22.1172 138.826 22.2406L138.788 21.2395H138.053V31.0701H138.84ZM142.988 24.7242V24.862C142.988 25.2776 142.944 25.6626 142.857 26.017C142.774 26.3714 142.645 26.682 142.47 26.9489C142.299 27.2157 142.082 27.4236 141.82 27.5723C141.557 27.7211 141.247 27.7954 140.888 27.7954C140.442 27.7954 140.063 27.7123 139.753 27.5461C139.446 27.3754 139.201 27.1501 139.018 26.8701C138.952 26.7688 138.893 26.6645 138.84 26.5571V23.1426C138.941 22.902 139.079 22.6811 139.254 22.4798C139.429 22.2742 139.648 22.1101 139.91 21.9876C140.177 21.8607 140.499 21.7973 140.875 21.7973C141.238 21.7973 141.551 21.8717 141.813 22.0204C142.08 22.1692 142.299 22.377 142.47 22.6439C142.645 22.9064 142.774 23.2148 142.857 23.5692C142.944 23.9236 142.988 24.3086 142.988 24.7242Z" fill="white" fill-opacity="0.4"/>
<path fill-rule="evenodd" clip-rule="evenodd" d="M151.049 23.4051V24.2057H149.599C149.1 24.2057 148.649 24.2582 148.247 24.3632C147.849 24.4639 147.507 24.6126 147.223 24.8095C146.943 25.002 146.729 25.2382 146.58 25.5182C146.431 25.7939 146.357 26.1067 146.357 26.4567C146.357 26.8417 146.451 27.1873 146.639 27.4936C146.831 27.7954 147.098 28.0339 147.439 28.2089C147.785 28.3839 148.19 28.4714 148.654 28.4714C149.065 28.4714 149.432 28.4101 149.756 28.2876C150.084 28.1607 150.369 27.9989 150.609 27.802C150.782 27.6576 150.931 27.5066 151.056 27.3487C151.062 27.478 151.073 27.6116 151.088 27.7495C151.119 27.9857 151.16 28.1826 151.213 28.3401H152.046V28.2614C151.976 28.0907 151.922 27.8742 151.882 27.6117C151.847 27.3492 151.83 27.0954 151.83 26.8504V23.4182C151.83 22.902 151.72 22.4732 151.502 22.132C151.283 21.7907 150.979 21.5348 150.589 21.3642C150.204 21.1936 149.758 21.1082 149.251 21.1082C148.848 21.1082 148.479 21.1673 148.142 21.2854C147.809 21.3992 147.523 21.5545 147.282 21.7514C147.041 21.9482 146.855 22.1714 146.724 22.4207C146.593 22.6701 146.527 22.9282 146.527 23.1951L147.315 23.2017C147.315 22.9392 147.396 22.7007 147.558 22.4864C147.724 22.2676 147.949 22.0948 148.234 21.9679C148.522 21.8367 148.85 21.7711 149.218 21.7711C149.616 21.7711 149.951 21.8367 150.222 21.9679C150.493 22.0992 150.699 22.2873 150.839 22.5323C150.979 22.7773 151.049 23.0682 151.049 23.4051ZM149.704 24.8095H151.049V26.3785C150.969 26.558 150.862 26.7285 150.727 26.8898C150.509 27.1523 150.231 27.3645 149.894 27.5264C149.561 27.6882 149.176 27.7692 148.739 27.7692C148.411 27.7692 148.126 27.7079 147.886 27.5854C147.649 27.4586 147.466 27.2901 147.334 27.0801C147.208 26.8701 147.144 26.6382 147.144 26.3845C147.144 26.1395 147.201 25.9207 147.315 25.7282C147.433 25.5357 147.601 25.3717 147.82 25.2361C148.039 25.0961 148.306 24.9911 148.621 24.9211C148.94 24.8467 149.301 24.8095 149.704 24.8095Z" fill="white" fill-opacity="0.4"/>
<path fill-rule="evenodd" clip-rule="evenodd" d="M171.438 24.9014V24.6848C171.438 24.1686 171.513 23.6917 171.661 23.2542C171.81 22.8167 172.022 22.4382 172.298 22.1189C172.578 21.7995 172.913 21.5523 173.302 21.3773C173.691 21.1979 174.125 21.1082 174.601 21.1082C175.083 21.1082 175.518 21.1979 175.907 21.3773C176.297 21.5523 176.631 21.7995 176.911 22.1189C177.191 22.4382 177.406 22.8167 177.555 23.2542C177.703 23.6917 177.778 24.1686 177.778 24.6848V24.9014C177.778 25.4176 177.703 25.8945 177.555 26.332C177.406 26.7651 177.191 27.1414 176.911 27.4607C176.636 27.7801 176.303 28.0295 175.914 28.2089C175.525 28.3839 175.091 28.4714 174.615 28.4714C174.133 28.4714 173.698 28.3839 173.309 28.2089C172.919 28.0295 172.585 27.7801 172.305 27.4607C172.025 27.1414 171.81 26.7651 171.661 26.332C171.513 25.8945 171.438 25.4176 171.438 24.9014ZM172.219 24.9014V24.6848C172.219 24.2998 172.27 23.9345 172.37 23.5889C172.475 23.2432 172.628 22.9348 172.83 22.6636C173.035 22.3923 173.285 22.1779 173.578 22.0204C173.875 21.8629 174.216 21.7842 174.601 21.7842C174.986 21.7842 175.328 21.8629 175.625 22.0204C175.923 22.1779 176.172 22.3923 176.373 22.6636C176.579 22.9348 176.732 23.2432 176.833 23.5889C176.938 23.9345 176.99 24.2998 176.99 24.6848V24.9014C176.99 25.2907 176.938 25.6604 176.833 26.0104C176.732 26.3561 176.581 26.6645 176.38 26.9357C176.179 27.2026 175.929 27.4126 175.632 27.5657C175.339 27.7189 175 27.7954 174.615 27.7954C174.225 27.7954 173.882 27.7189 173.584 27.5657C173.287 27.4126 173.037 27.2026 172.836 26.9357C172.635 26.6645 172.482 26.3561 172.377 26.0104C172.272 25.6604 172.219 25.2907 172.219 24.9014Z" fill="white" fill-opacity="0.4"/>
<path fill-rule="evenodd" clip-rule="evenodd" d="M173.33 38.3414V38.1248C173.33 37.6086 173.405 37.1317 173.553 36.6942C173.702 36.2567 173.914 35.8782 174.19 35.5589C174.47 35.2395 174.805 34.9923 175.194 34.8173C175.583 34.6379 176.017 34.5482 176.493 34.5482C176.975 34.5482 177.41 34.6379 177.799 34.8173C178.189 34.9923 178.523 35.2395 178.803 35.5589C179.083 35.8782 179.298 36.2567 179.447 36.6942C179.595 37.1317 179.67 37.6086 179.67 38.1248V38.3414C179.67 38.8576 179.595 39.3345 179.447 39.772C179.298 40.2051 179.083 40.5814 178.803 40.9007C178.528 41.2201 178.195 41.4695 177.806 41.6489C177.417 41.8239 176.983 41.9114 176.507 41.9114C176.025 41.9114 175.59 41.8239 175.201 41.6489C174.811 41.4695 174.477 41.2201 174.197 40.9007C173.917 40.5814 173.702 40.2051 173.553 39.772C173.405 39.3345 173.33 38.8576 173.33 38.3414ZM174.111 38.3414V38.1248C174.111 37.7398 174.162 37.3745 174.262 37.0289C174.367 36.6832 174.52 36.3748 174.722 36.1036C174.927 35.8323 175.177 35.6179 175.47 35.4604C175.767 35.3029 176.108 35.2242 176.493 35.2242C176.878 35.2242 177.22 35.3029 177.517 35.4604C177.815 35.6179 178.064 35.8323 178.265 36.1036C178.471 36.3748 178.624 36.6832 178.725 37.0289C178.83 37.3745 178.882 37.7398 178.882 38.1248V38.3414C178.882 38.7307 178.83 39.1004 178.725 39.4504C178.624 39.7961 178.473 40.1045 178.272 40.3757C178.071 40.6426 177.821 40.8526 177.524 41.0057C177.231 41.1589 176.892 41.2354 176.507 41.2354C176.117 41.2354 175.774 41.1589 175.476 41.0057C175.179 40.8526 174.929 40.6426 174.728 40.3757C174.527 40.1045 174.374 39.7961 174.269 39.4504C174.164 39.1004 174.111 38.7307 174.111 38.3414Z" fill="white" fill-opacity="0.4"/>
<path fill-rule="evenodd" clip-rule="evenodd" d="M157.226 41.6554C157.616 41.8261 158.042 41.9114 158.506 41.9114C158.93 41.9114 159.302 41.8545 159.622 41.7407C159.941 41.627 160.214 41.4739 160.442 41.2814C160.674 41.0889 160.866 40.8789 161.019 40.6514L160.527 40.2708C160.269 40.6076 159.978 40.8548 159.654 41.0123C159.331 41.1654 158.959 41.242 158.539 41.242C158.18 41.242 157.852 41.1698 157.554 41.0254C157.257 40.8811 156.999 40.6798 156.78 40.4217C156.566 40.1636 156.399 39.8661 156.281 39.5292C156.168 39.1879 156.111 38.8204 156.111 38.4267V38.2823H161.17V37.8032C161.17 37.3264 161.109 36.8911 160.987 36.4973C160.864 36.0992 160.683 35.7557 160.442 35.467C160.206 35.1739 159.913 34.9486 159.562 34.7911C159.212 34.6292 158.812 34.5482 158.362 34.5482C157.959 34.5482 157.574 34.6336 157.207 34.8042C156.843 34.9704 156.52 35.2111 156.235 35.5261C155.951 35.8411 155.728 36.2195 155.566 36.6614C155.404 37.1032 155.323 37.5976 155.323 38.1445V38.4267C155.323 38.9342 155.4 39.4023 155.553 39.8311C155.71 40.2554 155.931 40.6229 156.216 40.9336C156.504 41.2442 156.841 41.4848 157.226 41.6554ZM160.389 37.6129H156.139C156.165 37.3834 156.208 37.1668 156.268 36.9632C156.378 36.6045 156.531 36.2961 156.728 36.0379C156.929 35.7754 157.167 35.5742 157.443 35.4342C157.723 35.2942 158.029 35.2242 158.362 35.2242C158.808 35.2242 159.18 35.3336 159.477 35.5523C159.775 35.7711 159.998 36.0554 160.147 36.4054C160.3 36.7511 160.381 37.1229 160.389 37.5211V37.6129Z" fill="white" fill-opacity="0.4"/>
<path fill-rule="evenodd" clip-rule="evenodd" d="M143.067 36.8451V37.6457H141.616C141.118 37.6457 140.667 37.6982 140.265 37.8032C139.866 37.9039 139.525 38.0526 139.241 38.2495C138.961 38.442 138.746 38.6782 138.598 38.9583C138.449 39.2339 138.375 39.5467 138.375 39.8967C138.375 40.2817 138.469 40.6273 138.657 40.9336C138.849 41.2354 139.116 41.4739 139.457 41.6489C139.803 41.8239 140.208 41.9114 140.671 41.9114C141.083 41.9114 141.45 41.8501 141.774 41.7276C142.102 41.6007 142.386 41.4389 142.627 41.242C142.8 41.0977 142.949 40.9466 143.074 40.7887C143.08 40.918 143.091 41.0516 143.106 41.1895C143.137 41.4257 143.178 41.6226 143.231 41.7801H144.064V41.7014C143.994 41.5308 143.94 41.3142 143.9 41.0517C143.865 40.7892 143.848 40.5354 143.848 40.2904V36.8582C143.848 36.342 143.738 35.9132 143.52 35.572C143.301 35.2307 142.997 34.9748 142.607 34.8042C142.222 34.6336 141.776 34.5482 141.269 34.5482C140.866 34.5482 140.496 34.6073 140.16 34.7254C139.827 34.8392 139.54 34.9945 139.3 35.1914C139.059 35.3882 138.873 35.6114 138.742 35.8607C138.611 36.1101 138.545 36.3682 138.545 36.6351L139.333 36.6417C139.333 36.3792 139.414 36.1407 139.575 35.9264C139.742 35.7076 139.967 35.5348 140.251 35.4079C140.54 35.2767 140.868 35.2111 141.236 35.2111C141.634 35.2111 141.969 35.2767 142.24 35.4079C142.511 35.5392 142.717 35.7273 142.857 35.9723C142.997 36.2173 143.067 36.5082 143.067 36.8451ZM141.721 38.2495H143.067V39.8185C142.987 39.998 142.88 40.1685 142.745 40.3298C142.526 40.5923 142.249 40.8045 141.912 40.9664C141.579 41.1283 141.194 41.2092 140.757 41.2092C140.429 41.2092 140.144 41.1479 139.904 41.0254C139.667 40.8986 139.484 40.7301 139.352 40.5201C139.225 40.3101 139.162 40.0782 139.162 39.8245C139.162 39.5795 139.219 39.3607 139.333 39.1682C139.451 38.9757 139.619 38.8117 139.838 38.6761C140.057 38.5361 140.324 38.4311 140.639 38.3611C140.958 38.2867 141.319 38.2495 141.721 38.2495Z" fill="white" fill-opacity="0.4"/>
<path fill-rule="evenodd" clip-rule="evenodd" d="M126.085 31.7001V35.6728C126.006 35.5523 125.918 35.44 125.823 35.3357C125.595 35.082 125.322 34.8873 125.003 34.7517C124.683 34.6161 124.316 34.5482 123.9 34.5482C123.476 34.5482 123.095 34.6336 122.758 34.8042C122.421 34.9704 122.133 35.2132 121.892 35.5326C121.656 35.8476 121.474 36.2282 121.347 36.6745C121.22 37.1164 121.157 37.6129 121.157 38.1642V38.302C121.157 38.8314 121.22 39.317 121.347 39.7589C121.474 40.2008 121.656 40.5836 121.892 40.9073C122.128 41.2267 122.415 41.4739 122.752 41.6489C123.088 41.8239 123.467 41.9114 123.887 41.9114C124.311 41.9114 124.685 41.8458 125.009 41.7145C125.337 41.5789 125.617 41.3886 125.849 41.1436C125.94 41.0454 126.025 40.9407 126.102 40.8296L126.138 41.7801H126.873V31.7001H126.085ZM121.944 38.302V38.1642C121.944 37.7486 121.986 37.3636 122.069 37.0092C122.152 36.6548 122.279 36.3464 122.45 36.0839C122.625 35.817 122.843 35.6092 123.106 35.4604C123.368 35.3117 123.681 35.2373 124.044 35.2373C124.421 35.2373 124.74 35.3007 125.003 35.4276C125.269 35.5501 125.488 35.7142 125.659 35.9198C125.834 36.1211 125.972 36.342 126.072 36.5826L126.085 36.6143V39.9451C126.031 40.0594 125.97 40.1702 125.902 40.2773C125.718 40.5617 125.473 40.7914 125.167 40.9664C124.86 41.137 124.482 41.2223 124.031 41.2223C123.673 41.2223 123.362 41.1479 123.099 40.9992C122.837 40.8504 122.62 40.6448 122.45 40.3823C122.279 40.1198 122.152 39.8114 122.069 39.457C121.986 39.1026 121.944 38.7176 121.944 38.302Z" fill="white" fill-opacity="0.4"/>
<path fill-rule="evenodd" clip-rule="evenodd" d="M111.875 41.7801L112.861 39.1026H117.201L118.189 41.7801H119.029L115.413 32.2251H115.229H114.829H114.645L111.035 41.7801H111.875ZM116.944 38.407H113.117L115.029 33.2145L116.944 38.407Z" fill="white" fill-opacity="0.4"/>
</svg>
