<svg width="200" height="60" viewBox="0 0 200 60" fill="none" xmlns="http://www.w3.org/2000/svg">
<path d="M20.8705 23.9631L20.3047 25.4818H9.55483C9.1578 25.5612 8.36373 25.9821 8.36373 27.0302C8.36373 28.0784 9.1578 28.4794 9.55483 28.5489H18.4882C19.4709 28.5489 20.8705 29.6209 20.8705 31.5267C20.8705 32.8072 20.4179 34.713 18.4882 34.713H6.10059L6.90457 33.1645H17.3269C17.9224 33.1645 18.4882 32.6702 18.4882 31.5267C18.4882 30.3833 17.9224 30.1867 17.3269 30.1867H8.54236C7.55968 30.1867 6.10059 29.341 6.10059 27.0302C6.10059 25.8987 6.73781 23.9631 8.69125 23.9631H20.8705Z" fill="white" fill-opacity="0.4"/>
<path d="M33.4936 34.7808V25.4818H26.2005L27.008 23.9631H42.9822L42.3261 25.4818H35.891V34.7808H33.4936Z" fill="white" fill-opacity="0.4"/>
<path d="M48.6236 23.9631V34.7808H60.4958L61.1772 33.3929H50.9819V30.0365H58.0732L58.6788 28.5476H50.9819V25.4818H60.4958L61.1772 23.9631H48.6236Z" fill="white" fill-opacity="0.4"/>
<path d="M68.6637 23.9631C68.6075 24.6203 68.6403 31.4487 68.6637 34.7808H79.9782L80.6809 33.3929H71.1937V23.9631H68.6637Z" fill="white" fill-opacity="0.4"/>
<path d="M87.3973 23.9631C87.3411 24.6203 87.3739 31.4487 87.3973 34.7808H98.7117L99.4145 33.3929H89.9272V23.9631H87.3973Z" fill="white" fill-opacity="0.4"/>
<path d="M103.993 34.7808L110.039 23.9152H112.612L106.812 34.7808H103.993Z" fill="white" fill-opacity="0.4"/>
<path d="M113.266 23.9152H115.798L121.884 34.7808H119.189L113.266 23.9152Z" fill="white" fill-opacity="0.4"/>
<path d="M127.045 34.7808V23.8447H129.607L140.027 32.1181V23.8447H142.45V34.7808H140.027L129.607 26.6487V34.7808H127.045Z" fill="white" fill-opacity="0.4"/>
<path d="M154.875 34.7808V25.4818H147.582L148.39 23.9631H164.364L163.708 25.4818H157.273V34.7808H154.875Z" fill="white" fill-opacity="0.4"/>
<path d="M169.716 23.9631H172.113V34.7808H169.716V23.9631Z" fill="white" fill-opacity="0.4"/>
<path d="M193.899 23.9631L193.333 25.4818H182.583C182.186 25.5612 181.392 25.9821 181.392 27.0302C181.392 28.0784 182.186 28.4794 182.583 28.5489H191.517C192.5 28.5489 193.899 29.6209 193.899 31.5267C193.899 32.8072 193.446 34.713 191.517 34.713H179.129L179.933 33.1645H190.355C190.951 33.1645 191.517 32.6702 191.517 31.5267C191.517 30.3833 190.951 30.1867 190.355 30.1867H181.571C180.588 30.1867 179.129 29.341 179.129 27.0302C179.129 25.8987 179.766 23.9631 181.72 23.9631H193.899Z" fill="white" fill-opacity="0.4"/>
<path d="M113.862 43.0007C113.862 43.6314 113.351 44.1427 112.72 44.1427C112.089 44.1427 111.578 43.6314 111.578 43.0007C111.578 42.37 112.089 41.8587 112.72 41.8587C113.351 41.8587 113.862 42.37 113.862 43.0007Z" fill="white" fill-opacity="0.4"/>
<path d="M110.797 45.3248C110.797 45.7895 110.42 46.1662 109.955 46.1662C109.49 46.1662 109.114 45.7895 109.114 45.3248C109.114 44.86 109.49 44.4833 109.955 44.4833C110.42 44.4833 110.797 44.86 110.797 45.3248Z" fill="white" fill-opacity="0.4"/>
<path d="M113.376 47.6148C113.376 47.936 113.116 48.1965 112.794 48.1965C112.473 48.1965 112.212 47.936 112.212 47.6148C112.212 47.2935 112.473 47.033 112.794 47.033C113.116 47.033 113.376 47.2935 113.376 47.6148Z" fill="white" fill-opacity="0.4"/>
<path d="M106.544 46.4513C106.544 46.7726 106.284 47.033 105.962 47.033C105.641 47.033 105.38 46.7726 105.38 46.4513C105.38 46.13 105.641 45.8696 105.962 45.8696C106.284 45.8696 106.544 46.13 106.544 46.4513Z" fill="white" fill-opacity="0.4"/>
<path d="M100.328 43.3821C100.328 43.7034 100.067 43.9639 99.746 43.9639C99.4247 43.9639 99.1642 43.7034 99.1642 43.3821C99.1642 43.0608 99.4247 42.8004 99.746 42.8004C100.067 42.8004 100.328 43.0608 100.328 43.3821Z" fill="white" fill-opacity="0.4"/>
<path d="M95.94 38.7525C95.94 39.0738 95.6795 39.3343 95.3582 39.3343C95.0369 39.3343 94.7765 39.0738 94.7765 38.7525C94.7765 38.4312 95.0369 38.1708 95.3582 38.1708C95.6795 38.1708 95.94 38.4312 95.94 38.7525Z" fill="white" fill-opacity="0.4"/>
<path d="M91.2377 36.6642C91.2377 36.8402 91.095 36.9828 90.9191 36.9828C90.7431 36.9828 90.6004 36.8402 90.6004 36.6642C90.6004 36.4882 90.7431 36.3456 90.9191 36.3456C91.095 36.3456 91.2377 36.4882 91.2377 36.6642Z" fill="white" fill-opacity="0.4"/>
<path d="M95.2246 42.4818C95.2246 42.6577 95.082 42.8004 94.906 42.8004C94.7301 42.8004 94.5874 42.6577 94.5874 42.4818C94.5874 42.3058 94.7301 42.1632 94.906 42.1632C95.082 42.1632 95.2246 42.3058 95.2246 42.4818Z" fill="white" fill-opacity="0.4"/>
<path d="M101.484 46.7699C101.484 46.9459 101.342 47.0885 101.166 47.0885C100.99 47.0885 100.847 46.9459 100.847 46.7699C100.847 46.594 100.99 46.4513 101.166 46.4513C101.342 46.4513 101.484 46.594 101.484 46.7699Z" fill="white" fill-opacity="0.4"/>
<path d="M109.114 49.675C109.114 49.851 108.971 49.9936 108.795 49.9936C108.619 49.9936 108.477 49.851 108.477 49.675C108.477 49.4991 108.619 49.3564 108.795 49.3564C108.971 49.3564 109.114 49.4991 109.114 49.675Z" fill="white" fill-opacity="0.4"/>
<path d="M105.098 43.6418C105.098 44.1066 104.721 44.4833 104.256 44.4833C103.791 44.4833 103.415 44.1066 103.415 43.6418C103.415 43.1771 103.791 42.8004 104.256 42.8004C104.721 42.8004 105.098 43.1771 105.098 43.6418Z" fill="white" fill-opacity="0.4"/>
<path d="M100.847 40.1757C100.847 40.6404 100.47 41.0171 100.006 41.0171C99.5409 41.0171 99.1642 40.6404 99.1642 40.1757C99.1642 39.711 99.5409 39.3342 100.006 39.3342C100.47 39.3342 100.847 39.711 100.847 40.1757Z" fill="white" fill-opacity="0.4"/>
<path d="M109.534 42.1592C109.534 42.7899 109.023 43.3012 108.392 43.3012C107.762 43.3012 107.25 42.7899 107.25 42.1592C107.25 41.5285 107.762 41.0172 108.392 41.0172C109.023 41.0172 109.534 41.5285 109.534 42.1592Z" fill="white" fill-opacity="0.4"/>
<path d="M105.699 40.0917C105.699 40.7224 105.187 41.2337 104.557 41.2337C103.926 41.2337 103.415 40.7224 103.415 40.0917C103.415 39.461 103.926 38.9497 104.557 38.9497C105.187 38.9497 105.699 39.461 105.699 40.0917Z" fill="white" fill-opacity="0.4"/>
<path d="M102.842 36.5825C102.842 37.2132 102.331 37.7245 101.7 37.7245C101.07 37.7245 100.558 37.2132 100.558 36.5825C100.558 35.9517 101.07 35.4404 101.7 35.4404C102.331 35.4404 102.842 35.9517 102.842 36.5825Z" fill="white" fill-opacity="0.4"/>
<path d="M115.08 45.5128C115.08 45.9776 115.457 46.3543 115.922 46.3543C116.387 46.3543 116.763 45.9776 116.763 45.5128C116.763 45.0481 116.387 44.6714 115.922 44.6714C115.457 44.6714 115.08 45.0481 115.08 45.5128Z" fill="white" fill-opacity="0.4"/>
<path d="M119.333 46.6394C119.333 46.9607 119.594 47.2211 119.915 47.2211C120.236 47.2211 120.497 46.9607 120.497 46.6394C120.497 46.3181 120.236 46.0576 119.915 46.0576C119.594 46.0576 119.333 46.3181 119.333 46.6394Z" fill="white" fill-opacity="0.4"/>
<path d="M125.549 43.5702C125.549 43.8915 125.81 44.152 126.131 44.152C126.452 44.152 126.713 43.8915 126.713 43.5702C126.713 43.2489 126.452 42.9885 126.131 42.9885C125.81 42.9885 125.549 43.2489 125.549 43.5702Z" fill="white" fill-opacity="0.4"/>
<path d="M129.937 38.9406C129.937 39.2619 130.198 39.5224 130.519 39.5224C130.84 39.5224 131.101 39.2619 131.101 38.9406C131.101 38.6193 130.84 38.3589 130.519 38.3589C130.198 38.3589 129.937 38.6193 129.937 38.9406Z" fill="white" fill-opacity="0.4"/>
<path d="M132.028 33.0188C132.028 33.3401 132.289 33.6005 132.61 33.6005C132.931 33.6005 133.192 33.3401 133.192 33.0188C133.192 32.6975 132.931 32.437 132.61 32.437C132.289 32.437 132.028 32.6975 132.028 33.0188Z" fill="white" fill-opacity="0.4"/>
<path d="M134.639 36.8523C134.639 37.0282 134.782 37.1709 134.958 37.1709C135.134 37.1709 135.277 37.0282 135.277 36.8523C135.277 36.6763 135.134 36.5337 134.958 36.5337C134.782 36.5337 134.639 36.6763 134.639 36.8523Z" fill="white" fill-opacity="0.4"/>
<path d="M130.652 42.6699C130.652 42.8458 130.795 42.9885 130.971 42.9885C131.147 42.9885 131.29 42.8458 131.29 42.6699C131.29 42.4939 131.147 42.3513 130.971 42.3513C130.795 42.3513 130.652 42.4939 130.652 42.6699Z" fill="white" fill-opacity="0.4"/>
<path d="M124.393 46.958C124.393 47.134 124.535 47.2766 124.711 47.2766C124.887 47.2766 125.03 47.134 125.03 46.958C125.03 46.782 124.887 46.6394 124.711 46.6394C124.535 46.6394 124.393 46.782 124.393 46.958Z" fill="white" fill-opacity="0.4"/>
<path d="M116.763 49.8631C116.763 50.0391 116.906 50.1817 117.082 50.1817C117.258 50.1817 117.401 50.0391 117.401 49.8631C117.401 49.6872 117.258 49.5445 117.082 49.5445C116.906 49.5445 116.763 49.6872 116.763 49.8631Z" fill="white" fill-opacity="0.4"/>
<path d="M120.779 43.8299C120.779 44.2946 121.156 44.6714 121.621 44.6714C122.086 44.6714 122.462 44.2946 122.462 43.8299C122.462 43.3652 122.086 42.9885 121.621 42.9885C121.156 42.9885 120.779 43.3652 120.779 43.8299Z" fill="white" fill-opacity="0.4"/>
<path d="M125.03 40.3638C125.03 40.8285 125.407 41.2052 125.871 41.2052C126.336 41.2052 126.713 40.8285 126.713 40.3638C126.713 39.8991 126.336 39.5223 125.871 39.5223C125.407 39.5223 125.03 39.8991 125.03 40.3638Z" fill="white" fill-opacity="0.4"/>
<path d="M116.343 42.3473C116.343 42.978 116.854 43.4893 117.485 43.4893C118.115 43.4893 118.627 42.978 118.627 42.3473C118.627 41.7166 118.115 41.2053 117.485 41.2053C116.854 41.2053 116.343 41.7166 116.343 42.3473Z" fill="white" fill-opacity="0.4"/>
<path d="M120.178 40.2798C120.178 40.9105 120.69 41.4218 121.32 41.4218C121.951 41.4218 122.462 40.9105 122.462 40.2798C122.462 39.6491 121.951 39.1378 121.32 39.1378C120.69 39.1378 120.178 39.6491 120.178 40.2798Z" fill="white" fill-opacity="0.4"/>
<path d="M123.035 36.7705C123.035 37.4013 123.546 37.9126 124.177 37.9126C124.807 37.9126 125.319 37.4013 125.319 36.7705C125.319 36.1398 124.807 35.6285 124.177 35.6285C123.546 35.6285 123.035 36.1398 123.035 36.7705Z" fill="white" fill-opacity="0.4"/>
<path d="M113.862 16.8114C113.862 16.1806 113.351 15.6693 112.72 15.6693C112.089 15.6693 111.578 16.1806 111.578 16.8114C111.578 17.4421 112.089 17.9534 112.72 17.9534C113.351 17.9534 113.862 17.4421 113.862 16.8114Z" fill="white" fill-opacity="0.4"/>
<path d="M113.376 12.1973C113.376 11.876 113.116 11.6155 112.794 11.6155C112.473 11.6155 112.213 11.876 112.213 12.1973C112.213 12.5186 112.473 12.779 112.794 12.779C113.116 12.779 113.376 12.5186 113.376 12.1973Z" fill="white" fill-opacity="0.4"/>
<path d="M110.797 14.4873C110.797 14.0225 110.42 13.6458 109.955 13.6458C109.491 13.6458 109.114 14.0225 109.114 14.4873C109.114 14.952 109.491 15.3287 109.955 15.3287C110.42 15.3287 110.797 14.952 110.797 14.4873Z" fill="white" fill-opacity="0.4"/>
<path d="M106.544 13.3607C106.544 13.0394 106.284 12.779 105.962 12.779C105.641 12.779 105.381 13.0394 105.381 13.3607C105.381 13.682 105.641 13.9424 105.962 13.9424C106.284 13.9424 106.544 13.682 106.544 13.3607Z" fill="white" fill-opacity="0.4"/>
<path d="M100.328 16.4299C100.328 16.1086 100.067 15.8481 99.746 15.8481C99.4247 15.8481 99.1643 16.1086 99.1643 16.4299C99.1643 16.7512 99.4247 17.0116 99.746 17.0116C100.067 17.0116 100.328 16.7512 100.328 16.4299Z" fill="white" fill-opacity="0.4"/>
<path d="M95.94 21.0595C95.94 20.7382 95.6796 20.4777 95.3583 20.4777C95.037 20.4777 94.7765 20.7382 94.7765 21.0595C94.7765 21.3808 95.037 21.6412 95.3583 21.6412C95.6796 21.6412 95.94 21.3808 95.94 21.0595Z" fill="white" fill-opacity="0.4"/>
<path d="M93.6576 27.0034C93.6576 26.6822 93.3971 26.4217 93.0759 26.4217C92.7546 26.4217 92.4941 26.6822 92.4941 27.0034C92.4941 27.3247 92.7546 27.5852 93.0759 27.5852C93.3971 27.5852 93.6576 27.3247 93.6576 27.0034Z" fill="white" fill-opacity="0.4"/>
<path d="M95.2247 17.3302C95.2247 17.1543 95.0821 17.0116 94.9061 17.0116C94.7301 17.0116 94.5875 17.1543 94.5875 17.3302C94.5875 17.5062 94.7301 17.6488 94.9061 17.6488C95.0821 17.6488 95.2247 17.5062 95.2247 17.3302Z" fill="white" fill-opacity="0.4"/>
<path d="M101.484 13.0421C101.484 12.8661 101.342 12.7235 101.166 12.7235C100.99 12.7235 100.847 12.8661 100.847 13.0421C100.847 13.218 100.99 13.3607 101.166 13.3607C101.342 13.3607 101.484 13.218 101.484 13.0421Z" fill="white" fill-opacity="0.4"/>
<path d="M109.114 10.137C109.114 9.961 108.971 9.81836 108.795 9.81836C108.619 9.81836 108.477 9.961 108.477 10.137C108.477 10.3129 108.619 10.4556 108.795 10.4556C108.971 10.4556 109.114 10.3129 109.114 10.137Z" fill="white" fill-opacity="0.4"/>
<path d="M105.098 16.1702C105.098 15.7055 104.721 15.3287 104.256 15.3287C103.791 15.3287 103.415 15.7055 103.415 16.1702C103.415 16.6349 103.791 17.0116 104.256 17.0116C104.721 17.0116 105.098 16.6349 105.098 16.1702Z" fill="white" fill-opacity="0.4"/>
<path d="M100.847 19.6364C100.847 19.1717 100.47 18.7949 100.006 18.7949C99.541 18.7949 99.1643 19.1717 99.1643 19.6364C99.1643 20.1011 99.541 20.4778 100.006 20.4778C100.47 20.4778 100.847 20.1011 100.847 19.6364Z" fill="white" fill-opacity="0.4"/>
<path d="M97.804 24.6862C97.804 24.2215 97.4273 23.8448 96.9626 23.8448C96.4978 23.8448 96.1211 24.2215 96.1211 24.6862C96.1211 25.1509 96.4978 25.5277 96.9626 25.5277C97.4273 25.5277 97.804 25.1509 97.804 24.6862Z" fill="white" fill-opacity="0.4"/>
<path d="M96.589 29.9195C96.589 29.4548 96.2123 29.0781 95.7476 29.0781C95.2828 29.0781 94.9061 29.4548 94.9061 29.9195C94.9061 30.3842 95.2828 30.761 95.7476 30.761C96.2123 30.761 96.589 30.3842 96.589 29.9195Z" fill="white" fill-opacity="0.4"/>
<path d="M109.535 17.6528C109.535 17.0221 109.023 16.5108 108.393 16.5108C107.762 16.5108 107.25 17.0221 107.25 17.6528C107.25 18.2835 107.762 18.7948 108.393 18.7948C109.023 18.7948 109.535 18.2835 109.535 17.6528Z" fill="white" fill-opacity="0.4"/>
<path d="M105.699 19.7204C105.699 19.0896 105.188 18.5783 104.557 18.5783C103.926 18.5783 103.415 19.0896 103.415 19.7204C103.415 20.3511 103.926 20.8624 104.557 20.8624C105.188 20.8624 105.699 20.3511 105.699 19.7204Z" fill="white" fill-opacity="0.4"/>
<path d="M102.842 23.2295C102.842 22.5988 102.331 22.0875 101.7 22.0875C101.07 22.0875 100.558 22.5988 100.558 23.2295C100.558 23.8603 101.07 24.3716 101.7 24.3716C102.331 24.3716 102.842 23.8603 102.842 23.2295Z" fill="white" fill-opacity="0.4"/>
<path d="M101.148 27.5637C101.148 26.933 100.636 26.4217 100.006 26.4217C99.375 26.4217 98.8637 26.933 98.8637 27.5637C98.8637 28.1945 99.375 28.7058 100.006 28.7058C100.636 28.7058 101.148 28.1945 101.148 27.5637Z" fill="white" fill-opacity="0.4"/>
<path d="M114.889 14.4873C114.889 14.0225 115.266 13.6458 115.731 13.6458C116.195 13.6458 116.572 14.0225 116.572 14.4873C116.572 14.952 116.195 15.3287 115.731 15.3287C115.266 15.3287 114.889 14.952 114.889 14.4873Z" fill="white" fill-opacity="0.4"/>
<path d="M119.142 13.3607C119.142 13.0394 119.402 12.779 119.724 12.779C120.045 12.779 120.305 13.0394 120.305 13.3607C120.305 13.682 120.045 13.9424 119.724 13.9424C119.402 13.9424 119.142 13.682 119.142 13.3607Z" fill="white" fill-opacity="0.4"/>
<path d="M125.358 16.4299C125.358 16.1086 125.619 15.8481 125.94 15.8481C126.261 15.8481 126.522 16.1086 126.522 16.4299C126.522 16.7512 126.261 17.0116 125.94 17.0116C125.619 17.0116 125.358 16.7512 125.358 16.4299Z" fill="white" fill-opacity="0.4"/>
<path d="M129.746 21.0595C129.746 20.7382 130.006 20.4777 130.328 20.4777C130.649 20.4777 130.909 20.7382 130.909 21.0595C130.909 21.3808 130.649 21.6412 130.328 21.6412C130.006 21.6412 129.746 21.3808 129.746 21.0595Z" fill="white" fill-opacity="0.4"/>
<path d="M132.028 27.0034C132.028 26.6822 132.289 26.4217 132.61 26.4217C132.931 26.4217 133.192 26.6822 133.192 27.0034C133.192 27.3247 132.931 27.5852 132.61 27.5852C132.289 27.5852 132.028 27.3247 132.028 27.0034Z" fill="white" fill-opacity="0.4"/>
<path d="M130.461 17.3302C130.461 17.1543 130.604 17.0116 130.78 17.0116C130.956 17.0116 131.098 17.1543 131.098 17.3302C131.098 17.5062 130.956 17.6488 130.78 17.6488C130.604 17.6488 130.461 17.5062 130.461 17.3302Z" fill="white" fill-opacity="0.4"/>
<path d="M134.467 23.2296C134.467 23.0536 134.609 22.911 134.785 22.911C134.961 22.911 135.104 23.0536 135.104 23.2296C135.104 23.4055 134.961 23.5482 134.785 23.5482C134.609 23.5482 134.467 23.4055 134.467 23.2296Z" fill="white" fill-opacity="0.4"/>
<path d="M124.201 13.0421C124.201 12.8661 124.344 12.7235 124.52 12.7235C124.696 12.7235 124.839 12.8661 124.839 13.0421C124.839 13.218 124.696 13.3607 124.52 13.3607C124.344 13.3607 124.201 13.218 124.201 13.0421Z" fill="white" fill-opacity="0.4"/>
<path d="M116.572 10.137C116.572 9.961 116.715 9.81836 116.891 9.81836C117.067 9.81836 117.209 9.961 117.209 10.137C117.209 10.3129 117.067 10.4556 116.891 10.4556C116.715 10.4556 116.572 10.3129 116.572 10.137Z" fill="white" fill-opacity="0.4"/>
<path d="M120.588 16.1702C120.588 15.7055 120.965 15.3287 121.43 15.3287C121.894 15.3287 122.271 15.7055 122.271 16.1702C122.271 16.6349 121.894 17.0116 121.43 17.0116C120.965 17.0116 120.588 16.6349 120.588 16.1702Z" fill="white" fill-opacity="0.4"/>
<path d="M124.839 19.6364C124.839 19.1717 125.215 18.7949 125.68 18.7949C126.145 18.7949 126.522 19.1717 126.522 19.6364C126.522 20.1011 126.145 20.4778 125.68 20.4778C125.215 20.4778 124.839 20.1011 124.839 19.6364Z" fill="white" fill-opacity="0.4"/>
<path d="M127.882 24.6862C127.882 24.2215 128.259 23.8448 128.723 23.8448C129.188 23.8448 129.565 24.2215 129.565 24.6862C129.565 25.1509 129.188 25.5277 128.723 25.5277C128.259 25.5277 127.882 25.1509 127.882 24.6862Z" fill="white" fill-opacity="0.4"/>
<path d="M116.151 17.6528C116.151 17.0221 116.663 16.5108 117.293 16.5108C117.924 16.5108 118.435 17.0221 118.435 17.6528C118.435 18.2835 117.924 18.7948 117.293 18.7948C116.663 18.7948 116.151 18.2835 116.151 17.6528Z" fill="white" fill-opacity="0.4"/>
<path d="M119.987 19.7204C119.987 19.0896 120.498 18.5783 121.129 18.5783C121.76 18.5783 122.271 19.0896 122.271 19.7204C122.271 20.3511 121.76 20.8624 121.129 20.8624C120.498 20.8624 119.987 20.3511 119.987 19.7204Z" fill="white" fill-opacity="0.4"/>
<path d="M122.843 23.2295C122.843 22.5988 123.355 22.0875 123.985 22.0875C124.616 22.0875 125.127 22.5988 125.127 23.2295C125.127 23.8603 124.616 24.3716 123.985 24.3716C123.355 24.3716 122.843 23.8603 122.843 23.2295Z" fill="white" fill-opacity="0.4"/>
</svg>
