<svg width="200" height="60" viewBox="0 0 200 60" fill="none" xmlns="http://www.w3.org/2000/svg">
<path d="M65.1691 37.0809H63.2506V23.3206H66.2087L70.1969 33.9622L74.1852 23.3206H77.1055V37.0809H75.2342L75.3665 25.1351L70.8963 37.0809H69.4787L65.0273 25.1351L65.1691 37.0809Z" fill="white" fill-opacity="0.4"/>
<path d="M86.1828 37.0809H79.038V23.3206H86.1828V25.154H81.0321V29.2651H86.1828V31.0608H81.0321V35.1813H86.1828V37.0809Z" fill="white" fill-opacity="0.4"/>
<path d="M90.8088 30.4654H91.8294C93.2092 30.4654 94.2362 30.2417 94.9104 29.7943C95.5846 29.347 95.9216 28.6666 95.9216 27.753C95.9216 26.8646 95.6318 26.2125 95.0522 25.7967C94.4725 25.3808 93.5558 25.1729 92.302 25.1729H90.8088V30.4654ZM90.8088 37.0809H88.8146V23.3206H92.784C94.4347 23.3206 95.6948 23.7017 96.5643 24.4641C97.4338 25.2265 97.8685 26.3291 97.8685 27.7719C97.8685 28.8934 97.5031 29.8322 96.7722 30.5882C96.0476 31.338 95.112 31.7412 93.9653 31.7979L97.8685 37.0809H95.3735L90.8088 30.6922V37.0809Z" fill="white" fill-opacity="0.4"/>
<path d="M111.416 33.6314C110.817 34.8348 109.989 35.7578 108.93 36.4005C107.878 37.0368 106.656 37.355 105.264 37.355C104.23 37.355 103.276 37.1565 102.4 36.7596C101.531 36.3627 100.749 35.7736 100.056 34.9923C99.4702 34.3433 99.026 33.6062 98.7236 32.7808C98.4212 31.9491 98.27 31.0608 98.27 30.1157C98.27 29.158 98.4527 28.2507 98.8181 27.3938C99.1835 26.5307 99.7191 25.7463 100.425 25.0406C101.093 24.3853 101.833 23.8907 102.646 23.5568C103.465 23.2166 104.344 23.0465 105.282 23.0465C106.694 23.0465 107.932 23.3804 108.997 24.0483C110.068 24.7161 110.874 25.6612 111.416 26.8835H109.072C108.631 26.2723 108.089 25.8124 107.447 25.5037C106.804 25.195 106.076 25.0406 105.264 25.0406C104.615 25.0406 103.997 25.1635 103.411 25.4092C102.825 25.6549 102.305 26.0109 101.852 26.4771C101.379 26.9623 101.011 27.5262 100.746 28.1688C100.481 28.8115 100.349 29.4667 100.349 30.1346C100.349 30.8528 100.469 31.5333 100.708 32.176C100.948 32.8123 101.291 33.3636 101.738 33.8298C102.211 34.3213 102.756 34.7025 103.373 34.9734C103.991 35.2443 104.621 35.3798 105.264 35.3798C106.051 35.3798 106.76 35.2317 107.39 34.9356C108.026 34.6332 108.549 34.1984 108.959 33.6314H111.416Z" fill="white" fill-opacity="0.4"/>
<path d="M115.097 30.1346C115.097 30.8528 115.217 31.5333 115.456 32.176C115.695 32.8123 116.039 33.3636 116.486 33.8298C116.959 34.3213 117.504 34.7025 118.121 34.9734C118.739 35.2443 119.369 35.3798 120.011 35.3798C121.435 35.3798 122.626 34.8757 123.584 33.8676C124.541 32.8533 125.02 31.5963 125.02 30.0968C125.02 29.4604 124.904 28.8556 124.671 28.2822C124.444 27.7026 124.11 27.1702 123.669 26.685C123.146 26.1243 122.585 25.7116 121.987 25.447C121.394 25.1761 120.736 25.0406 120.011 25.0406C119.362 25.0406 118.745 25.1635 118.159 25.4092C117.573 25.6549 117.053 26.0109 116.6 26.4771C116.127 26.9623 115.758 27.5262 115.494 28.1688C115.229 28.8115 115.097 29.4667 115.097 30.1346ZM113.018 30.1157C113.018 29.1517 113.2 28.2381 113.566 27.3749C113.931 26.5118 114.467 25.7337 115.173 25.0406C115.84 24.3853 116.581 23.8907 117.393 23.5568C118.213 23.2166 119.091 23.0465 120.03 23.0465C120.994 23.0465 121.886 23.2166 122.705 23.5568C123.53 23.8907 124.283 24.3916 124.964 25.0595C125.663 25.7463 126.189 26.5149 126.542 27.3655C126.895 28.2161 127.071 29.1328 127.071 30.1157C127.071 31.0923 126.92 31.9932 126.617 32.8186C126.315 33.6377 125.861 34.3748 125.257 35.0301C124.545 35.7988 123.748 36.3784 122.865 36.769C121.99 37.1597 121.038 37.355 120.011 37.355C118.978 37.355 118.024 37.1565 117.148 36.7596C116.278 36.3627 115.497 35.7736 114.804 34.9923C114.218 34.3433 113.774 33.6062 113.471 32.7808C113.169 31.9491 113.018 31.0608 113.018 30.1157Z" fill="white" fill-opacity="0.4"/>
<path d="M133.946 37.0809H132.765L127.463 23.3206H129.571L133.351 33.5747L137.141 23.3206H139.229L133.946 37.0809Z" fill="white" fill-opacity="0.4"/>
<path d="M142.239 37.0809H140.245V23.3206H142.239V37.0809Z" fill="white" fill-opacity="0.4"/>
<path d="M151.326 31.1364L149.389 25.9101L147.413 31.1364H151.326ZM146.705 33.0738L145.155 37.0809H143.047L148.425 23.3206H150.362L155.74 37.0809H153.556L152.044 33.0738H146.705Z" fill="white" fill-opacity="0.4"/>
<path d="M161.703 33.1116H163.489C163.52 33.8235 163.731 34.3937 164.122 34.8222C164.513 35.2443 165.02 35.4554 165.644 35.4554C166.33 35.4554 166.878 35.2443 167.288 34.8222C167.704 34.3937 167.912 33.8235 167.912 33.1116C167.912 32.4878 167.761 32.0058 167.458 31.6656C167.156 31.3254 166.523 31.0072 165.559 30.7111C165.508 30.6985 165.423 30.6764 165.303 30.6449C164.15 30.3362 163.316 29.829 162.799 29.1233C162.566 28.8146 162.389 28.487 162.27 28.1405C162.156 27.7876 162.1 27.4127 162.1 27.0158C162.1 25.8376 162.449 24.8862 163.149 24.1617C163.848 23.4308 164.765 23.0654 165.899 23.0654C166.951 23.0654 167.798 23.393 168.441 24.0483C169.09 24.6972 169.449 25.5887 169.518 26.7228H167.657C167.625 26.1747 167.439 25.7337 167.099 25.3997C166.765 25.0595 166.343 24.8894 165.833 24.8894C165.284 24.8894 164.837 25.0784 164.491 25.4564C164.15 25.8282 163.98 26.3102 163.98 26.9024C163.98 27.1103 164.012 27.3056 164.075 27.4884C164.138 27.6711 164.235 27.8412 164.368 27.9987C164.639 28.32 165.218 28.5972 166.107 28.8304C166.516 28.9375 166.831 29.0288 167.052 29.1044C167.959 29.4447 168.646 29.9393 169.112 30.5882C169.585 31.2372 169.821 32.0153 169.821 32.9226C169.821 34.252 169.443 35.3231 168.687 36.1358C167.931 36.9486 166.929 37.355 165.681 37.355C164.509 37.355 163.555 36.9675 162.818 36.1925C162.087 35.4113 161.715 34.3843 161.703 33.1116Z" fill="white" fill-opacity="0.4"/>
<path d="M174.343 37.0809H172.453V34.756H174.343V37.0809Z" fill="white" fill-opacity="0.4"/>
<path d="M184.044 31.1364L182.107 25.9101L180.131 31.1364H184.044ZM179.422 33.0738L177.873 37.0809H175.765L181.143 23.3206H183.08L188.457 37.0809H186.274L184.762 33.0738H179.422Z" fill="white" fill-opacity="0.4"/>
<path d="M191.93 37.0809H190.04V34.756H191.93V37.0809Z" fill="white" fill-opacity="0.4"/>
<path d="M30.0884 8.09326C17.9279 8.09326 8.06982 17.9012 8.06982 30C8.06982 33.5083 8.89872 36.8239 10.3723 39.7637C18.6626 37.9734 25.8741 31.0675 28.4127 27.6139C29.5048 26.1283 30.5161 24.7697 31.4664 23.5309C27.5057 21.7112 23.7834 21.3158 21.8408 21.0103C23.5744 20.479 27.7806 20.7073 32.3125 22.4395C33.0473 21.5025 33.7467 20.6413 34.4209 19.852C31.3028 18.473 27.1302 17.8986 20.4794 18.5529V15.7354C26.7767 14.8903 31.6908 16.2787 35.486 18.6431C38.3784 15.4705 40.8821 13.6807 43.9009 12.9387C40.1236 9.9078 35.319 8.09326 30.0884 8.09326Z" fill="white" fill-opacity="0.4"/>
<path d="M30.0884 51.9068C42.249 51.9068 52.1071 42.0988 52.1071 30C52.1071 23.9603 49.6504 18.4914 45.677 14.5286C43.1252 16.2596 40.9398 18.5708 38.9302 21.2974C41.2873 23.5017 43.0395 26.032 44.3058 28.3224C42.0137 26.047 40.2596 23.947 38.2381 22.2622C37.7144 23.0114 37.2016 23.7887 36.6961 24.5908C40.1001 26.678 43.2989 29.7532 45.3758 34.1342L43.013 35.669C41.1 31.2522 38.5086 28.2175 35.7632 26.1109C34.8523 27.6325 33.9584 29.2311 33.0595 30.8876C28.68 38.9582 20.2035 44.1892 14.8821 45.8748C18.7979 49.4368 23.7545 51.9068 30.0884 51.9068Z" fill="white" fill-opacity="0.4"/>
</svg>
