<svg width="200" height="60" viewBox="0 0 200 60" fill="none" xmlns="http://www.w3.org/2000/svg">
<path fill-rule="evenodd" clip-rule="evenodd" d="M57.9413 21.6547L58.1126 51.7937C58.1126 52.3613 57.77 53.4964 56.3994 53.4964C55.0289 53.4964 36.6945 53.2456 27.1039 53.4964C20.5938 53.6667 11 47.707 11 38.8526V8.20277C11 7.63518 11.3084 6.5 12.5419 6.5H41.1521C51.7738 6.5 58.1126 14.8436 57.9413 21.6547ZM25.5621 50.772H55.3715V20.633C54.5492 12.5959 46.9198 9.6785 43.2079 9.22443H13.5698V38.8526C13.7068 46.481 21.6218 49.9774 25.5621 50.772Z" fill="white" fill-opacity="0.4"/>
<path d="M33.7854 18.2491L29.1598 24.5494H24.1915C23.1636 24.8899 21.1078 26.15 21.1078 28.4657C21.1078 30.7815 23.1636 31.928 24.1915 32.2118H29.6737L37.2117 22.1655H45.2637C47.4338 22.6763 51.7738 24.9921 51.7738 30.1685C51.7738 35.3449 47.4338 37.3201 45.2637 37.6607H42.0087L38.7536 42.0879H33.7854L39.6102 33.7443H44.7498C46.1203 33.7443 47.8335 32.0415 47.8335 30.1685C47.8335 27.9549 46.4629 26.2521 45.2637 26.2521H39.2676L31.7295 36.2985H24.1915C21.8502 35.9012 17.1675 33.7784 17.1675 28.4657C17.1675 23.1531 21.5075 21.0303 23.6776 20.633H27.1039L29.1598 18.2491H33.7854Z" fill="white" fill-opacity="0.4"/>
<path d="M72.673 38.495C69.5608 38.495 67.0378 35.9869 67.0378 32.8929C67.0378 29.799 69.5608 27.2908 72.673 27.2908C74.092 27.2908 75.3885 27.8122 76.3792 28.6728L77.9979 26.8907C76.5788 25.6455 74.7147 24.8899 72.673 24.8899C68.227 24.8899 64.6227 28.473 64.6227 32.8929C64.6227 37.3129 68.227 40.8959 72.673 40.8959C74.7552 40.8959 76.6527 40.1101 78.0819 38.8205L76.4907 37.0136C75.4868 37.9333 74.1459 38.495 72.673 38.495Z" fill="white" fill-opacity="0.4"/>
<path fill-rule="evenodd" clip-rule="evenodd" d="M84.7485 40.8959C87.8607 40.8959 90.3837 38.3878 90.3837 35.2938C90.3837 32.1999 87.8607 29.6917 84.7485 29.6917C81.6362 29.6917 79.1133 32.1999 79.1133 35.2938C79.1133 38.3878 81.6362 40.8959 84.7485 40.8959ZM84.7485 39.2953C86.9715 39.2953 88.7736 37.5038 88.7736 35.2938C88.7736 33.0839 86.9715 31.2923 84.7485 31.2923C82.5255 31.2923 80.7233 33.0839 80.7233 35.2938C80.7233 37.5038 82.5255 39.2953 84.7485 39.2953Z" fill="white" fill-opacity="0.4"/>
<path d="M92.7988 29.6917V40.0956H94.4089V32.4928V31.3604V29.6917H92.7988Z" fill="white" fill-opacity="0.4"/>
<path d="M98.434 29.6917C98.1925 29.6917 97.9548 29.723 97.7229 29.7792C96.0995 30.1731 94.7611 31.7925 94.4089 32.4928C96.824 30.0919 99.5074 31.0256 99.6416 32.0926V40.0956H100.849V32.0926C100.849 31.8704 100.812 31.5865 100.717 31.2923C100.469 30.5269 99.8297 29.6917 98.434 29.6917Z" fill="white" fill-opacity="0.4"/>
<path d="M104.472 29.6917C104.339 29.6917 104.21 29.6992 104.084 29.7135C102.367 29.9074 101.224 31.3472 100.849 32.0926C103.264 30.0919 106.216 31.0256 106.484 32.0926V40.0956H107.692V32.0926C107.424 31.2923 106.404 29.6917 104.472 29.6917Z" fill="white" fill-opacity="0.4"/>
<path fill-rule="evenodd" clip-rule="evenodd" d="M119.365 38.495C118.56 39.2953 117.461 40.0956 115.34 40.0956C112.522 40.0956 110.509 38.495 110.509 34.8937C110.509 31.2923 112.522 29.6917 115.34 29.6917C118.157 29.6917 119.767 32.0926 119.767 35.2938H112.12C112.12 36.4943 112.522 38.495 115.34 38.495C116.719 38.495 117.352 38.495 118.56 37.6947L119.365 38.495ZM117.755 33.6932H112.12C112.12 32.4928 113.408 31.2923 115.34 31.2923C117.272 31.2923 117.755 32.8929 117.755 33.6932Z" fill="white" fill-opacity="0.4"/>
<path d="M120.975 39.6955L124.598 34.8937L120.975 30.0919H122.585L125.403 33.6932L128.22 30.0919H129.83L126.208 34.8937L129.83 39.6955H128.22L125.403 36.0941L122.585 39.6955H120.975Z" fill="white" fill-opacity="0.4"/>
<path d="M94.4089 32.4928C94.7611 31.7925 96.0995 30.1731 97.7229 29.7792C96.7759 29.9881 96.3167 29.9982 94.4089 31.3604V32.4928Z" fill="white" fill-opacity="0.4"/>
<path d="M100.849 32.0926C101.224 31.3472 102.367 29.9074 104.084 29.7135C103.204 29.8037 101.729 30.1961 100.717 31.2923C100.812 31.5865 100.849 31.8704 100.849 32.0926Z" fill="white" fill-opacity="0.4"/>
<path d="M162.031 29.2916V39.6955H163.642V32.0926L163.645 31.1902L163.642 29.2916H162.031Z" fill="white" fill-opacity="0.4"/>
<path d="M167.667 29.2916C167.425 29.2916 167.187 29.3228 166.956 29.3791C165.332 29.773 163.994 31.3924 163.642 32.0926C166.057 29.6917 168.74 30.6254 168.874 31.6925V39.6955H170.082V31.6925C170.082 31.4703 170.045 31.1864 169.949 30.8922C169.702 30.1268 169.062 29.2916 167.667 29.2916Z" fill="white" fill-opacity="0.4"/>
<path d="M173.704 29.2916C173.572 29.2916 173.443 29.2991 173.316 29.3134C171.6 29.5073 170.457 30.947 170.082 31.6925C172.497 29.6917 175.449 30.6254 175.717 31.6925V39.6955H176.925V31.6925C176.656 30.8922 175.636 29.2916 173.704 29.2916Z" fill="white" fill-opacity="0.4"/>
<path fill-rule="evenodd" clip-rule="evenodd" d="M188.597 38.0949C187.792 38.8952 186.694 39.6955 184.572 39.6955C181.755 39.6955 179.742 38.0949 179.742 34.4935C179.742 30.8922 181.755 29.2916 184.572 29.2916C187.39 29.2916 189 31.6925 189 34.8937H181.352C181.352 36.0941 181.755 38.0949 184.572 38.0949C185.951 38.0949 186.585 38.0949 187.792 37.2946L188.597 38.0949ZM186.987 33.2931H181.352C181.352 32.0926 182.64 30.8922 184.572 30.8922C186.504 30.8922 186.987 32.4928 186.987 33.2931Z" fill="white" fill-opacity="0.4"/>
<path d="M163.642 32.0926C163.994 31.3924 165.332 29.773 166.956 29.3791C166.009 29.5879 164.673 29.9982 163.645 31.1902L163.642 32.0926Z" fill="white" fill-opacity="0.4"/>
<path d="M170.082 31.6925C170.457 30.947 171.6 29.5073 173.316 29.3134C172.436 29.4036 170.961 29.796 169.949 30.8922C170.045 31.1864 170.082 31.4703 170.082 31.6925Z" fill="white" fill-opacity="0.4"/>
<path d="M151.566 40.0956H149.553V29.6917H151.566V32.4928C151.566 32.0926 153.176 29.6917 154.786 29.6917V32.0926C153.847 32.226 151.566 32.8612 151.566 34.4935V40.0956Z" fill="white" fill-opacity="0.4"/>
<path d="M157.201 39.6955H158.811V29.6917H157.201V39.6955Z" fill="white" fill-opacity="0.4"/>
<path d="M157.201 28.0911H158.811V26.0904H157.201V28.0911Z" fill="white" fill-opacity="0.4"/>
<path fill-rule="evenodd" clip-rule="evenodd" d="M137.881 40.0956V26.0904H143.516C144.857 26.0904 147.541 26.9707 147.541 30.492C147.541 34.0134 144.857 34.8937 143.516 34.8937H139.491V40.0956H137.881ZM139.491 27.691V32.8929H143.516C144.052 32.8929 145.126 32.4127 145.126 30.492C145.126 28.5713 144.321 27.691 143.516 27.691H139.491Z" fill="white" fill-opacity="0.4"/>
</svg>
