<svg width="660" height="442" viewBox="0 0 660 442" fill="none" xmlns="http://www.w3.org/2000/svg">
<g filter="url(#filter0_d_106_2928)">
<rect x="30" y="30" width="600" height="382" rx="20" fill="#F2F2F2"/>
<circle cx="51.0578" cy="51.0578" r="6.05779" fill="#F45952"/>
<circle cx="70.2756" cy="51.0578" r="6.05779" fill="#FFBC00"/>
<circle cx="89.4933" cy="51.0578" r="6.05779" fill="#0CD651"/>
<rect x="45" y="72.1157" width="145" height="324.884" rx="10" fill="#3F3F44"/>
<rect x="65" y="92.1157" width="18.4368" height="18.4368" rx="9.21838" fill="#4F4F55"/>
<rect x="91.4365" y="92.1157" width="78.5632" height="18.4368" rx="5.26765" fill="#4F4F55"/>
<rect x="65" y="120.552" width="18.4368" height="18.4368" rx="9.21838" fill="#4F4F55"/>
<rect x="91.4365" y="120.552" width="78.5632" height="18.4368" rx="5.26765" fill="#4F4F55"/>
<rect x="65" y="148.989" width="18.4368" height="18.4368" rx="9.21838" fill="#4F4F55"/>
<rect x="91.4365" y="148.989" width="78.5632" height="18.4368" rx="5.26765" fill="#4F4F55"/>
<rect x="65" y="177.426" width="18.4368" height="18.4368" rx="9.21838" fill="#4F4F55"/>
<rect x="91.4365" y="177.426" width="78.5632" height="18.4368" rx="5.26765" fill="#4F4F55"/>
<rect x="65" y="205.863" width="18.4368" height="18.4368" rx="9.21838" fill="#4F4F55"/>
<rect x="91.4365" y="205.863" width="78.5632" height="18.4368" rx="5.26765" fill="#4F4F55"/>
<rect x="205" y="72.1157" width="410" height="38.4368" rx="10" fill="white"/>
<rect x="529.689" y="82.1157" width="18.4368" height="18.4368" rx="9.21838" fill="#F2F2F2"/>
<rect x="558.126" y="82.1157" width="18.4368" height="18.4368" rx="9.21838" fill="#F2F2F2"/>
<rect x="586.563" y="82.1157" width="18.4368" height="18.4368" rx="9.21838" fill="#F2F2F2"/>
<rect x="205" y="125.553" width="410" height="271.448" rx="10" fill="white"/>
<g filter="url(#filter1_i_106_2928)">
<rect x="215" y="135.553" width="190" height="120.724" rx="10" fill="white"/>
<path opacity="0.2" d="M310 204.915C314.971 204.915 319 200.885 319 195.915C319 190.944 314.971 186.915 310 186.915C305.029 186.915 301 190.944 301 195.915C301 200.885 305.029 204.915 310 204.915Z" fill="#8583FF"/>
<path d="M310 195.915L328 177.915" stroke="#3F3F44" stroke-width="2" stroke-linecap="round" stroke-linejoin="round"/>
<path d="M322.732 183.183C319.54 179.982 315.264 178.096 310.749 177.898C306.233 177.7 301.808 179.204 298.349 182.113C294.89 185.022 292.649 189.124 292.069 193.606C291.49 198.089 292.614 202.625 295.22 206.318C297.826 210.011 301.724 212.591 306.141 213.547C310.558 214.504 315.174 213.767 319.074 211.483C322.974 209.199 325.874 205.534 327.201 201.213C328.528 196.892 328.184 192.231 326.238 188.152" stroke="#3F3F44" stroke-width="2" stroke-linecap="round" stroke-linejoin="round"/>
<path d="M316.356 189.558C314.869 188.076 312.911 187.161 310.82 186.973C308.729 186.784 306.638 187.334 304.911 188.527C303.184 189.72 301.928 191.48 301.364 193.502C300.799 195.524 300.96 197.679 301.82 199.595C302.679 201.51 304.182 203.064 306.068 203.986C307.954 204.908 310.103 205.141 312.143 204.643C314.182 204.146 315.983 202.949 317.232 201.262C318.481 199.575 319.1 197.504 318.981 195.408" stroke="#3F3F44" stroke-width="2" stroke-linecap="round" stroke-linejoin="round"/>
<rect x="215.5" y="136.053" width="189" height="119.724" rx="9.5" stroke="#F2F2F2"/>
</g>
<g filter="url(#filter2_i_106_2928)">
<rect x="415" y="135.553" width="190" height="120.724" rx="10" fill="white"/>
<path opacity="0.2" d="M519 207.915H523.5C523.898 207.915 524.279 207.757 524.561 207.475C524.842 207.194 525 206.812 525 206.415V185.415L517.5 177.915H502.5C502.102 177.915 501.721 178.073 501.439 178.354C501.158 178.635 501 179.017 501 179.415V183.915H511.5L519 191.415V207.915Z" fill="#8583FF"/>
<path d="M517.5 213.915H496.5C496.102 213.915 495.721 213.757 495.439 213.475C495.158 213.194 495 212.812 495 212.415V185.415C495 185.017 495.158 184.635 495.439 184.354C495.721 184.073 496.102 183.915 496.5 183.915H511.5L519 191.415V212.415C519 212.812 518.842 213.194 518.561 213.475C518.279 213.757 517.898 213.915 517.5 213.915Z" stroke="#3F3F44" stroke-width="2" stroke-linecap="round" stroke-linejoin="round"/>
<path d="M501 183.915V179.415C501 179.017 501.158 178.635 501.439 178.354C501.721 178.073 502.102 177.915 502.5 177.915H517.5L525 185.415V206.415C525 206.812 524.842 207.194 524.561 207.475C524.279 207.757 523.898 207.915 523.5 207.915H519" stroke="#3F3F44" stroke-width="2" stroke-linecap="round" stroke-linejoin="round"/>
<path d="M502.5 200.415H511.5" stroke="#3F3F44" stroke-width="2" stroke-linecap="round" stroke-linejoin="round"/>
<path d="M502.5 206.415H511.5" stroke="#3F3F44" stroke-width="2" stroke-linecap="round" stroke-linejoin="round"/>
<rect x="415.5" y="136.053" width="189" height="119.724" rx="9.5" stroke="#F2F2F2"/>
</g>
<g filter="url(#filter3_i_106_2928)">
<rect x="215" y="266.276" width="190" height="120.724" rx="10" fill="white"/>
<path opacity="0.2" d="M292.206 316.625C292.07 316.859 291.999 317.124 292 317.394V335.882C292.001 336.149 292.073 336.411 292.208 336.641C292.343 336.872 292.537 337.062 292.769 337.194L309.269 346.475C309.491 346.603 309.744 346.667 310 346.663V346.663L310.169 326.638L292.206 316.625Z" fill="#8583FF"/>
<path d="M328 335.882V317.395C327.999 317.128 327.927 316.866 327.792 316.635C327.657 316.405 327.463 316.214 327.231 316.082L310.731 306.801C310.509 306.673 310.257 306.605 310 306.605C309.743 306.605 309.491 306.673 309.269 306.801L292.769 316.082C292.537 316.214 292.343 316.405 292.208 316.635C292.073 316.866 292.001 317.128 292 317.395V335.882C292.001 336.149 292.073 336.411 292.208 336.642C292.343 336.872 292.537 337.063 292.769 337.195L309.269 346.476C309.491 346.604 309.743 346.672 310 346.672C310.257 346.672 310.509 346.604 310.731 346.476L327.231 337.195C327.463 337.063 327.657 336.872 327.792 336.642C327.927 336.411 327.999 336.149 328 335.882V335.882Z" stroke="#3F3F44" stroke-width="2" stroke-linecap="round" stroke-linejoin="round"/>
<path d="M319.188 331.232V321.482L301 311.451" stroke="#3F3F44" stroke-width="2" stroke-linecap="round" stroke-linejoin="round"/>
<path d="M327.794 316.625L310.169 326.638L292.206 316.625" stroke="#3F3F44" stroke-width="2" stroke-linecap="round" stroke-linejoin="round"/>
<path d="M310.169 326.638L310 346.663" stroke="#3F3F44" stroke-width="2" stroke-linecap="round" stroke-linejoin="round"/>
<rect x="215.5" y="266.776" width="189" height="119.724" rx="9.5" stroke="#F2F2F2"/>
</g>
<g filter="url(#filter4_i_106_2928)">
<rect x="415" y="266.276" width="190" height="120.724" rx="10" fill="white"/>
<path opacity="0.2" d="M523.5 331.307L516.6 338.207C516.412 338.383 516.184 338.51 515.936 338.579C515.688 338.648 515.427 338.655 515.175 338.601L504.3 335.882C504.101 335.826 503.916 335.731 503.756 335.601L493.5 327.594L499.612 316.101L509.231 313.288C509.573 313.19 509.939 313.217 510.262 313.363L516.75 316.307H512.869C512.674 316.306 512.481 316.344 512.301 316.418C512.121 316.492 511.957 316.601 511.819 316.738L504.469 324.069C504.319 324.223 504.203 324.408 504.129 324.61C504.056 324.812 504.026 325.027 504.042 325.242C504.058 325.456 504.119 325.665 504.222 325.854C504.325 326.043 504.466 326.208 504.638 326.338L505.65 327.107C506.69 327.883 507.953 328.302 509.25 328.302C510.547 328.302 511.81 327.883 512.85 327.107L515.25 325.307L523.5 331.307Z" fill="#8583FF"/>
<path d="M531.131 325.476L526.5 327.782L520.5 316.307L525.188 313.963C525.536 313.786 525.94 313.753 526.313 313.873C526.685 313.992 526.995 314.254 527.175 314.601L531.787 323.432C531.881 323.609 531.938 323.803 531.956 324.002C531.973 324.201 531.951 324.402 531.89 324.592C531.829 324.783 531.73 324.959 531.6 325.111C531.47 325.262 531.31 325.387 531.131 325.476V325.476Z" stroke="#3F3F44" stroke-width="2" stroke-linecap="round" stroke-linejoin="round"/>
<path d="M493.5 327.594L488.868 325.269C488.69 325.182 488.531 325.06 488.401 324.91C488.271 324.76 488.172 324.585 488.111 324.396C488.05 324.207 488.027 324.008 488.045 323.81C488.062 323.612 488.119 323.42 488.212 323.244L492.825 314.413C493.005 314.066 493.314 313.804 493.685 313.681C494.056 313.559 494.461 313.586 494.812 313.757L499.5 316.101L493.5 327.594Z" stroke="#3F3F44" stroke-width="2" stroke-linecap="round" stroke-linejoin="round"/>
<path d="M526.5 327.782L523.5 331.307L516.6 338.207C516.412 338.383 516.184 338.51 515.936 338.579C515.688 338.647 515.427 338.655 515.175 338.6L504.3 335.882C504.101 335.826 503.916 335.731 503.756 335.6L493.5 327.594" stroke="#3F3F44" stroke-width="2" stroke-linecap="round" stroke-linejoin="round"/>
<path d="M523.5 331.307L515.25 325.307L512.85 327.107C511.81 327.883 510.548 328.302 509.25 328.302C507.953 328.302 506.69 327.883 505.65 327.107L504.638 326.338C504.466 326.208 504.325 326.043 504.222 325.854C504.12 325.665 504.058 325.457 504.042 325.242C504.026 325.028 504.056 324.812 504.13 324.61C504.203 324.408 504.319 324.224 504.469 324.07L511.819 316.738C511.957 316.601 512.121 316.492 512.301 316.418C512.481 316.344 512.674 316.306 512.869 316.307H520.5" stroke="#3F3F44" stroke-width="2" stroke-linecap="round" stroke-linejoin="round"/>
<path d="M499.612 316.101L509.231 313.288C509.573 313.19 509.938 313.217 510.262 313.363L516.75 316.307" stroke="#3F3F44" stroke-width="2" stroke-linecap="round" stroke-linejoin="round"/>
<path d="M507 342.557L501.356 341.132C501.126 341.08 500.913 340.97 500.737 340.813L496.5 337.138" stroke="#3F3F44" stroke-width="2" stroke-linecap="round" stroke-linejoin="round"/>
<rect x="415.5" y="266.776" width="189" height="119.724" rx="9.5" stroke="#F2F2F2"/>
</g>
<rect x="30.5" y="30.5" width="599" height="381" rx="19.5" stroke="#BABABA"/>
</g>
<defs>
<filter id="filter0_d_106_2928" x="0" y="0" width="660" height="442" filterUnits="userSpaceOnUse" color-interpolation-filters="sRGB">
<feFlood flood-opacity="0" result="BackgroundImageFix"/>
<feColorMatrix in="SourceAlpha" type="matrix" values="0 0 0 0 0 0 0 0 0 0 0 0 0 0 0 0 0 0 127 0" result="hardAlpha"/>
<feOffset/>
<feGaussianBlur stdDeviation="15"/>
<feComposite in2="hardAlpha" operator="out"/>
<feColorMatrix type="matrix" values="0 0 0 0 0 0 0 0 0 0 0 0 0 0 0 0 0 0 0.12 0"/>
<feBlend mode="normal" in2="BackgroundImageFix" result="effect1_dropShadow_106_2928"/>
<feBlend mode="normal" in="SourceGraphic" in2="effect1_dropShadow_106_2928" result="shape"/>
</filter>
<filter id="filter1_i_106_2928" x="215" y="135.553" width="190" height="120.724" filterUnits="userSpaceOnUse" color-interpolation-filters="sRGB">
<feFlood flood-opacity="0" result="BackgroundImageFix"/>
<feBlend mode="normal" in="SourceGraphic" in2="BackgroundImageFix" result="shape"/>
<feColorMatrix in="SourceAlpha" type="matrix" values="0 0 0 0 0 0 0 0 0 0 0 0 0 0 0 0 0 0 127 0" result="hardAlpha"/>
<feOffset/>
<feGaussianBlur stdDeviation="30"/>
<feComposite in2="hardAlpha" operator="arithmetic" k2="-1" k3="1"/>
<feColorMatrix type="matrix" values="0 0 0 0 0 0 0 0 0 0 0 0 0 0 0 0 0 0 0.05 0"/>
<feBlend mode="normal" in2="shape" result="effect1_innerShadow_106_2928"/>
</filter>
<filter id="filter2_i_106_2928" x="415" y="135.553" width="190" height="120.724" filterUnits="userSpaceOnUse" color-interpolation-filters="sRGB">
<feFlood flood-opacity="0" result="BackgroundImageFix"/>
<feBlend mode="normal" in="SourceGraphic" in2="BackgroundImageFix" result="shape"/>
<feColorMatrix in="SourceAlpha" type="matrix" values="0 0 0 0 0 0 0 0 0 0 0 0 0 0 0 0 0 0 127 0" result="hardAlpha"/>
<feOffset/>
<feGaussianBlur stdDeviation="30"/>
<feComposite in2="hardAlpha" operator="arithmetic" k2="-1" k3="1"/>
<feColorMatrix type="matrix" values="0 0 0 0 0 0 0 0 0 0 0 0 0 0 0 0 0 0 0.05 0"/>
<feBlend mode="normal" in2="shape" result="effect1_innerShadow_106_2928"/>
</filter>
<filter id="filter3_i_106_2928" x="215" y="266.276" width="190" height="120.724" filterUnits="userSpaceOnUse" color-interpolation-filters="sRGB">
<feFlood flood-opacity="0" result="BackgroundImageFix"/>
<feBlend mode="normal" in="SourceGraphic" in2="BackgroundImageFix" result="shape"/>
<feColorMatrix in="SourceAlpha" type="matrix" values="0 0 0 0 0 0 0 0 0 0 0 0 0 0 0 0 0 0 127 0" result="hardAlpha"/>
<feOffset/>
<feGaussianBlur stdDeviation="30"/>
<feComposite in2="hardAlpha" operator="arithmetic" k2="-1" k3="1"/>
<feColorMatrix type="matrix" values="0 0 0 0 0 0 0 0 0 0 0 0 0 0 0 0 0 0 0.05 0"/>
<feBlend mode="normal" in2="shape" result="effect1_innerShadow_106_2928"/>
</filter>
<filter id="filter4_i_106_2928" x="415" y="266.276" width="190" height="120.724" filterUnits="userSpaceOnUse" color-interpolation-filters="sRGB">
<feFlood flood-opacity="0" result="BackgroundImageFix"/>
<feBlend mode="normal" in="SourceGraphic" in2="BackgroundImageFix" result="shape"/>
<feColorMatrix in="SourceAlpha" type="matrix" values="0 0 0 0 0 0 0 0 0 0 0 0 0 0 0 0 0 0 127 0" result="hardAlpha"/>
<feOffset/>
<feGaussianBlur stdDeviation="30"/>
<feComposite in2="hardAlpha" operator="arithmetic" k2="-1" k3="1"/>
<feColorMatrix type="matrix" values="0 0 0 0 0 0 0 0 0 0 0 0 0 0 0 0 0 0 0.05 0"/>
<feBlend mode="normal" in2="shape" result="effect1_innerShadow_106_2928"/>
</filter>
</defs>
</svg>
