<svg width="177" height="18" viewBox="0 0 177 18" fill="none" xmlns="http://www.w3.org/2000/svg">
<path d="M0.173752 16.3984V1.80859C0.173752 1.50391 0.279221 1.24219 0.490158 1.02344C0.701096 0.804687 0.958908 0.695312 1.2636 0.695312H10.205C14.9316 0.695312 17.2948 2.875 17.2948 7.23438C17.2948 11.5859 14.9316 13.7617 10.205 13.7617H4.59172V16.3984C4.59172 16.7031 4.48235 16.9648 4.2636 17.1836C4.05266 17.3945 3.79485 17.5 3.49016 17.5H1.28703C0.982346 17.5 0.720627 17.3945 0.501877 17.1836C0.283127 16.9648 0.173752 16.7031 0.173752 16.3984ZM4.59172 10.4453H8.86906C10.1816 10.4453 11.1777 10.2266 11.8573 9.78906C12.537 9.34375 12.8769 8.49219 12.8769 7.23438C12.8769 5.96875 12.537 5.11719 11.8573 4.67969C11.1777 4.23438 10.1816 4.01172 8.86906 4.01172H4.59172V10.4453ZM37.392 16.9961C37.392 17.332 37.1928 17.5 36.7944 17.5H33.9819C33.685 17.5 33.3569 17.3945 32.9975 17.1836C32.6459 16.9648 32.3764 16.7031 32.1889 16.3984L30.1967 13.2812C29.3764 12 28.3842 11.3594 27.2202 11.3594H24.3608V16.3984C24.3608 16.7031 24.2514 16.9648 24.0327 17.1836C23.8217 17.3945 23.5639 17.5 23.2592 17.5H21.0561C20.7514 17.5 20.4897 17.3945 20.2709 17.1836C20.0522 16.9648 19.9428 16.7031 19.9428 16.3984V1.80859C19.9428 1.50391 20.0483 1.24219 20.2592 1.02344C20.4702 0.804687 20.728 0.695312 21.0327 0.695312H30.7006C32.4897 0.695312 33.9545 1.17578 35.0952 2.13672C36.2436 3.09766 36.8178 4.39453 36.8178 6.02734C36.8178 8.30078 35.3452 9.72656 32.3998 10.3047C32.8686 10.4766 33.3022 10.7734 33.7006 11.1953C34.0991 11.6094 34.5561 12.2148 35.0717 13.0117L37.2045 16.3984C37.3295 16.6172 37.392 16.8164 37.392 16.9961ZM24.3608 8.04297H29.353C30.1577 8.04297 30.8647 7.88281 31.4741 7.5625C32.0913 7.24219 32.3998 6.73047 32.3998 6.02734C32.3998 5.32422 32.0913 4.8125 31.4741 4.49219C30.8647 4.17188 30.1577 4.01172 29.353 4.01172H24.3608V8.04297ZM55.333 15.7656C53.7392 17.1641 51.3955 17.8633 48.3017 17.8633C45.2158 17.8633 42.872 17.1641 41.2705 15.7656C39.6689 14.3594 38.8681 12.1367 38.8681 9.09766C38.8681 6.05859 39.6689 3.83984 41.2705 2.44141C42.872 1.04297 45.2158 0.34375 48.3017 0.34375C51.3955 0.34375 53.7392 1.04297 55.333 2.44141C56.9345 3.83984 57.7353 6.05859 57.7353 9.09766C57.7353 12.1367 56.9345 14.3594 55.333 15.7656ZM52.1338 4.91406C51.3447 3.97656 50.0673 3.50781 48.3017 3.50781C46.5439 3.50781 45.2666 3.97656 44.4697 4.91406C43.6806 5.85156 43.2861 7.25 43.2861 9.10938C43.2861 10.9609 43.6806 12.3555 44.4697 13.293C45.2666 14.2227 46.5439 14.6875 48.3017 14.6875C50.0673 14.6875 51.3447 14.2227 52.1338 13.293C52.9228 12.3555 53.3173 10.9609 53.3173 9.10938C53.3173 7.25 52.9228 5.85156 52.1338 4.91406ZM60.6294 16.3984V1.80859C60.6294 1.50391 60.7348 1.24219 60.9458 1.02344C61.1567 0.804687 61.4145 0.695312 61.7192 0.695312H70.6606C75.3872 0.695312 77.7505 2.875 77.7505 7.23438C77.7505 11.5859 75.3872 13.7617 70.6606 13.7617H65.0473V16.3984C65.0473 16.7031 64.938 16.9648 64.7192 17.1836C64.5083 17.3945 64.2505 17.5 63.9458 17.5H61.7427C61.438 17.5 61.1763 17.3945 60.9575 17.1836C60.7388 16.9648 60.6294 16.7031 60.6294 16.3984ZM65.0473 10.4453H69.3247C70.6372 10.4453 71.6333 10.2266 72.313 9.78906C72.9927 9.34375 73.3325 8.49219 73.3325 7.23438C73.3325 5.96875 72.9927 5.11719 72.313 4.67969C71.6333 4.23438 70.6372 4.01172 69.3247 4.01172H65.0473V10.4453ZM80.1641 10.8555V1.80859C80.1641 1.50391 80.2695 1.24219 80.4805 1.02344C80.6992 0.804687 80.9688 0.695312 81.2891 0.695312H83.4805C83.7773 0.695312 84.0352 0.804687 84.2539 1.02344C84.4727 1.24219 84.582 1.50391 84.582 1.80859V10.8789C84.582 12.0273 84.832 12.8828 85.332 13.4453C85.8398 14.0078 86.6211 14.2891 87.6758 14.2891H89.5508C90.6055 14.2891 91.3828 14.0078 91.8828 13.4453C92.3906 12.8828 92.6445 12.0273 92.6445 10.8789V1.80859C92.6445 1.50391 92.75 1.24219 92.9609 1.02344C93.1797 0.804687 93.4414 0.695312 93.7461 0.695312H95.9258C96.2461 0.695312 96.5156 0.804687 96.7344 1.02344C96.9531 1.24219 97.0625 1.50391 97.0625 1.80859V10.8555C97.0625 12.9961 96.4336 14.6562 95.1758 15.8359C93.918 17.0078 92.082 17.5938 89.668 17.5938H87.5586C85.1367 17.5938 83.2969 17.0078 82.0391 15.8359C80.7891 14.6562 80.1641 12.9961 80.1641 10.8555ZM100.66 16.4219V1.83203C100.66 1.51172 100.769 1.24219 100.988 1.02344C101.207 0.804687 101.468 0.695312 101.773 0.695312H103.976C104.281 0.695312 104.539 0.804687 104.75 1.02344C104.968 1.24219 105.078 1.51172 105.078 1.83203V14.1836H115.285C115.589 14.1836 115.847 14.293 116.058 14.5117C116.277 14.7305 116.386 14.9922 116.386 15.2969V16.3984C116.386 16.7031 116.277 16.9648 116.058 17.1836C115.847 17.3945 115.589 17.5 115.285 17.5H101.773C101.468 17.5 101.207 17.3984 100.988 17.1953C100.769 16.9844 100.66 16.7266 100.66 16.4219ZM117.827 13.1992C117.827 12.7383 117.964 12.4102 118.237 12.2148C118.511 12.0117 118.776 11.9102 119.034 11.9102H120.429C121.132 11.9102 121.667 12.293 122.034 13.0586C122.401 13.8242 123.226 14.207 124.507 14.207L128.608 14.2891C129.983 14.2891 130.671 13.8398 130.671 12.9414C130.671 12.2617 129.831 11.7266 128.151 11.3359C127.401 11.1562 126.573 10.9805 125.667 10.8086C124.761 10.6289 123.858 10.4062 122.96 10.1406C122.069 9.875 121.249 9.5625 120.499 9.20312C119.749 8.84375 119.14 8.35156 118.671 7.72656C118.21 7.09375 117.98 6.35156 117.98 5.5C117.98 3.92969 118.538 2.72266 119.655 1.87891C120.772 1.02734 122.694 0.601562 125.421 0.601562L128.397 0.671875C129.999 0.671875 131.44 1.08594 132.722 1.91406C134.011 2.73438 134.655 3.76172 134.655 4.99609C134.655 5.45703 134.519 5.78906 134.245 5.99219C133.972 6.19531 133.71 6.29688 133.46 6.29688H132.065C131.362 6.29688 130.827 5.91406 130.46 5.14844C130.093 4.375 129.269 3.98828 127.987 3.98828L124.46 3.91797C123.085 3.91797 122.397 4.36719 122.397 5.26562C122.397 5.75781 122.831 6.16016 123.698 6.47266C124.573 6.78516 125.628 7.0625 126.862 7.30469C128.105 7.53906 129.351 7.82422 130.601 8.16016C131.851 8.49609 132.909 9.05078 133.776 9.82422C134.651 10.5898 135.089 11.5469 135.089 12.6953C135.089 14.2656 134.526 15.4766 133.401 16.3281C132.284 17.1719 130.366 17.5938 127.647 17.5938L124.097 17.5234C122.495 17.5234 121.05 17.1133 119.761 16.293C118.472 15.4648 117.827 14.4336 117.827 13.1992ZM153.475 15.7656C151.881 17.1641 149.538 17.8633 146.444 17.8633C143.358 17.8633 141.014 17.1641 139.413 15.7656C137.811 14.3594 137.01 12.1367 137.01 9.09766C137.01 6.05859 137.811 3.83984 139.413 2.44141C141.014 1.04297 143.358 0.34375 146.444 0.34375C149.538 0.34375 151.881 1.04297 153.475 2.44141C155.077 3.83984 155.878 6.05859 155.878 9.09766C155.878 12.1367 155.077 14.3594 153.475 15.7656ZM150.276 4.91406C149.487 3.97656 148.21 3.50781 146.444 3.50781C144.686 3.50781 143.409 3.97656 142.612 4.91406C141.823 5.85156 141.428 7.25 141.428 9.10938C141.428 10.9609 141.823 12.3555 142.612 13.293C143.409 14.2227 144.686 14.6875 146.444 14.6875C148.21 14.6875 149.487 14.2227 150.276 13.293C151.065 12.3555 151.46 10.9609 151.46 9.10938C151.46 7.25 151.065 5.85156 150.276 4.91406ZM176.221 16.9961C176.221 17.332 176.022 17.5 175.623 17.5H172.811C172.514 17.5 172.186 17.3945 171.826 17.1836C171.475 16.9648 171.205 16.7031 171.018 16.3984L169.025 13.2812C168.205 12 167.213 11.3594 166.049 11.3594H163.19V16.3984C163.19 16.7031 163.08 16.9648 162.861 17.1836C162.65 17.3945 162.393 17.5 162.088 17.5H159.885C159.58 17.5 159.318 17.3945 159.1 17.1836C158.881 16.9648 158.772 16.7031 158.772 16.3984V1.80859C158.772 1.50391 158.877 1.24219 159.088 1.02344C159.299 0.804687 159.557 0.695312 159.861 0.695312H169.529C171.318 0.695312 172.783 1.17578 173.924 2.13672C175.072 3.09766 175.647 4.39453 175.647 6.02734C175.647 8.30078 174.174 9.72656 171.229 10.3047C171.697 10.4766 172.131 10.7734 172.529 11.1953C172.928 11.6094 173.385 12.2148 173.9 13.0117L176.033 16.3984C176.158 16.6172 176.221 16.8164 176.221 16.9961ZM163.19 8.04297H168.182C168.986 8.04297 169.693 7.88281 170.303 7.5625C170.92 7.24219 171.229 6.73047 171.229 6.02734C171.229 5.32422 170.92 4.8125 170.303 4.49219C169.693 4.17188 168.986 4.01172 168.182 4.01172H163.19V8.04297Z" fill="white"/>
</svg>
